<?xml version="1.0" standalone="no"?>
<!DOCTYPE svg PUBLIC "-//W3C//DTD SVG 1.1//EN" "http://www.w3.org/Graphics/SVG/1.1/DTD/svg11.dtd" >
<svg xmlns="http://www.w3.org/2000/svg" xmlns:xlink="http://www.w3.org/1999/xlink" version="1.1">
<metadata>
Created by FontForge 20200314 at Fri Feb 26 00:11:26 2010
 By Unknown
Part of the digitally encoded machine readable outline data for producing the Typefaces provided is copyrighted (c) 1988 - 2007 Linotype GmbH, www.linotype.com. All rights reserved. This software is the property of Linotype GmbH, and may not be reproduced, modified, disclosed or transferred without the express written approval of Linotype GmbH. Copyright (c) 1988, 1990, 1994 Adobe Systems Incorporated. All Rights Reserved. Sirichana is a trademark of Linotype GmbH and may be registered in certain other jurisdictions. This typeface is original artwork of Linotype Design Studio and Adrian Frutiger. The design may be protected in certain jurisdictions.
</metadata>
<defs>
<font id="SirichanaW31-Bold" horiz-adv-x="0" >
  <font-face 
    font-family="SirichanaW31-Bold"
    font-weight="400"
    font-stretch="normal"
    units-per-em="1000"
    panose-1="2 0 8 0 3 0 0 2 0 4"
    ascent="678"
    descent="-322"
    x-height="339"
    cap-height="461"
    bbox="-340 -279 1000 994"
    underline-thickness="50"
    underline-position="-150"
    unicode-range="U+0020-FB02"
  />
<missing-glyph horiz-adv-x="328" 
d="M328 461v-461h-328v461h328zM297 33v395h-264v-395h264zM145 150l-1 11q0 19 2 31.5t6.5 21.5t11.5 17.5t17 17.5q20 22 26 33.5t6 25.5q0 23 -14 37t-35 14t-35 -14.5t-18 -46.5l-31 6q5 44 27.5 66t57.5 22q36 0 58.5 -21t22.5 -61q0 -21 -8.5 -37.5t-31.5 -39.5
q-12 -13 -18.5 -21t-10 -15.5t-4 -18t-0.5 -26.5zM138 95q0 10 6 16.5t16 6.5t17 -6.5t7 -16.5t-7 -16.5t-17 -6.5q-9 0 -15.5 6.5t-6.5 16.5z" />
    <glyph glyph-name=".notdef" horiz-adv-x="328" 
d="M328 461v-461h-328v461h328zM297 33v395h-264v-395h264zM145 150l-1 11q0 19 2 31.5t6.5 21.5t11.5 17.5t17 17.5q20 22 26 33.5t6 25.5q0 23 -14 37t-35 14t-35 -14.5t-18 -46.5l-31 6q5 44 27.5 66t57.5 22q36 0 58.5 -21t22.5 -61q0 -21 -8.5 -37.5t-31.5 -39.5
q-12 -13 -18.5 -21t-10 -15.5t-4 -18t-0.5 -26.5zM138 95q0 10 6 16.5t16 6.5t17 -6.5t7 -16.5t-7 -16.5t-17 -6.5q-9 0 -15.5 6.5t-6.5 16.5z" />
    <glyph glyph-name="glyph1" 
 />
    <glyph glyph-name="glyph2" horiz-adv-x="278" 
 />
    <glyph glyph-name="space" unicode=" " horiz-adv-x="250" 
 />
    <glyph glyph-name="space" unicode="&#xa0;" horiz-adv-x="250" 
 />
    <glyph glyph-name="exclam" unicode="!" horiz-adv-x="253" 
d="M159 130h-65l-11 331h87zM86 82h81v-82h-81v82z" />
    <glyph glyph-name="quotedbl" unicode="&#x22;" horiz-adv-x="330" 
d="M196 469h69v-160h-69v160zM65 469h70v-160h-70v160z" />
    <glyph glyph-name="numbersign" unicode="#" horiz-adv-x="359" 
d="M76 104h-62v49h68l15 109h-61v48h67l15 105h53l-15 -105h73l15 105h53l-15 -105h57v-48h-64l-13 -109h56v-49h-64l-15 -104h-53l15 104h-72l-16 -104h-52zM222 262h-73l-14 -109h74z" />
    <glyph glyph-name="dollar" unicode="$" horiz-adv-x="359" 
d="M55 82q21 -12 47 -20t55 -8h6v125q-21 8 -42.5 17.5t-39 23.5t-28.5 34t-11 48q0 27 10 47.5t27.5 35t40.5 22.5t49 11v53h31v-51q28 -1 52.5 -5.5t45.5 -10.5l-7 -66q-20 9 -42.5 14.5t-47.5 5.5h-1v-118q21 -9 42.5 -19.5t39.5 -25t29.5 -34.5t11.5 -49q0 -28 -10 -49
t-27.5 -35.5t-41 -23t-50.5 -11.5v-53h-31v51h-3q-18 0 -32.5 1t-27.5 3.5t-25.5 6t-25.5 8.5zM241 117q0 17 -13.5 28.5t-33.5 20.5v-106q19 7 33 21.5t14 35.5zM124 304q0 -18 12.5 -29t32.5 -21v100q-19 -6 -32 -18t-13 -32z" />
    <glyph glyph-name="percent" unicode="%" horiz-adv-x="658" 
d="M385 117q0 57 27 90.5t79 33.5q51 0 78 -33.5t27 -90.5t-27 -90.5t-78 -33.5q-52 0 -79 33.5t-27 90.5zM446 117q0 -14 1.5 -27.5t6.5 -24.5t14 -17.5t23 -6.5q13 0 21.5 6.5t13.5 17.5t7 24.5t2 27.5q0 13 -2 26.5t-7 24.5t-13.5 18t-21.5 7q-14 0 -23 -7t-14 -18
t-6.5 -24.5t-1.5 -26.5zM62 294q0 57 26.5 90t78.5 33t78.5 -33t26.5 -90q0 -58 -26.5 -91t-78.5 -33t-78.5 33t-26.5 91zM122 294q0 -14 1.5 -27.5t6.5 -24.5t14 -17.5t23 -6.5t22.5 6.5t13 17.5t6.5 24.5t2 27.5q0 13 -2 26.5t-6.5 24.5t-13 18t-22.5 7t-23 -7t-14 -18
t-6.5 -24.5t-1.5 -26.5zM421 427h50l-235 -444h-49z" />
    <glyph glyph-name="ampersand" unicode="&#x26;" horiz-adv-x="456" 
d="M326 142q16 22 22.5 51t7.5 59h70q-2 -42 -15 -84.5t-41 -77.5l79 -90h-96l-35 44q-23 -25 -54.5 -38.5t-70.5 -13.5q-34 0 -63 9t-50 26.5t-32.5 42t-11.5 55.5q0 48 25 79t72 51q-12 11 -23 22.5t-19 24.5t-13 28t-5 34q0 23 11 42.5t29 33t42 21t51 7.5q24 0 46.5 -7
t39.5 -19.5t27 -31.5t10 -43t-8 -42.5t-20.5 -33t-29 -26t-34.5 -21.5zM174 211q-12 -7 -23 -15t-19.5 -18t-13 -23t-4.5 -28q0 -17 6.5 -31t17.5 -23.5t26 -15t32 -5.5q25 0 47 9t37 26zM148 360q0 -12 4 -22t11 -19t15 -17l16 -16q9 5 20.5 12.5t21 17t16 21t6.5 24.5
q0 25 -15 38t-37 13q-12 0 -22.5 -3.5t-18.5 -10t-12.5 -16.5t-4.5 -22z" />
    <glyph glyph-name="quotesingle" unicode="'" horiz-adv-x="179" 
d="M55 469h69v-160h-69v160z" />
    <glyph glyph-name="parenleft" unicode="(" horiz-adv-x="206" 
d="M130 -96q-23 33 -42 67.5t-32.5 70.5t-21 75t-7.5 82q0 45 7.5 84t21 75t32.5 69.5t42 67.5h67q-20 -34 -37 -68.5t-29.5 -70.5t-19.5 -75t-7 -82q0 -41 7 -79.5t19.5 -75.5t29.5 -72t37 -68h-67z" />
    <glyph glyph-name="parenright" unicode=")" horiz-adv-x="206" 
d="M76 495q22 -34 41 -67.5t32.5 -69.5t21.5 -75t8 -84q0 -43 -8 -82t-21.5 -75t-32.5 -70.5t-41 -67.5h-67q19 33 36 68t29.5 72t19.5 75.5t7 79.5q0 43 -7 82t-19.5 75t-29.5 70.5t-36 68.5h67z" />
    <glyph glyph-name="asterisk" unicode="*" horiz-adv-x="359" 
d="M212 463l-9 -94l86 37l18 -60l-90 -22l62 -71l-53 -38l-47 81l-48 -81l-52 38l62 71l-89 22l18 60l87 -38l-9 95h64z" />
    <glyph glyph-name="plus" unicode="+" horiz-adv-x="385" 
d="M231 134v-134h-77v134h-132v73h132v134h77v-134h132v-73h-132z" />
    <glyph glyph-name="comma" unicode="," horiz-adv-x="179" 
d="M57 82h84l-56 -160h-67z" />
    <glyph glyph-name="hyphen" unicode="-" horiz-adv-x="216" 
d="M25 213h166v-66h-166v66z" />
    <glyph glyph-name="hyphen" unicode="&#x2010;" horiz-adv-x="216" 
d="M25 213h166v-66h-166v66z" />
    <glyph glyph-name="hyphen" unicode="&#xad;" horiz-adv-x="216" 
d="M25 213h166v-66h-166v66z" />
    <glyph glyph-name="period" unicode="." horiz-adv-x="179" 
d="M50 83h80v-83h-80v83z" />
    <glyph glyph-name="slash" unicode="/" horiz-adv-x="225" 
d="M159 468h61l-154 -476h-60z" />
    <glyph glyph-name="zero" unicode="0" horiz-adv-x="359" 
d="M179 361q-27 0 -41.5 -16t-22 -39t-9 -50t-1.5 -50t1.5 -49.5t9 -49.5t22 -38t41.5 -15q26 0 41 15t22.5 38t9.5 49.5t2 49.5q0 15 -0.5 32.5t-3 34.5t-7.5 33t-13.5 28t-21 19.5t-29.5 7.5zM179 421q48 0 78 -20t47 -51.5t23.5 -69.5t6.5 -74t-6 -73.5t-23 -68.5
t-47.5 -51t-78.5 -20q-34 0 -58 9.5t-41 26t-28 38t-16.5 45t-7.5 48t-2 46.5q0 25 2.5 51t9.5 50t18.5 44.5t28.5 36t40 24.5t54 9z" />
    <glyph glyph-name="one" unicode="1" horiz-adv-x="359" 
d="M181 415h71v-415h-81v324l-72 -64l-41 53z" />
    <glyph glyph-name="two" unicode="2" horiz-adv-x="359" 
d="M31 67q96 81 145.5 136.5t49.5 96.5q0 13 -6 24t-15.5 18.5t-23 11.5t-27.5 4q-31 0 -56.5 -11t-47.5 -26l-7 69q26 14 58.5 22.5t68.5 8.5q65 0 102 -29.5t37 -83.5q0 -27 -12 -55t-35 -58t-56 -62.5t-74 -68.5h188v-64h-289v67z" />
    <glyph glyph-name="three" unicode="3" horiz-adv-x="359" 
d="M90 243q27 0 53 1.5t46 7.5t32 17.5t12 32.5q0 14 -7 24.5t-18 17.5t-26 10.5t-32 3.5q-26 0 -50.5 -6.5t-48.5 -18.5l-5 67q25 9 55.5 15t65.5 6q25 0 51 -5.5t47 -18t34.5 -33t13.5 -50.5q0 -23 -7.5 -39.5t-19.5 -28.5t-27.5 -19.5t-32.5 -12.5q40 -7 65 -32t25 -68
q0 -34 -15 -57t-39.5 -37t-55 -20.5t-60.5 -6.5q-31 0 -61 4t-54 12l5 70q22 -10 48 -16t57 -6q15 0 31.5 3.5t30.5 11t23 19t9 27.5q0 18 -9 30t-23 19t-32.5 10t-38.5 3h-42v63z" />
    <glyph glyph-name="four" unicode="4" horiz-adv-x="359" 
d="M210 337h-1l-128 -189h129v189zM14 156l175 259h97v-267h59v-60h-59v-88h-76v88h-196v68z" />
    <glyph glyph-name="five" unicode="5" horiz-adv-x="359" 
d="M308 353h-176l-2 -80q8 2 21 3.5t30 1.5q27 0 52.5 -7.5t46 -24t33 -42.5t12.5 -63q0 -33 -11.5 -60t-33.5 -46.5t-54 -30.5t-73 -11q-29 0 -56 4.5t-48 10.5l2 72q18 -9 41.5 -16t51.5 -7q19 0 37 5t32 15t22.5 25t8.5 36q0 20 -8 34.5t-22 24t-33 14.5t-41 5
q-25 0 -45.5 -4t-39.5 -10l4 213h249v-62z" />
    <glyph glyph-name="six" unicode="6" horiz-adv-x="359" 
d="M182 -7q-47 0 -76.5 16.5t-46.5 43.5t-23 62t-6 72q0 42 8.5 84t29.5 75t57.5 54t93.5 21q25 0 47 -4t42 -11l-8 -66q-19 8 -38.5 13t-41.5 5q-34 0 -56 -12t-35 -31t-18.5 -42.5t-5.5 -47.5h1q15 25 38 38t53 13q29 0 54 -9.5t42.5 -26.5t27.5 -42t10 -56
q0 -33 -9.5 -60.5t-28 -47t-46.5 -30.5t-65 -11zM181 215q-18 0 -31 -6.5t-22 -17.5t-13 -25.5t-4 -31.5t4 -31.5t13 -25.5t22 -17t31 -6q17 0 30 6t21.5 16.5t13 25t4.5 31.5q0 16 -4 31t-12.5 26t-21.5 18t-31 7z" />
    <glyph glyph-name="seven" unicode="7" horiz-adv-x="359" 
d="M243 350h-207v65h284v-68l-163 -347h-84z" />
    <glyph glyph-name="eight" unicode="8" horiz-adv-x="359" 
d="M39 315q0 27 10.5 47t29.5 33t44 19.5t54 6.5t54.5 -6t44.5 -18.5t30.5 -31t11.5 -43.5q0 -32 -20.5 -59t-56.5 -41q44 -18 66.5 -44t22.5 -66q0 -31 -11 -53t-31 -37t-47.5 -22t-60.5 -7t-60.5 7t-47.5 22t-31.5 37t-11.5 52q0 20 6 35.5t17 28t26.5 22.5t35.5 19
q-36 15 -55.5 39t-19.5 60zM250 113q0 22 -14.5 37.5t-38.5 25.5l-24 9q-15 -7 -27 -14t-20.5 -15t-13 -18.5t-4.5 -24.5q0 -13 5.5 -24t15 -19t23 -12t29.5 -4q30 0 49.5 14.5t19.5 44.5zM115 311q0 -13 6 -23.5t16.5 -18t23 -13.5t25.5 -10q11 4 21 10.5t17.5 15t12.5 18
t5 20.5q0 23 -16 37t-44 14q-14 0 -26 -3.5t-21 -10t-14.5 -15.5t-5.5 -21z" />
    <glyph glyph-name="nine" unicode="9" horiz-adv-x="359" 
d="M177 421q46 0 76 -16.5t47 -44t23.5 -62.5t6.5 -71q0 -28 -4 -56.5t-12.5 -54.5t-22.5 -48.5t-35 -39t-50 -26t-66 -9.5q-49 0 -89 15l9 67q16 -8 35.5 -13t43.5 -5q33 0 55 11.5t35.5 30t19.5 41.5t7 47l-1 2q-33 -51 -92 -51q-30 0 -54.5 9t-42.5 26t-27.5 42t-9.5 57
q0 33 9 60.5t28 47t46.5 30.5t64.5 11zM178 199q18 0 31 6t21.5 17t13 26t4.5 32t-4.5 31.5t-13 25.5t-21.5 17.5t-31 6.5t-31 -6.5t-21.5 -17.5t-12.5 -26t-4 -31t4 -31t12.5 -26t21.5 -17.5t31 -6.5z" />
    <glyph glyph-name="colon" unicode=":" horiz-adv-x="179" 
d="M130 256h-80v83h80v-83zM50 83h80v-83h-80v83z" />
    <glyph glyph-name="semicolon" unicode=";" horiz-adv-x="179" 
d="M57 82h84l-56 -160h-67zM130 256h-80v83h80v-83z" />
    <glyph glyph-name="less" unicode="&#x3c;" horiz-adv-x="385" 
d="M22 133v75l341 131v-81l-244 -87l244 -88v-82z" />
    <glyph glyph-name="equal" unicode="=" horiz-adv-x="385" 
d="M22 207v73h341v-73h-341zM22 61v73h341v-73h-341z" />
    <glyph glyph-name="greater" unicode="&#x3e;" horiz-adv-x="385" 
d="M22 1v82l243 88l-243 87v81l341 -131v-75z" />
    <glyph glyph-name="question" unicode="?" horiz-adv-x="323" 
d="M41 448q25 7 54 13.5t61 6.5q29 0 54.5 -7t45 -21.5t31 -36.5t11.5 -52q0 -23 -8 -42t-20 -35.5t-26 -32.5t-26 -33t-20 -36t-8 -42h-70q0 28 7 50t17.5 39.5t23 32.5t23 29t17.5 28t7 32q0 16 -6.5 28.5t-17 20.5t-24 12t-27.5 4q-25 0 -49.5 -7t-44.5 -16zM115 82h81
v-82h-81v82z" />
    <glyph glyph-name="at" unicode="@" horiz-adv-x="528" 
d="M191 204q0 -25 13 -41t37 -16q18 0 33.5 9.5t26.5 24.5t17.5 33t6.5 36q0 25 -14.5 39.5t-36.5 14.5q-18 0 -33 -8.5t-26 -23t-17.5 -32.5t-6.5 -36zM364 185q-2 -6 -4 -13.5t-2 -12.5q0 -6 3 -9t10 -3q14 0 28.5 8.5t26.5 24t19.5 38.5t7.5 52q0 39 -15.5 66.5t-41 45
t-57.5 25.5t-64 8q-42 0 -77 -15t-60 -40t-39 -58.5t-14 -71.5q0 -42 13.5 -76t38 -58t57.5 -37.5t73 -13.5q22 0 43.5 2.5t42 9t38 16t32.5 24.5h52q-35 -54 -89.5 -79.5t-118.5 -25.5q-48 0 -92 16t-77.5 47t-53 75t-19.5 100q0 49 18.5 92.5t51.5 75.5t79 51t101 19
q42 0 83 -12.5t73 -36.5t51.5 -61t19.5 -85q0 -32 -8.5 -58t-22.5 -46t-31.5 -35t-35.5 -24.5t-34.5 -14t-28.5 -4.5q-16 0 -27.5 9t-12.5 27q-5 -5 -13 -11t-17.5 -11.5t-21 -9.5t-23.5 -4q-21 0 -38.5 8t-30 22t-20 33t-7.5 42q0 33 11 63t30 52.5t44.5 36t55.5 13.5
q23 0 42.5 -11.5t33.5 -32.5l9 33h51z" />
    <glyph glyph-name="A" unicode="A" horiz-adv-x="450" 
d="M180 461h91l173 -461h-87l-39 111h-190l-40 -111h-82zM224 384h-1l-72 -210h145z" />
    <glyph glyph-name="B" unicode="B" horiz-adv-x="386" 
d="M52 461h144q26 0 52 -5.5t46.5 -18.5t33.5 -35.5t13 -56.5q0 -23 -7 -41t-18.5 -30.5t-27 -21t-33.5 -12.5v-1q20 -3 38 -11.5t31.5 -22t21.5 -32t8 -41.5q0 -41 -15.5 -66.5t-39.5 -40t-52.5 -20t-53.5 -5.5h-141v461zM132 64h45q18 0 35.5 3.5t31 11.5t22 21.5
t8.5 33.5q0 22 -8 36.5t-21.5 23t-31.5 12t-37 3.5h-44v-145zM132 270h42q15 0 30.5 3t28 10.5t20.5 20t8 31.5t-7.5 31.5t-20 19.5t-28 9.5t-31.5 2.5h-42v-128z" />
    <glyph glyph-name="C" unicode="C" horiz-adv-x="399" 
d="M367 380q-46 23 -96 23q-34 0 -63 -12t-49.5 -34.5t-32 -55t-11.5 -72.5t11 -72t32 -54t49.5 -34t64.5 -12q27 0 53.5 5.5t43.5 15.5l4 -69q-21 -8 -48.5 -12.5t-54.5 -4.5q-55 0 -98.5 15.5t-74.5 45.5t-47.5 73.5t-16.5 99.5q0 55 16 100t46.5 76.5t74.5 48.5t100 17
q12 0 25.5 -1.5t27 -4t26.5 -6t23 -7.5z" />
    <glyph glyph-name="D" unicode="D" horiz-adv-x="453" 
d="M132 64h44q34 0 63 11t50.5 32t34 52t12.5 72q0 39 -12 70t-32.5 52.5t-49.5 32.5t-62 11h-48v-333zM51 461h120q54 0 100 -12.5t78.5 -40.5t51 -72t18.5 -106q0 -64 -20 -108t-54 -71t-80 -39t-99 -12h-115v461z" />
    <glyph glyph-name="E" unicode="E" horiz-adv-x="350" 
d="M53 461h253v-65h-173v-126h161v-64h-161v-142h178v-64h-258v461z" />
    <glyph glyph-name="F" unicode="F" horiz-adv-x="316" 
d="M52 461h242v-65h-162v-127h154v-63h-154v-206h-80v461z" />
    <glyph glyph-name="G" unicode="G" horiz-adv-x="463" 
d="M338 195h-93v64h170v-242q-33 -11 -68 -18t-73 -7q-56 0 -100.5 16t-76 46.5t-48 73.5t-16.5 98q0 56 16.5 100.5t47.5 76t75.5 48.5t101.5 17q37 0 69.5 -6t56.5 -14l-4 -69q-25 12 -56.5 18.5t-59.5 6.5q-39 0 -69.5 -13t-51.5 -36.5t-32 -55.5t-11 -70q0 -37 10 -68.5
t30.5 -54.5t49.5 -36t68 -13q18 0 35 1.5t29 6.5v130z" />
    <glyph glyph-name="H" unicode="H" horiz-adv-x="450" 
d="M53 461h81v-191h183v191h80v-461h-80v206h-183v-206h-81v461z" />
    <glyph glyph-name="I" unicode="I" horiz-adv-x="175" 
d="M48 461h80v-461h-80v461z" />
    <glyph glyph-name="J" unicode="J" horiz-adv-x="243" 
d="M195 117q0 -24 -7 -46.5t-21 -40t-36.5 -28t-54.5 -10.5q-17 0 -32 2t-31 8v69q9 -4 19 -6t23 -2q20 0 32 7t18 18.5t8 25.5t2 28v319h80v-344z" />
    <glyph glyph-name="K" unicode="K" horiz-adv-x="416" 
d="M54 461h80v-200l167 200h98l-189 -217l200 -244h-104l-171 217h-1v-217h-80v461z" />
    <glyph glyph-name="L" unicode="L" horiz-adv-x="313" 
d="M51 461h81v-397h173v-64h-254v461z" />
    <glyph glyph-name="M" unicode="M" horiz-adv-x="593" 
d="M53 461h125l118 -361h2l118 361h124v-461h-76v389h-1l-131 -389h-72l-130 389l-1 -1v-388h-76v461z" />
    <glyph glyph-name="N" unicode="N" horiz-adv-x="457" 
d="M49 461h98l183 -362h1v362h76v-461h-99l-181 359h-2v-359h-76v461z" />
    <glyph glyph-name="O" unicode="O" horiz-adv-x="484" 
d="M32 231q0 51 13.5 94.5t40 75t65.5 49.5t91 18q50 0 89.5 -18t66 -49.5t40.5 -75t14 -94.5q0 -52 -14 -96t-40.5 -76t-66 -49.5t-89.5 -17.5q-51 0 -90.5 17.5t-66 49t-40 75.5t-13.5 97zM242 405q-34 0 -58 -14.5t-39.5 -38.5t-23 -55.5t-7.5 -65.5q0 -35 7 -66.5
t22.5 -55.5t40 -38.5t58.5 -14.5q33 0 57.5 14.5t39.5 38.5t22.5 55.5t7.5 66.5q0 34 -7.5 65.5t-23 55.5t-39.5 38.5t-57 14.5z" />
    <glyph glyph-name="P" unicode="P" horiz-adv-x="353" 
d="M48 461h117q36 0 67 -7.5t54.5 -24t37 -42.5t13.5 -64q0 -37 -12.5 -64t-34.5 -44.5t-51.5 -25.5t-64.5 -8h-46v-181h-80v461zM128 244h32q19 0 36 3.5t30 12.5t20.5 23.5t7.5 36.5q0 21 -6.5 35.5t-18.5 23.5t-28 13.5t-34 4.5h-39v-153z" />
    <glyph glyph-name="Q" unicode="Q" horiz-adv-x="484" 
d="M342 -87l-77 81q-6 -2 -11.5 -2h-11.5q-51 0 -90.5 17.5t-66 49t-40 75.5t-13.5 97q0 51 13.5 94.5t40 75t65.5 49.5t91 18q50 0 89.5 -18t66 -49.5t40.5 -75t14 -94.5q0 -37 -7.5 -71t-21.5 -62t-35.5 -49.5t-48.5 -34.5l101 -101h-98zM242 405q-34 0 -58 -14.5
t-39.5 -38.5t-23 -55.5t-7.5 -65.5q0 -35 7 -66.5t22.5 -55.5t40 -38.5t58.5 -14.5q33 0 57.5 14.5t39.5 38.5t22.5 55.5t7.5 66.5q0 34 -7.5 65.5t-23 55.5t-39.5 38.5t-57 14.5z" />
    <glyph glyph-name="R" unicode="R" horiz-adv-x="386" 
d="M128 261h35q18 0 35.5 3.5t31 11.5t21.5 21.5t8 33.5q0 22 -8.5 35t-22 20t-30.5 9t-35 2h-35v-136zM48 461h112q34 0 67 -4t58.5 -17t41 -37t15.5 -65q0 -22 -7 -40.5t-19.5 -32.5t-30 -23t-38.5 -12v-1q19 -2 30.5 -15.5t20.5 -34.5l72 -179h-88l-55 147
q-6 15 -12.5 24.5t-14 15.5t-18 8.5t-24.5 2.5h-30v-198h-80v461z" />
    <glyph glyph-name="S" unicode="S" horiz-adv-x="349" 
d="M49 85q21 -12 47 -20t55 -8q15 0 30 4.5t26.5 13.5t18.5 22t7 29q0 22 -14.5 36.5t-36.5 26t-47.5 23t-47.5 27t-36.5 38.5t-14.5 58t13 60t34.5 41.5t49 24t57.5 7.5q29 0 55 -4.5t47 -11.5l-7 -68q-20 9 -42.5 14.5t-47.5 5.5q-14 0 -27.5 -3.5t-24 -11t-17 -20
t-6.5 -30.5q0 -16 8.5 -27.5t22 -21t31.5 -17.5t36.5 -17.5t36 -20.5t31.5 -25.5t22.5 -34.5t8.5 -46q0 -37 -13.5 -63t-36 -42.5t-52 -24t-61.5 -7.5q-18 0 -32.5 1t-27.5 3.5t-25.5 6t-25.5 8.5z" />
    <glyph glyph-name="T" unicode="T" horiz-adv-x="346" 
d="M133 396h-126v65h332v-65h-125v-396h-81v396z" />
    <glyph glyph-name="U" unicode="U" horiz-adv-x="451" 
d="M401 165q0 -47 -13 -79.5t-36.5 -53.5t-56 -30.5t-70.5 -9.5q-39 0 -71 9.5t-55 30.5t-36 53.5t-13 79.5v296h80v-279q0 -59 22 -92t73 -33q26 0 44 8.5t29.5 24.5t17 39t5.5 53v279h80v-296z" />
    <glyph glyph-name="V" unicode="V" horiz-adv-x="417" 
d="M255 0h-93l-156 461h86l118 -372h1l119 372h81z" />
    <glyph glyph-name="W" unicode="W" horiz-adv-x="624" 
d="M500 0h-100l-87 379h-1l-88 -379h-100l-117 461h82l86 -376h2l84 376h106l84 -376h1l89 376h76z" />
    <glyph glyph-name="X" unicode="X" horiz-adv-x="417" 
d="M158 241l-138 220h93l98 -167l102 167h86l-138 -220l150 -241h-94l-109 185l-112 -185h-90z" />
    <glyph glyph-name="Y" unicode="Y" horiz-adv-x="414" 
d="M168 186l-160 275h92l109 -199l111 199h85l-158 -276v-185h-79v186z" />
    <glyph glyph-name="Z" unicode="Z" horiz-adv-x="350" 
d="M22 67l212 329h-205v65h293v-67l-215 -330h219v-64h-304v67z" />
    <glyph glyph-name="bracketleft" unicode="[" horiz-adv-x="206" 
d="M48 495h131v-54h-61v-483h61v-54h-131v591z" />
    <glyph glyph-name="backslash" unicode="\" horiz-adv-x="225" 
d="M220 -8h-61l-153 476h60z" />
    <glyph glyph-name="bracketright" unicode="]" horiz-adv-x="206" 
d="M159 -96h-133v54h62v483h-62v54h133v-591z" />
    <glyph glyph-name="asciicircum" unicode="^" horiz-adv-x="396" 
d="M170 461h56l129 -264h-61l-96 201l-97 -201h-60z" />
    <glyph glyph-name="underscore" unicode="_" horiz-adv-x="330" 
d="M330 -50v-33h-330v33h330z" />
    <glyph glyph-name="grave" unicode="`" horiz-adv-x="167" 
d="M141 383h-48l-85 96h80z" />
    <glyph glyph-name="a" unicode="a" horiz-adv-x="350" 
d="M244 0q-1 5 -2 13t-1.5 15.5t-1 13t-0.5 8.5q-16 -27 -43.5 -42t-59.5 -15q-25 0 -45.5 7t-35.5 20.5t-23 31.5t-8 40q0 38 16.5 61.5t42 35.5t57 16t62.5 4h35q0 39 -16.5 59.5t-57.5 20.5q-29 0 -55.5 -10t-45.5 -24q0 16 -0.5 32.5t-1.5 33.5q22 10 51.5 17.5
t59.5 7.5q38 0 64 -9t42 -26t23 -43t7 -60v-48q0 -47 1 -86t4 -74h-68zM224 161q-20 0 -42 -1.5t-41 -7.5t-31.5 -19t-12.5 -36q0 -25 16.5 -36.5t41.5 -11.5q23 0 39 9t25.5 24t13.5 34t4 40v5h-13z" />
    <glyph glyph-name="b" unicode="b" horiz-adv-x="382" 
d="M44 495h77v-203q7 10 16.5 20t21.5 17.5t27.5 12t34.5 4.5q36 0 61.5 -14t42 -37.5t24 -55.5t7.5 -68q0 -35 -7.5 -67t-23.5 -57t-42 -39.5t-63 -14.5q-33 0 -58.5 13.5t-42.5 39.5l-2 -46h-73v495zM276 170q0 20 -3.5 41t-12.5 37.5t-23.5 27t-35.5 10.5q-23 0 -38 -11
t-24.5 -27.5t-13.5 -37t-4 -40.5q0 -21 4 -41.5t13.5 -38t24.5 -28t38 -10.5q22 0 36.5 10.5t23 27.5t12 38t3.5 42z" />
    <glyph glyph-name="c" unicode="c" horiz-adv-x="288" 
d="M263 272q-13 6 -27.5 10t-33.5 4q-23 0 -41 -8.5t-30.5 -23.5t-19 -36t-6.5 -47t6.5 -47.5t19 -37.5t30.5 -24.5t42 -8.5q18 0 36.5 5t30.5 11l4 -65q-18 -6 -39 -8.5t-47 -2.5q-41 0 -71.5 13.5t-51 37t-30.5 56t-10 70.5q0 37 10.5 69t31.5 56t51 37.5t70 13.5
q25 0 45.5 -4t35.5 -8z" />
    <glyph glyph-name="d" unicode="d" horiz-adv-x="382" 
d="M338 65v-34.5t1 -30.5h-75v44q-10 -11 -20.5 -20t-23 -16t-27.5 -11t-32 -4q-37 0 -62.5 14.5t-42 39.5t-23.5 57t-7 67q0 36 7.5 68t24 55.5t42 37.5t61.5 14q18 0 33.5 -4.5t27.5 -11.5t21.5 -16t17.5 -19v200h77v-430zM105 170q0 -21 3.5 -42t12 -38t23.5 -27.5
t38 -10.5q22 0 37 10.5t24.5 28t13.5 38t4 41.5q0 20 -4.5 40.5t-14 37t-24.5 27.5t-37 11t-37 -10.5t-23.5 -27t-12 -37.5t-3.5 -41z" />
    <glyph glyph-name="e" unicode="e" horiz-adv-x="349" 
d="M301 17q-21 -11 -48 -17.5t-61 -6.5q-43 0 -74 13t-52 36t-31 55t-10 70t10 70.5t29 56.5t47 38t64 14q42 0 70.5 -14.5t46 -41t25 -63t7.5 -80.5h-224q1 -46 26.5 -71.5t69.5 -25.5q26 0 54.5 8.5t49.5 21.5zM249 200q-1 19 -5 35.5t-13 28.5t-22 19t-31 7
q-19 0 -33.5 -7.5t-24 -20t-15 -29t-5.5 -33.5h149z" />
    <glyph glyph-name="f" unicode="f" horiz-adv-x="239" 
d="M74 282h-63v57h63v49q0 24 5.5 45t17.5 36.5t31.5 24.5t47.5 9q15 0 30 -2.5l27 -4.5l-5 -63q-6 4 -15 7t-21 3q-13 0 -21 -5.5t-12.5 -13.5t-6 -18.5t-1.5 -21.5v-45h73v-57h-73v-282h-77v282z" />
    <glyph glyph-name="g" unicode="g" horiz-adv-x="382" 
d="M106 171q0 -22 4.5 -42t14 -35.5t23.5 -24.5t33 -9q21 0 36.5 8.5t25.5 24t14.5 36t4.5 44.5t-4.5 45t-14 36t-24 23.5t-34.5 8.5q-24 0 -39 -10t-24 -26.5t-12.5 -37t-3.5 -41.5zM339 339q-1 -15 -1 -30v-31v-246q0 -36 -8 -68.5t-27.5 -57t-52 -38.5t-81.5 -14
q-30 0 -59 5.5t-54 16.5l6 67q9 -6 21 -11t25 -9t26.5 -6.5t26.5 -2.5q24 0 41.5 6t28.5 16.5t17.5 25t9.5 30t3.5 32t0.5 32.5q-7 -10 -17 -20t-22.5 -18t-28.5 -13t-34 -5q-34 0 -59.5 13t-42 36t-24.5 54t-8 67q0 32 7.5 63.5t24 56.5t42.5 40.5t63 15.5q35 0 59 -12.5
t42 -40.5l2 46h73z" />
    <glyph glyph-name="h" unicode="h" horiz-adv-x="380" 
d="M45 495h76v-204h1q15 23 40 39t62 16q30 0 51.5 -10.5t34.5 -28.5t19 -42.5t6 -51.5v-213h-77v191q0 17 -1.5 34t-7.5 30.5t-18 22t-32 8.5q-23 0 -38 -10.5t-24 -26.5t-12.5 -35.5t-3.5 -36.5v-177h-76v495z" />
    <glyph glyph-name="i" unicode="i" horiz-adv-x="172" 
d="M48 339h77v-339h-77v339zM125 406h-77v78h77v-78z" />
    <glyph glyph-name="j" unicode="j" horiz-adv-x="172" 
d="M-10 -84q15 -1 26 2t18 9.5t10.5 18.5t3.5 30v363h77v-368q0 -21 -3.5 -42t-14 -37.5t-29 -27t-47.5 -10.5q-12 0 -23.5 1t-19.5 3zM125 406h-77v78h77v-78z" />
    <glyph glyph-name="k" unicode="k" horiz-adv-x="349" 
d="M46 495h77v-292h1l113 136h89l-133 -152l149 -187h-97l-121 167h-1v-167h-77v495z" />
    <glyph glyph-name="l" unicode="l" horiz-adv-x="172" 
d="M48 495h77v-495h-77v495z" />
    <glyph glyph-name="m" unicode="m" horiz-adv-x="559" 
d="M439 0v210q0 13 -1.5 26.5t-7 24.5t-16 18t-28.5 7q-21 0 -34.5 -11t-21 -28t-10 -38t-2.5 -40v-169h-77v210q0 14 -2 27.5t-7.5 24t-15.5 17.5t-27 7t-29 -7t-20.5 -19t-13 -28t-5.5 -33q-1 -10 -1 -19v-17v-163h-76v294q0 12 -0.5 23t-1.5 22h74v-51q17 26 41.5 42
t57.5 16q35 0 58.5 -15.5t35.5 -44.5q14 27 41 43.5t62 16.5q31 0 51 -10.5t32 -29.5t16.5 -44t4.5 -54v-208h-77z" />
    <glyph glyph-name="n" unicode="n" horiz-adv-x="380" 
d="M45 291q0 12 -0.5 24t-0.5 24h72l2 -50q16 25 40.5 41t65.5 16q30 0 51 -10.5t34.5 -28t19.5 -41t6 -50.5v-216h-77v192q0 17 -2 34t-8 30t-17.5 21.5t-31.5 8.5q-24 0 -39.5 -11t-24 -28.5t-11.5 -38t-3 -38.5v-170h-76v291z" />
    <glyph glyph-name="o" unicode="o" horiz-adv-x="382" 
d="M25 168q0 42 12.5 75t34.5 56t52 35t66 12t66.5 -12t53 -35t35 -56t12.5 -75q0 -40 -11.5 -72t-33 -55t-52.5 -35.5t-70 -12.5q-38 0 -68.5 12.5t-52 35.5t-33 55t-11.5 72zM105 174q0 -22 4 -44t14 -39t26 -28t41 -11t41.5 10.5t26.5 28t14.5 39.5t4.5 44q0 21 -5 41
t-15.5 36t-27 26t-39.5 10t-39 -10t-26.5 -26t-15 -36.5t-4.5 -40.5z" />
    <glyph glyph-name="p" unicode="p" horiz-adv-x="382" 
d="M44 339h72l1 -51q6 9 15.5 19t21.5 18.5t28.5 14.5t37.5 6q37 0 63 -14.5t42 -38.5t23.5 -56t7.5 -66q0 -37 -8 -69.5t-24.5 -56.5t-42.5 -38t-62 -14q-33 0 -56 12t-42 39v-184h-77v479zM276 170q0 20 -3.5 40.5t-12 37t-23 27.5t-36.5 11t-37 -10.5t-25 -27.5
t-14 -37.5t-4 -40.5t4 -41t13 -38t24 -28t38 -11q22 0 36.5 10.5t23.5 27.5t12.5 38t3.5 42z" />
    <glyph glyph-name="q" unicode="q" horiz-adv-x="382" 
d="M339 339q-1 -16 -1 -32v-34v-413h-77v184q-21 -27 -44 -39t-55 -12q-36 0 -62 14t-42.5 38t-24 56t-7.5 69q0 35 7 66.5t23.5 56t42.5 39t64 14.5q20 0 35.5 -5t27.5 -13t21 -18t16 -21l2 50h74zM105 170q0 -21 3.5 -42t12.5 -38t24 -27.5t37 -10.5t37 10.5t24.5 27.5
t13.5 38t4 42q0 20 -4.5 40.5t-14 37.5t-25 27.5t-36.5 10.5q-23 0 -38 -11t-23.5 -27.5t-11.5 -37t-3 -40.5z" />
    <glyph glyph-name="r" unicode="r" horiz-adv-x="242" 
d="M47 298q0 10 -0.5 20.5t-1.5 20.5h69l1 -70q3 11 10.5 24.5t19 25t26.5 19.5t34 8q7 0 13 -0.5t12 -2.5v-75q-6 2 -15 3.5t-19 1.5q-27 -1 -41.5 -14t-21.5 -34t-8.5 -46.5t-1.5 -49.5v-129h-76v298z" />
    <glyph glyph-name="s" unicode="s" horiz-adv-x="279" 
d="M30 72q17 -9 39.5 -15t46.5 -6q10 0 21 2t20 7t14.5 13t5.5 21q0 16 -11.5 26t-28.5 17.5t-36.5 15t-36.5 19t-28 29t-11 45.5q0 24 10 43t27 31.5t39.5 19t47.5 6.5q28 0 50 -4.5t39 -8.5l-4 -59q-19 7 -36.5 11t-40.5 4q-11 0 -20.5 -2.5t-17 -7t-12 -12.5t-4.5 -19
q0 -13 11 -22t28 -16.5t37 -16t37 -20.5t28 -30t12 -45q0 -28 -11.5 -47.5t-30 -32.5t-42.5 -19t-49 -6q-27 0 -52 4.5t-46 10.5z" />
    <glyph glyph-name="t" unicode="t" horiz-adv-x="242" 
d="M226 282h-77v-175q0 -24 9 -39t33 -15q11 0 21 2t16 6l2 -60q-12 -4 -26.5 -6t-33.5 -2q-25 0 -43.5 7.5t-30.5 21t-17.5 33t-5.5 44.5v183h-62v57h62v70l76 25v-95h77v-57z" />
    <glyph glyph-name="u" unicode="u" horiz-adv-x="380" 
d="M335 86v-43t1 -43h-73l-1 50q-8 -12 -18.5 -22t-23.5 -18t-29 -12.5t-35 -4.5q-30 0 -51 10t-34.5 27.5t-19.5 41t-6 50.5v217h76v-193q0 -17 2 -33.5t8 -29.5t18 -21t32 -8q24 0 39 11t23.5 28t11.5 37.5t3 38.5v170h77v-253z" />
    <glyph glyph-name="v" unicode="v" horiz-adv-x="338" 
d="M213 0h-88l-117 339h81l82 -261h2l82 261h76z" />
    <glyph glyph-name="w" unicode="w" horiz-adv-x="546" 
d="M439 0h-89l-75 267h-1l-73 -267h-87l-108 339h81l73 -263h1l71 263h89l73 -263h1l72 263h73z" />
    <glyph glyph-name="x" unicode="x" horiz-adv-x="337" 
d="M118 179l-102 160h90l66 -114l66 114h82l-101 -160l112 -179h-90l-75 131l-78 -131h-83z" />
    <glyph glyph-name="y" unicode="y" horiz-adv-x="336" 
d="M170 82h1l81 257h77q-29 -84 -58.5 -167t-59.5 -167l-21 -60q-7 -19 -16 -36t-22 -29t-30 -19t-40 -7q-30 0 -55 9l5 57q7 -3 16 -4.5t23 -1.5t24 5.5t17 15.5t11 23.5t6 29.5l-123 351h84z" />
    <glyph glyph-name="z" unicode="z" horiz-adv-x="307" 
d="M22 64l172 215h-165v60h251v-64l-169 -215h174v-60h-263v64z" />
    <glyph glyph-name="braceleft" unicode="{" horiz-adv-x="211" 
d="M203 448h-30q-10 0 -16.5 -4t-10.5 -10.5t-5 -15.5t-1 -20v-116q0 -23 -7 -38t-17 -24.5t-21.5 -14t-19.5 -5.5v-1q8 -1 19.5 -5t21.5 -13.5t17 -25.5t7 -41v-112q0 -12 1 -21t5 -16t10.5 -10.5t16.5 -3.5h30v-47h-46q-17 0 -32.5 5.5t-27.5 16t-19 26.5t-7 38v114
q0 18 -5 31.5t-12.5 22.5t-17.5 13t-20 4v49q10 0 20 3.5t17.5 12t12.5 21.5t5 31v118q0 21 7 37t19 26.5t27.5 16t32.5 5.5h46v-47z" />
    <glyph glyph-name="bar" unicode="|" horiz-adv-x="147" 
d="M103 495v-660h-60v660h60z" />
    <glyph glyph-name="braceright" unicode="}" horiz-adv-x="211" 
d="M7 -49h30q20 0 26.5 14t6.5 37v113q0 24 7 40t17 25t21.5 13.5t20.5 5.5v1q-9 1 -20.5 5.5t-21.5 13.5t-17 24.5t-7 39.5v114q0 22 -6.5 36.5t-26.5 14.5h-30v47h47q17 0 32.5 -5.5t27.5 -16t19 -26.5t7 -37v-117q0 -19 4.5 -32t12 -21t17.5 -12t20 -4v-49q-10 0 -20 -4
t-17.5 -13t-12 -22.5t-4.5 -31.5v-114q0 -22 -7 -38.5t-19 -27t-27.5 -15.5t-32.5 -5h-47v47z" />
    <glyph glyph-name="asciitilde" unicode="~" horiz-adv-x="396" 
d="M350 172q-6 -10 -13.5 -20.5t-17.5 -19t-21.5 -13.5t-25.5 -5q-21 0 -39 7t-36 16q-18 8 -35 15.5t-36 7.5q-11 0 -19.5 -4.5t-15.5 -11t-12.5 -15.5t-9.5 -17l-23 50q5 10 12 20.5t17 18.5t22.5 13.5t28.5 5.5q22 0 40 -7t36 -15q17 -9 34 -16.5t35 -7.5q9 0 16.5 4
t14.5 10.5t13 15.5l12 18z" />
    <glyph glyph-name="exclamdown" unicode="&#xa1;" horiz-adv-x="253" 
d="M95 209h62l13 -331h-87zM166 256h-81v83h81v-83z" />
    <glyph glyph-name="cent" unicode="&#xa2;" horiz-adv-x="359" 
d="M295 272q-16 7 -38 12l-60 -224q8 -4 17.5 -5.5t20.5 -1.5q18 0 36.5 5t30.5 11l4 -65q-18 -6 -39 -8.5t-47 -2.5q-12 0 -21.5 1t-18.5 3l-17 -62h-35l19 72q-23 9 -40 25.5t-28 37.5t-16.5 46.5t-5.5 53.5q0 37 10.5 69t31.5 56t51 37.5t70 13.5h9.5t10.5 -1l16 59h34
l-17 -63l28 -7zM137 171q0 -29 7.5 -52t22.5 -39l57 206q-41 -4 -64 -34.5t-23 -80.5z" />
    <glyph glyph-name="sterling" unicode="&#xa3;" horiz-adv-x="359" 
d="M38 61h56v130h-50v49h50v18t1 22q2 30 12.5 55.5t29 44.5t45.5 30t63 11q25 0 45 -3t38 -9l-6 -64q-14 6 -29 9.5t-37 3.5q-24 0 -40 -8.5t-25.5 -22t-13.5 -31t-4 -35.5v-21h100v-49h-100v-130h150v-61h-285v61z" />
    <glyph glyph-name="currency" unicode="&#xa4;" horiz-adv-x="359" 
d="M50 136q-31 43 -31 95q0 25 7.5 49t23.5 45l-37 37l36 35l36 -37q20 16 44.5 23.5t49.5 7.5t49.5 -7.5t45.5 -23.5l37 37l35 -35l-36 -37q15 -21 22.5 -45t7.5 -49q0 -26 -7.5 -50t-22.5 -45l36 -37l-35 -34l-37 36q-21 -15 -45.5 -23t-49.5 -8t-49.5 8t-44.5 23l-36 -36
l-36 34zM179 129q21 0 39.5 8t32 22t21 32.5t7.5 39.5t-8 39.5t-21.5 32.5t-31.5 22.5t-39 8.5t-39 -8.5t-31.5 -22.5t-21 -32.5t-7.5 -39.5q0 -22 7.5 -40.5t21 -32t31.5 -21.5t39 -8z" />
    <glyph glyph-name="yen" unicode="&#xa5;" horiz-adv-x="359" 
d="M141 90h-97v42h97v41h-97v43h71l-115 198h82l99 -204l101 204h77l-114 -198h70v-43h-96v-41h96v-42h-96v-90h-78v90z" />
    <glyph glyph-name="brokenbar" unicode="&#xa6;" horiz-adv-x="147" 
d="M103 445v-231h-60v231h60zM103 115v-231h-60v231h60z" />
    <glyph glyph-name="section" unicode="&#xa7;" horiz-adv-x="359" 
d="M281 390q-20 8 -42.5 13.5t-45.5 5.5q-13 0 -24.5 -2.5t-20.5 -8.5t-14.5 -15t-5.5 -21q0 -18 13.5 -29.5t34 -21t44.5 -19t44 -22.5t34 -32t14 -47t-13.5 -50t-35.5 -37q19 -13 32 -32.5t13 -44.5q0 -28 -12 -49t-31.5 -35.5t-44.5 -22t-52 -7.5q-32 0 -61 6t-54 14
l6 65q22 -9 49.5 -17t55.5 -8q13 0 25.5 2.5t22 8.5t15.5 15.5t6 23.5q0 17 -14 28.5t-34.5 21.5t-44.5 19.5t-44.5 23t-34 32t-13.5 46.5q0 31 15.5 52.5t37.5 36.5q-21 14 -34 32.5t-13 46.5q0 26 11 46t29.5 33t42.5 20t49 7q29 0 54.5 -5t46.5 -10zM140 261
q-11 -10 -20 -23t-9 -33q0 -16 11.5 -27t28.5 -20.5t36.5 -17.5t35.5 -16l10 12q7 8 11.5 18.5t4.5 24.5q0 16 -9.5 26.5t-24.5 19t-34.5 16.5t-40.5 20z" />
    <glyph glyph-name="dieresis" unicode="&#xa8;" horiz-adv-x="167" 
d="M112 472h67v-71h-67v71zM-13 472h67v-71h-67v71z" />
    <glyph glyph-name="copyright" unicode="&#xa9;" horiz-adv-x="528" 
d="M86 230q0 -41 13.5 -76t37.5 -60.5t56.5 -39.5t70.5 -14q37 0 69.5 14t56.5 39.5t38 60.5t14 76t-14 76t-38 60t-56.5 39.5t-69.5 14.5q-38 0 -70.5 -14.5t-56.5 -39.5t-37.5 -60t-13.5 -76zM388 189q-4 -25 -14.5 -43.5t-26 -31.5t-35 -19.5t-40.5 -6.5q-32 0 -57 11
t-42.5 30.5t-27 45.5t-9.5 56t9 56.5t26.5 45.5t42.5 30t57 11q21 0 41 -6.5t35 -18.5t25.5 -31t13.5 -43h-48q-6 25 -24 38.5t-43 13.5q-19 0 -34 -7t-24.5 -20t-14.5 -30t-5 -37q0 -21 5.5 -38.5t15.5 -30.5t24.5 -20.5t33.5 -7.5q27 0 45 14t21 39h50zM26 230
q0 49 18.5 92.5t51 75.5t76 51t92.5 19t92.5 -19t75.5 -51t51 -75.5t19 -92.5t-19 -92.5t-51 -76t-75.5 -51t-92.5 -18.5t-92.5 18.5t-76 51t-51 76t-18.5 92.5z" />
    <glyph glyph-name="ordfeminine" unicode="&#xaa;" horiz-adv-x="230" 
d="M158 287q-9 -15 -25.5 -23.5t-37.5 -8.5q-15 0 -29 3.5t-24.5 10.5t-17 18t-6.5 27q0 24 11 38t28.5 21.5t39 10t42.5 2.5h18q0 19 -10 32.5t-36 13.5q-19 0 -36.5 -6t-30.5 -13v39q14 7 33.5 11.5t40.5 4.5q44 0 64.5 -17t24.5 -51q2 -17 2 -35v-36v-36t2 -34h-50z
M144 354q-12 0 -25.5 -1t-24.5 -5t-18 -11.5t-7 -19.5q0 -7 3 -12t8.5 -8t12 -4.5t13.5 -1.5q14 0 23.5 4.5t15.5 13t9 19.5t3 23v3h-13z" />
    <glyph glyph-name="guillemotleft" unicode="&#xab;" horiz-adv-x="359" 
d="M115 176l73 -136h-70l-78 136l78 136h70zM247 176l74 -136h-69l-79 136l79 136h69z" />
    <glyph glyph-name="logicalnot" unicode="&#xac;" horiz-adv-x="385" 
d="M288 60v147h-266v73h341v-220h-75z" />
    <glyph glyph-name="registered" unicode="&#xae;" horiz-adv-x="528" 
d="M26 230q0 49 18.5 92.5t51 75.5t76 51t92.5 19t92.5 -19t75.5 -51t51 -75.5t19 -92.5t-19 -92.5t-51 -76t-75.5 -51t-92.5 -18.5t-92.5 18.5t-76 51t-51 76t-18.5 92.5zM86 230q0 -41 13.5 -76t37.5 -60.5t56.5 -39.5t70.5 -14q37 0 69.5 14t56.5 39.5t38 60.5t14 76
t-14 76t-38 60t-56.5 39.5t-69.5 14.5q-38 0 -70.5 -14.5t-56.5 -39.5t-37.5 -60t-13.5 -76zM170 366h100q51 0 77.5 -18.5t26.5 -61.5q0 -36 -19.5 -53.5t-50.5 -20.5l72 -115h-56l-67 113h-31v-113h-52v269zM222 252h50q11 0 20 1.5t15.5 5.5t10 11.5t3.5 19.5
q0 11 -5 17.5t-12.5 10t-17 5t-18.5 1.5h-46v-72z" />
    <glyph glyph-name="macron" unicode="&#xaf;" horiz-adv-x="167" 
d="M-8 455h182v-49h-182v49z" />
    <glyph glyph-name="macron" unicode="&#x2c9;" horiz-adv-x="167" 
d="M-8 455h182v-49h-182v49z" />
    <glyph glyph-name="degree" unicode="&#xb0;" horiz-adv-x="264" 
d="M132 423q-13 0 -24 -4.5t-18.5 -12t-12 -18t-4.5 -22.5q0 -13 4.5 -24t12.5 -18.5t18.5 -12t23.5 -4.5q12 0 22.5 4.5t18.5 12t12.5 18.5t4.5 24q0 25 -16.5 41t-41.5 16zM132 467q21 0 40 -8t33 -21.5t22 -32t8 -39.5q0 -22 -8 -40.5t-22 -32.5t-33 -21.5t-40 -7.5
q-22 0 -41 7.5t-32.5 21t-21.5 32.5t-8 41q0 21 8 39.5t22 32t32.5 21.5t40.5 8z" />
    <glyph glyph-name="plusminus" unicode="&#xb1;" horiz-adv-x="385" 
d="M231 180v-100h-77v100h-132v73h132v102h77v-102h132v-73h-132zM22 -14v73h341v-73h-341z" />
    <glyph glyph-name="uni00B2" unicode="&#xb2;" horiz-adv-x="233" 
d="M23 180l19 16q14 12 31.5 28.5t33 34.5t26.5 37t11 35q0 17 -10.5 27.5t-30.5 10.5q-21 0 -37.5 -6t-29.5 -16l-5 51q17 9 38.5 14t45.5 5q21 0 38.5 -5t30 -15t19.5 -25t7 -36q0 -18 -8 -35.5t-20.5 -34t-27.5 -31.5t-29 -27l-27 -22h112v-50h-187v44z" />
    <glyph glyph-name="uni00B3" unicode="&#xb3;" horiz-adv-x="233" 
d="M60 301q6 0 15 -0.5t21 0.5q7 0 16 2t17 6.5t13.5 11.5t5.5 17q0 9 -4 15.5t-11 10.5t-15.5 6t-17.5 2q-16 0 -33.5 -4t-33.5 -12l-4 47q19 7 39.5 10.5t41.5 3.5q17 0 34.5 -4t32 -12t23.5 -21t9 -31q0 -29 -15.5 -45t-40.5 -23q27 -5 43.5 -21t16.5 -44
q0 -23 -10.5 -39t-27 -26t-36.5 -14.5t-40 -4.5q-21 0 -40.5 2.5t-39.5 8.5l3 49q18 -6 34.5 -10t35.5 -4q11 0 21 2.5t17.5 7.5t12.5 12.5t5 17.5q0 11 -5.5 18.5t-13.5 11.5t-18.5 5.5t-19.5 1.5h-17.5t-13.5 -1v47z" />
    <glyph glyph-name="acute" unicode="&#xb4;" horiz-adv-x="167" 
d="M79 479h78l-83 -96h-49z" />
    <glyph glyph-name="mu" unicode="&#xb5;" horiz-adv-x="380" 
d="M45 339h76v-193q0 -17 2 -33.5t8 -29.5t18 -21t32 -8q24 0 39 11t23.5 28t11.5 37.5t3 38.5v170h77v-213v-63.5t1 -62.5h-73l-1 49q-5 -9 -12.5 -19t-18 -18.5t-23.5 -13.5t-29 -5q-15 0 -30 3t-28 16v-152h-76v479z" />
    <glyph glyph-name="paragraph" unicode="&#xb6;" horiz-adv-x="399" 
d="M149 221q-31 0 -56 8t-43 23.5t-27.5 37.5t-9.5 49q0 33 11 56.5t31.5 38t48.5 21t61 6.5h179v-540h-61v492h-73v-492h-61v300z" />
    <glyph glyph-name="periodcentered" unicode="&#xb7;" horiz-adv-x="179" 
d="M43 191q0 21 13 34t34 13q20 0 33 -13t13 -34t-13 -33.5t-33 -12.5q-21 0 -34 12.5t-13 33.5z" />
    <glyph glyph-name="periodcentered" unicode="&#x2219;" horiz-adv-x="179" 
d="M43 191q0 21 13 34t34 13q20 0 33 -13t13 -34t-13 -33.5t-33 -12.5q-21 0 -34 12.5t-13 33.5z" />
    <glyph glyph-name="cedilla" unicode="&#xb8;" horiz-adv-x="167" 
d="M126 0l-24 -37q6 1 12 2.5t14 1.5q21 0 37 -12.5t16 -34.5q0 -18 -7.5 -29.5t-18.5 -19t-25 -10.5t-27 -3q-25 0 -44 4t-29 10l11 31q10 -4 21.5 -7.5t26.5 -3.5q14 0 25 5t11 19q0 12 -9 18.5t-21 6.5q-6 0 -11.5 -2t-9.5 -4l-14 13l32 52h34z" />
    <glyph glyph-name="uni00B9" unicode="&#xb9;" horiz-adv-x="233" 
d="M157 136h-59v219l-48 -38l-28 36l81 61h54v-278z" />
    <glyph glyph-name="ordmasculine" unicode="&#xba;" horiz-adv-x="249" 
d="M14 362q0 24 8.5 44t23.5 33.5t35 21t44 7.5q23 0 43 -7.5t34.5 -21t23 -33.5t8.5 -44q0 -26 -8.5 -46t-23 -33.5t-35 -20.5t-43.5 -7q-24 0 -44 7t-34.5 20.5t-23 33.5t-8.5 46zM71 362q0 -14 2.5 -26.5t8.5 -22.5t16.5 -15.5t26.5 -5.5q15 0 25.5 6t16.5 15.5t8.5 22.5
t2.5 26q0 12 -3 24.5t-9 22.5t-16 16.5t-24 6.5q-16 0 -26.5 -6t-17 -16t-9 -22.5t-2.5 -25.5z" />
    <glyph glyph-name="guillemotright" unicode="&#xbb;" horiz-adv-x="359" 
d="M244 176l-73 136h70l79 -136l-79 -136h-70zM112 176l-74 136h70l78 -136l-78 -136h-70z" />
    <glyph glyph-name="onequarter" unicode="&#xbc;" horiz-adv-x="564" 
d="M364 427h50l-235 -444h-49zM157 136h-59v219l-48 -38l-28 36l82 61h53v-278zM449 223h-1l-82 -122h83v122zM317 104l118 174h72v-177h33v-46h-33v-55h-58v55h-132v49z" />
    <glyph glyph-name="onehalf" unicode="&#xbd;" horiz-adv-x="564" 
d="M152 136h-59v219l-48 -38l-28 35l81 62h54v-278zM350 45q9 6 21.5 16.5t26 23t26.5 26.5t23.5 28.5t17 28t6.5 25.5q0 17 -10 28t-30 11q-21 0 -37.5 -5.5t-30.5 -15.5l-4 50q17 9 38 14t45 5q21 0 38.5 -5t30 -14.5t19.5 -25t7 -35.5q0 -19 -8 -37t-21 -35t-28.5 -32
t-29.5 -26l-25 -20h114v-50h-189v45zM352 427h50l-235 -444h-49z" />
    <glyph glyph-name="threequarters" unicode="&#xbe;" horiz-adv-x="564" 
d="M324 104l119 174h72v-177h32v-46h-32v-55h-59v55h-132v49zM57 301q7 0 14 -0.5t18 -0.5q9 0 19 2t19 6.5t15 11.5t6 18q0 9 -4.5 15.5t-11.5 10.5t-16.5 6t-18.5 2q-15 0 -33 -4t-34 -12l-3 47q19 7 39 10.5t41 3.5q17 0 35 -4t32.5 -12t23.5 -21t9 -31q0 -29 -16 -45
t-41 -23q27 -5 44 -21t17 -44q0 -23 -10.5 -39t-27 -26t-37 -14.5t-40.5 -4.5q-21 0 -40.5 2.5t-38.5 8.5l2 49q18 -6 35 -10t38 -4q11 0 21 2.5t17.5 7.5t12.5 12.5t5 17.5q0 11 -5.5 18.5t-14.5 11.5t-19.5 5.5t-20.5 1.5h-17t-14 -1v47zM456 223h-1l-80 -122h81v122z
M382 427h50l-235 -444h-49z" />
    <glyph glyph-name="questiondown" unicode="&#xbf;" horiz-adv-x="323" 
d="M282 -110q-25 -10 -54.5 -14.5t-60.5 -4.5q-30 0 -55.5 6.5t-44.5 21t-30 36.5t-11 52q0 22 8 41t19.5 35.5t25.5 32.5t26 33t20 36.5t8 43.5h70q0 -28 -7 -49.5t-17.5 -39t-23 -32.5t-23 -29t-17.5 -29t-7 -32q0 -18 6.5 -30t17 -20t24 -11.5t28.5 -3.5q24 0 48 6t45 17
zM208 256h-81v83h81v-83z" />
    <glyph glyph-name="Agrave" unicode="&#xc0;" horiz-adv-x="450" 
d="M180 461h91l173 -461h-87l-39 111h-190l-40 -111h-82zM224 384h-1l-72 -210h145zM272 486h-48l-84 96h79z" />
    <glyph glyph-name="Aacute" unicode="&#xc1;" horiz-adv-x="450" 
d="M180 461h91l173 -461h-87l-39 111h-190l-40 -111h-82zM224 384h-1l-72 -210h145zM231 582h79l-83 -96h-49z" />
    <glyph glyph-name="Acircumflex" unicode="&#xc2;" horiz-adv-x="450" 
d="M180 461h91l173 -461h-87l-39 111h-190l-40 -111h-82zM224 384h-1l-72 -210h145zM195 582h63l66 -96h-53l-46 59l-46 -59h-53z" />
    <glyph glyph-name="Atilde" unicode="&#xc3;" horiz-adv-x="450" 
d="M180 461h91l173 -461h-87l-39 111h-190l-40 -111h-82zM224 384h-1l-72 -210h145zM117 498q0 12 4.5 25.5t12.5 24.5t20 18t27 7q12 0 24 -4t23.5 -9t21.5 -9t20 -4q13 0 20 9t7 22h35q-1 -15 -5.5 -28.5t-12 -24t-18.5 -17t-25 -6.5q-15 0 -27 3.5t-23.5 8t-21 8
t-18.5 3.5q-15 0 -22 -8.5t-8 -18.5h-34z" />
    <glyph glyph-name="Adieresis" unicode="&#xc4;" horiz-adv-x="450" 
d="M180 461h91l173 -461h-87l-39 111h-190l-40 -111h-82zM224 384h-1l-72 -210h145zM254 576h68v-72h-68v72zM129 576h67v-72h-67v72z" />
    <glyph glyph-name="Aring" unicode="&#xc5;" horiz-adv-x="450" 
d="M180 461h91l173 -461h-87l-39 111h-190l-40 -111h-82zM224 384h-1l-72 -210h145zM157 545q0 14 5.5 26.5t15 22t22 15t26.5 5.5t27 -5.5t22 -15t14.5 -22t5.5 -26.5t-5.5 -26.5t-14.5 -21.5t-22 -14.5t-27 -5.5t-26.5 5.5t-22 14.5t-15 21.5t-5.5 26.5zM190 545
q0 -15 10.5 -25.5t25.5 -10.5t26 10.5t11 25.5t-11 25.5t-26 10.5t-25.5 -10.5t-10.5 -25.5z" />
    <glyph glyph-name="AE" unicode="&#xc6;" horiz-adv-x="596" 
d="M307 402h-2l-121 -228h131zM256 461h300v-65h-170l4 -126h155v-64h-150l6 -142h160v-64h-238l-4 111h-168l-60 -111h-86z" />
    <glyph glyph-name="Ccedilla" unicode="&#xc7;" horiz-adv-x="399" 
d="M367 380q-46 23 -96 23q-34 0 -63 -12t-49.5 -34.5t-32 -55t-11.5 -72.5t11 -72t32 -54t49.5 -34t64.5 -12q27 0 53.5 5.5t43.5 15.5l4 -69q-21 -8 -48.5 -12.5t-54.5 -4.5h-10l-19 -29q6 1 12 2.5t14 1.5q21 0 37 -12.5t16 -34.5q0 -18 -7.5 -29.5t-18.5 -19t-25 -10.5
t-27 -3q-25 0 -44 4t-29 10l11 31q10 -4 21.5 -7.5t26.5 -3.5q14 0 25 5t11 19q0 12 -9 18.5t-21 6.5q-6 0 -11.5 -2t-9.5 -4l-14 13l28 47q-45 5 -81 23.5t-61 47.5t-38.5 69.5t-13.5 90.5q0 55 16 100t46.5 76.5t74.5 48.5t100 17q12 0 25.5 -1.5t27 -4t26.5 -6t23 -7.5z
" />
    <glyph glyph-name="Egrave" unicode="&#xc8;" horiz-adv-x="350" 
d="M53 461h253v-65h-173v-126h161v-64h-161v-142h178v-64h-258v461zM224 486h-49l-83 96h78z" />
    <glyph glyph-name="Eacute" unicode="&#xc9;" horiz-adv-x="350" 
d="M53 461h253v-65h-173v-126h161v-64h-161v-142h178v-64h-258v461zM183 582h79l-84 -96h-49z" />
    <glyph glyph-name="Ecircumflex" unicode="&#xca;" horiz-adv-x="350" 
d="M53 461h253v-65h-173v-126h161v-64h-161v-142h178v-64h-258v461zM146 582h63l67 -96h-54l-45 59l-46 -59h-53z" />
    <glyph glyph-name="Edieresis" unicode="&#xcb;" horiz-adv-x="350" 
d="M53 461h253v-65h-173v-126h161v-64h-161v-142h178v-64h-258v461zM205 576h68v-72h-68v72zM81 576h66v-72h-66v72z" />
    <glyph glyph-name="Igrave" unicode="&#xcc;" horiz-adv-x="175" 
d="M48 461h80v-461h-80v461zM135 486h-49l-83 96h78z" />
    <glyph glyph-name="Iacute" unicode="&#xcd;" horiz-adv-x="175" 
d="M48 461h80v-461h-80v461zM93 582h79l-83 -96h-48z" />
    <glyph glyph-name="Icircumflex" unicode="&#xce;" horiz-adv-x="175" 
d="M48 461h80v-461h-80v461zM57 582h63l66 -96h-53l-45 59l-47 -59h-53z" />
    <glyph glyph-name="Idieresis" unicode="&#xcf;" horiz-adv-x="175" 
d="M48 461h80v-461h-80v461zM116 576h68v-72h-68v72zM-9 576h67v-72h-67v72z" />
    <glyph glyph-name="Eth" unicode="&#xd0;" horiz-adv-x="453" 
d="M51 461h114q54 0 101 -12t80.5 -39t53 -71.5t19.5 -108.5t-20 -108t-54 -71t-80 -39t-99 -12h-115v219h-43v52h43v190zM132 271h102v-52h-102v-155h44q34 0 63 11t50.5 32t34 52t12.5 72q0 40 -12 71t-33.5 52t-51.5 32t-65 11h-42v-126z" />
    <glyph glyph-name="Ntilde" unicode="&#xd1;" horiz-adv-x="457" 
d="M49 461h98l183 -362h1v362h76v-461h-99l-181 359h-2v-359h-76v461zM120 498q0 12 4.5 25.5t12.5 24.5t20 18t27 7q12 0 24 -4t23 -9t21.5 -9t20.5 -4q13 0 20 9.5t7 21.5h35q-1 -15 -5.5 -28.5t-12 -24t-18.5 -17t-25 -6.5q-15 0 -27 3.5t-23 8t-21 8t-19 3.5
q-16 0 -22.5 -8.5t-7.5 -18.5h-34z" />
    <glyph glyph-name="Ograve" unicode="&#xd2;" horiz-adv-x="484" 
d="M32 231q0 51 13.5 94.5t40 75t65.5 49.5t91 18q50 0 89.5 -18t66 -49.5t40.5 -75t14 -94.5q0 -52 -14 -96t-40.5 -76t-66 -49.5t-89.5 -17.5q-51 0 -90.5 17.5t-66 49t-40 75.5t-13.5 97zM242 405q-34 0 -58 -14.5t-39.5 -38.5t-23 -55.5t-7.5 -65.5q0 -35 7 -66.5
t22.5 -55.5t40 -38.5t58.5 -14.5q33 0 57.5 14.5t39.5 38.5t22.5 55.5t7.5 66.5q0 34 -7.5 65.5t-23 55.5t-39.5 38.5t-57 14.5zM289 486h-49l-83 96h79z" />
    <glyph glyph-name="Oacute" unicode="&#xd3;" horiz-adv-x="484" 
d="M32 231q0 51 13.5 94.5t40 75t65.5 49.5t91 18q50 0 89.5 -18t66 -49.5t40.5 -75t14 -94.5q0 -52 -14 -96t-40.5 -76t-66 -49.5t-89.5 -17.5q-51 0 -90.5 17.5t-66 49t-40 75.5t-13.5 97zM242 405q-34 0 -58 -14.5t-39.5 -38.5t-23 -55.5t-7.5 -65.5q0 -35 7 -66.5
t22.5 -55.5t40 -38.5t58.5 -14.5q33 0 57.5 14.5t39.5 38.5t22.5 55.5t7.5 66.5q0 34 -7.5 65.5t-23 55.5t-39.5 38.5t-57 14.5zM248 582h78l-83 -96h-48z" />
    <glyph glyph-name="Ocircumflex" unicode="&#xd4;" horiz-adv-x="484" 
d="M32 231q0 51 13.5 94.5t40 75t65.5 49.5t91 18q50 0 89.5 -18t66 -49.5t40.5 -75t14 -94.5q0 -52 -14 -96t-40.5 -76t-66 -49.5t-89.5 -17.5q-51 0 -90.5 17.5t-66 49t-40 75.5t-13.5 97zM242 405q-34 0 -58 -14.5t-39.5 -38.5t-23 -55.5t-7.5 -65.5q0 -35 7 -66.5
t22.5 -55.5t40 -38.5t58.5 -14.5q33 0 57.5 14.5t39.5 38.5t22.5 55.5t7.5 66.5q0 34 -7.5 65.5t-23 55.5t-39.5 38.5t-57 14.5zM211 582h63l67 -96h-54l-45 59l-47 -59h-52z" />
    <glyph glyph-name="Otilde" unicode="&#xd5;" horiz-adv-x="484" 
d="M32 231q0 51 13.5 94.5t40 75t65.5 49.5t91 18q50 0 89.5 -18t66 -49.5t40.5 -75t14 -94.5q0 -52 -14 -96t-40.5 -76t-66 -49.5t-89.5 -17.5q-51 0 -90.5 17.5t-66 49t-40 75.5t-13.5 97zM242 405q-34 0 -58 -14.5t-39.5 -38.5t-23 -55.5t-7.5 -65.5q0 -35 7 -66.5
t22.5 -55.5t40 -38.5t58.5 -14.5q33 0 57.5 14.5t39.5 38.5t22.5 55.5t7.5 66.5q0 34 -7.5 65.5t-23 55.5t-39.5 38.5t-57 14.5zM135 498q0 12 4.5 25.5t12 24.5t19 18t26.5 7q12 0 24 -4t23.5 -9t22 -9t20.5 -4q13 0 20 9t7 22h35q-1 -15 -5 -28.5t-12 -24t-19 -17
t-25 -6.5q-15 0 -27.5 3.5t-23.5 8t-20.5 8t-18.5 3.5q-15 0 -22 -8.5t-8 -18.5h-33z" />
    <glyph glyph-name="Odieresis" unicode="&#xd6;" horiz-adv-x="484" 
d="M32 231q0 51 13.5 94.5t40 75t65.5 49.5t91 18q50 0 89.5 -18t66 -49.5t40.5 -75t14 -94.5q0 -52 -14 -96t-40.5 -76t-66 -49.5t-89.5 -17.5q-51 0 -90.5 17.5t-66 49t-40 75.5t-13.5 97zM242 405q-34 0 -58 -14.5t-39.5 -38.5t-23 -55.5t-7.5 -65.5q0 -35 7 -66.5
t22.5 -55.5t40 -38.5t58.5 -14.5q33 0 57.5 14.5t39.5 38.5t22.5 55.5t7.5 66.5q0 34 -7.5 65.5t-23 55.5t-39.5 38.5t-57 14.5zM271 576h67v-72h-67v72zM145 576h68v-72h-68v72z" />
    <glyph glyph-name="multiply" unicode="&#xd7;" horiz-adv-x="385" 
d="M304 5l-112 112l-112 -112l-53 53l113 113l-113 112l53 53l112 -113l112 113l54 -53l-113 -112l113 -113z" />
    <glyph glyph-name="Oslash" unicode="&#xd8;" horiz-adv-x="484" 
d="M326 366q-16 19 -37 29t-47 10q-34 0 -58 -14.5t-39.5 -38.5t-23 -55.5t-7.5 -65.5q0 -27 5 -53.5t16 -48.5zM155 96q15 -19 36.5 -29.5t50.5 -10.5q33 0 57.5 14.5t39.5 38.5t22.5 55.5t7.5 66.5q0 27 -5.5 54t-17.5 49zM441 455l-44 -56q28 -32 41.5 -75t13.5 -93
q0 -52 -14 -96t-40.5 -76t-66 -49.5t-89.5 -17.5q-83 0 -133 46l-43 -54l-28 22l47 58q-27 30 -40 72.5t-13 94.5q0 51 13.5 94.5t40 75t65.5 49.5t91 18q40 0 72 -11t58 -32l42 53z" />
    <glyph glyph-name="Ugrave" unicode="&#xd9;" horiz-adv-x="451" 
d="M401 165q0 -47 -13 -79.5t-36.5 -53.5t-56 -30.5t-70.5 -9.5q-39 0 -71 9.5t-55 30.5t-36 53.5t-13 79.5v296h80v-279q0 -59 22 -92t73 -33q26 0 44 8.5t29.5 24.5t17 39t5.5 53v279h80v-296zM272 486h-48l-83 96h78z" />
    <glyph glyph-name="Uacute" unicode="&#xda;" horiz-adv-x="451" 
d="M401 165q0 -47 -13 -79.5t-36.5 -53.5t-56 -30.5t-70.5 -9.5q-39 0 -71 9.5t-55 30.5t-36 53.5t-13 79.5v296h80v-279q0 -59 22 -92t73 -33q26 0 44 8.5t29.5 24.5t17 39t5.5 53v279h80v-296zM231 582h79l-83 -96h-49z" />
    <glyph glyph-name="Ucircumflex" unicode="&#xdb;" horiz-adv-x="451" 
d="M401 165q0 -47 -13 -79.5t-36.5 -53.5t-56 -30.5t-70.5 -9.5q-39 0 -71 9.5t-55 30.5t-36 53.5t-13 79.5v296h80v-279q0 -59 22 -92t73 -33q26 0 44 8.5t29.5 24.5t17 39t5.5 53v279h80v-296zM195 582h63l66 -96h-53l-46 59l-45 -59h-53z" />
    <glyph glyph-name="Udieresis" unicode="&#xdc;" horiz-adv-x="451" 
d="M401 165q0 -47 -13 -79.5t-36.5 -53.5t-56 -30.5t-70.5 -9.5q-39 0 -71 9.5t-55 30.5t-36 53.5t-13 79.5v296h80v-279q0 -59 22 -92t73 -33q26 0 44 8.5t29.5 24.5t17 39t5.5 53v279h80v-296zM254 576h68v-72h-68v72zM129 576h67v-72h-67v72z" />
    <glyph glyph-name="Yacute" unicode="&#xdd;" horiz-adv-x="414" 
d="M168 186l-160 275h92l109 -199l111 199h85l-158 -276v-185h-79v186zM213 582h79l-83 -96h-49z" />
    <glyph glyph-name="Thorn" unicode="&#xde;" horiz-adv-x="353" 
d="M48 461h80v-79h37q36 0 67 -7.5t54.5 -24t37 -43t13.5 -63.5t-12.5 -64t-34.5 -44.5t-51.5 -25.5t-64.5 -8h-46v-102h-80v461zM128 166h32q19 0 36 3.5t30 12t20.5 23.5t7.5 37q0 20 -6.5 35t-18.5 24t-28 13.5t-34 4.5h-39v-153z" />
    <glyph glyph-name="germandbls" unicode="&#xdf;" horiz-adv-x="382" 
d="M46 343q0 37 9.5 66.5t28.5 50.5t47 32t65 11q28 0 53 -8t44 -24t30.5 -39t11.5 -52q0 -46 -23 -75.5t-63 -39.5v-2q25 -3 45 -13.5t34 -26.5t21.5 -37t7.5 -44q0 -33 -10 -60t-29 -46t-46 -29.5t-61 -10.5q-15 0 -29 2t-24 5l3 60q7 -3 18 -5t24 -2q14 0 27 4.5t23.5 15
t17 28t6.5 43.5t-8.5 42t-23 25t-33.5 12t-39 4v60q17 0 32 4t26.5 13.5t18 25t6.5 37.5q0 14 -4 27.5t-11.5 23.5t-19 16t-26.5 6q-26 0 -40.5 -12t-22 -30.5t-9 -41.5t-1.5 -46v-313h-76v343z" />
    <glyph glyph-name="agrave" unicode="&#xe0;" horiz-adv-x="350" 
d="M215 382h-48l-84 96h79zM244 0q-1 5 -2 13t-1.5 15.5t-1 13t-0.5 8.5q-16 -27 -43.5 -42t-59.5 -15q-25 0 -45.5 7t-35.5 20.5t-23 31.5t-8 40q0 38 16.5 61.5t42 35.5t57 16t62.5 4h35q0 39 -16.5 59.5t-57.5 20.5q-29 0 -55.5 -10t-45.5 -24q0 16 -0.5 32.5t-1.5 33.5
q22 10 51.5 17.5t59.5 7.5q38 0 64 -9t42 -26t23 -43t7 -60v-48q0 -47 1 -86t4 -74h-68zM224 161q-20 0 -42 -1.5t-41 -7.5t-31.5 -19t-12.5 -36q0 -25 16.5 -36.5t41.5 -11.5q23 0 39 9t25.5 24t13.5 34t4 40v5h-13z" />
    <glyph glyph-name="aacute" unicode="&#xe1;" horiz-adv-x="350" 
d="M184 478h78l-83 -96h-48zM244 0q-1 5 -2 13t-1.5 15.5t-1 13t-0.5 8.5q-16 -27 -43.5 -42t-59.5 -15q-25 0 -45.5 7t-35.5 20.5t-23 31.5t-8 40q0 38 16.5 61.5t42 35.5t57 16t62.5 4h35q0 39 -16.5 59.5t-57.5 20.5q-29 0 -55.5 -10t-45.5 -24q0 16 -0.5 32.5t-1.5 33.5
q22 10 51.5 17.5t59.5 7.5q38 0 64 -9t42 -26t23 -43t7 -60v-48q0 -47 1 -86t4 -74h-68zM224 161q-20 0 -42 -1.5t-41 -7.5t-31.5 -19t-12.5 -36q0 -25 16.5 -36.5t41.5 -11.5q23 0 39 9t25.5 24t13.5 34t4 40v5h-13z" />
    <glyph glyph-name="acircumflex" unicode="&#xe2;" horiz-adv-x="350" 
d="M144 478h63l66 -96h-53l-45 59l-47 -59h-52zM244 0q-1 5 -2 13t-1.5 15.5t-1 13t-0.5 8.5q-16 -27 -43.5 -42t-59.5 -15q-25 0 -45.5 7t-35.5 20.5t-23 31.5t-8 40q0 38 16.5 61.5t42 35.5t57 16t62.5 4h35q0 39 -16.5 59.5t-57.5 20.5q-29 0 -55.5 -10t-45.5 -24
q0 16 -0.5 32.5t-1.5 33.5q22 10 51.5 17.5t59.5 7.5q38 0 64 -9t42 -26t23 -43t7 -60v-48q0 -47 1 -86t4 -74h-68zM224 161q-20 0 -42 -1.5t-41 -7.5t-31.5 -19t-12.5 -36q0 -25 16.5 -36.5t41.5 -11.5q23 0 39 9t25.5 24t13.5 34t4 40v5h-13z" />
    <glyph glyph-name="atilde" unicode="&#xe3;" horiz-adv-x="350" 
d="M68 394q0 12 4 25t12 24t19.5 18.5t26.5 7.5q12 0 24.5 -4t23.5 -9t21.5 -9t20.5 -4q12 0 19 9t8 21h34q-1 -15 -5 -28.5t-11.5 -24t-18.5 -16.5t-25 -6q-15 0 -28 3.5t-24 8t-20.5 8t-17.5 3.5q-15 0 -22.5 -8.5t-8.5 -18.5h-32zM244 0q-1 5 -2 13t-1.5 15.5t-1 13
t-0.5 8.5q-16 -27 -43.5 -42t-59.5 -15q-25 0 -45.5 7t-35.5 20.5t-23 31.5t-8 40q0 38 16.5 61.5t42 35.5t57 16t62.5 4h35q0 39 -16.5 59.5t-57.5 20.5q-29 0 -55.5 -10t-45.5 -24q0 16 -0.5 32.5t-1.5 33.5q22 10 51.5 17.5t59.5 7.5q38 0 64 -9t42 -26t23 -43t7 -60v-48
q0 -47 1 -86t4 -74h-68zM224 161q-20 0 -42 -1.5t-41 -7.5t-31.5 -19t-12.5 -36q0 -25 16.5 -36.5t41.5 -11.5q23 0 39 9t25.5 24t13.5 34t4 40v5h-13z" />
    <glyph glyph-name="adieresis" unicode="&#xe4;" horiz-adv-x="350" 
d="M204 471h67v-71h-67v71zM78 471h68v-71h-68v71zM244 0q-1 5 -2 13t-1.5 15.5t-1 13t-0.5 8.5q-16 -27 -43.5 -42t-59.5 -15q-25 0 -45.5 7t-35.5 20.5t-23 31.5t-8 40q0 38 16.5 61.5t42 35.5t57 16t62.5 4h35q0 39 -16.5 59.5t-57.5 20.5q-29 0 -55.5 -10t-45.5 -24
q0 16 -0.5 32.5t-1.5 33.5q22 10 51.5 17.5t59.5 7.5q38 0 64 -9t42 -26t23 -43t7 -60v-48q0 -47 1 -86t4 -74h-68zM224 161q-20 0 -42 -1.5t-41 -7.5t-31.5 -19t-12.5 -36q0 -25 16.5 -36.5t41.5 -11.5q23 0 39 9t25.5 24t13.5 34t4 40v5h-13z" />
    <glyph glyph-name="aring" unicode="&#xe5;" horiz-adv-x="350" 
d="M109 444q0 14 5 26.5t14.5 22t21.5 15t27 5.5q14 0 26.5 -5.5t22 -15t15 -22t5.5 -26.5q0 -15 -5.5 -27t-15 -21.5t-22 -14.5t-26.5 -5q-15 0 -27 5t-21.5 14.5t-14.5 21.5t-5 27zM141 444q0 -15 10.5 -25t25.5 -10q16 0 26 10t10 25q0 16 -10 26.5t-26 10.5
q-15 0 -25.5 -10.5t-10.5 -26.5zM244 0q-1 5 -2 13t-1.5 15.5t-1 13t-0.5 8.5q-16 -27 -43.5 -42t-59.5 -15q-25 0 -45.5 7t-35.5 20.5t-23 31.5t-8 40q0 38 16.5 61.5t42 35.5t57 16t62.5 4h35q0 39 -16.5 59.5t-57.5 20.5q-29 0 -55.5 -10t-45.5 -24q0 16 -0.5 32.5
t-1.5 33.5q22 10 51.5 17.5t59.5 7.5q38 0 64 -9t42 -26t23 -43t7 -60v-48q0 -47 1 -86t4 -74h-68zM224 161q-20 0 -42 -1.5t-41 -7.5t-31.5 -19t-12.5 -36q0 -25 16.5 -36.5t41.5 -11.5q23 0 39 9t25.5 24t13.5 34t4 40v5h-13z" />
    <glyph glyph-name="ae" unicode="&#xe6;" horiz-adv-x="558" 
d="M212 159q-17 0 -37 -2.5t-37 -9t-28 -20t-11 -34.5q0 -20 15 -32t39 -12q23 0 39 7t25.5 20.5t14 33t4.5 44.5v5h-24zM511 16q-21 -11 -48.5 -17t-60.5 -6q-46 0 -80.5 15.5t-53.5 48.5q-21 -33 -53.5 -48.5t-70.5 -15.5q-24 0 -45.5 6t-38 18t-26 30.5t-9.5 43.5
q0 36 16 58.5t41 35.5t56 17.5t62 4.5h36q0 18 -3.5 33.5t-11.5 26.5t-22.5 17t-35.5 6q-28 0 -54 -10t-46 -25q0 16 -0.5 32.5t-1.5 33.5q22 10 51.5 17.5t61.5 7.5q36 0 61.5 -10t45.5 -38q18 24 45 36t63 12q41 0 68.5 -16t44.5 -43t24 -63t7 -77h-223q0 -21 6 -39
t18.5 -31t30.5 -20t42 -7q31 0 56.5 9t46.5 21zM458 200q0 17 -4 33.5t-12 29t-21.5 20t-31.5 7.5q-20 0 -35 -8t-24.5 -21t-14.5 -29t-5 -32h148z" />
    <glyph glyph-name="ccedilla" unicode="&#xe7;" horiz-adv-x="288" 
d="M263 272q-13 6 -27.5 10t-33.5 4q-23 0 -41 -8.5t-30.5 -23.5t-19 -36t-6.5 -47t6.5 -47.5t19 -37.5t30.5 -24.5t42 -8.5q18 0 36.5 5t30.5 11l4 -65q-17 -6 -36 -8t-42 -3l-19 -30q6 1 12 2.5t14 1.5q21 0 37 -12.5t16 -34.5q0 -18 -7.5 -29.5t-18.5 -19t-25 -10.5
t-27 -3q-25 0 -44 4t-29 10l11 31q10 -4 21.5 -7.5t26.5 -3.5q14 0 25 5t11 19q0 12 -9 18.5t-21 6.5q-6 0 -11.5 -2t-9.5 -4l-14 13l28 47q-35 3 -61 18t-43 38t-25.5 53.5t-8.5 65.5q0 37 10.5 69t31.5 56t51 37.5t70 13.5q25 0 45.5 -4t35.5 -8z" />
    <glyph glyph-name="egrave" unicode="&#xe8;" horiz-adv-x="349" 
d="M301 17q-21 -11 -48 -17.5t-61 -6.5q-43 0 -74 13t-52 36t-31 55t-10 70t10 70.5t29 56.5t47 38t64 14q42 0 70.5 -14.5t46 -41t25 -63t7.5 -80.5h-224q1 -46 26.5 -71.5t69.5 -25.5q26 0 54.5 8.5t49.5 21.5zM249 200q-1 19 -5 35.5t-13 28.5t-22 19t-31 7
q-19 0 -33.5 -7.5t-24 -20t-15 -29t-5.5 -33.5h149zM214 382h-48l-83 96h79z" />
    <glyph glyph-name="eacute" unicode="&#xe9;" horiz-adv-x="349" 
d="M301 17q-21 -11 -48 -17.5t-61 -6.5q-43 0 -74 13t-52 36t-31 55t-10 70t10 70.5t29 56.5t47 38t64 14q42 0 70.5 -14.5t46 -41t25 -63t7.5 -80.5h-224q1 -46 26.5 -71.5t69.5 -25.5q26 0 54.5 8.5t49.5 21.5zM249 200q-1 19 -5 35.5t-13 28.5t-22 19t-31 7
q-19 0 -33.5 -7.5t-24 -20t-15 -29t-5.5 -33.5h149zM183 478h79l-83 -96h-48z" />
    <glyph glyph-name="ecircumflex" unicode="&#xea;" horiz-adv-x="349" 
d="M301 17q-21 -11 -48 -17.5t-61 -6.5q-43 0 -74 13t-52 36t-31 55t-10 70t10 70.5t29 56.5t47 38t64 14q42 0 70.5 -14.5t46 -41t25 -63t7.5 -80.5h-224q1 -46 26.5 -71.5t69.5 -25.5q26 0 54.5 8.5t49.5 21.5zM249 200q-1 19 -5 35.5t-13 28.5t-22 19t-31 7
q-19 0 -33.5 -7.5t-24 -20t-15 -29t-5.5 -33.5h149zM143 478h64l66 -96h-53l-46 59l-46 -59h-52z" />
    <glyph glyph-name="edieresis" unicode="&#xeb;" horiz-adv-x="349" 
d="M301 17q-21 -11 -48 -17.5t-61 -6.5q-43 0 -74 13t-52 36t-31 55t-10 70t10 70.5t29 56.5t47 38t64 14q42 0 70.5 -14.5t46 -41t25 -63t7.5 -80.5h-224q1 -46 26.5 -71.5t69.5 -25.5q26 0 54.5 8.5t49.5 21.5zM249 200q-1 19 -5 35.5t-13 28.5t-22 19t-31 7
q-19 0 -33.5 -7.5t-24 -20t-15 -29t-5.5 -33.5h149zM203 471h67v-71h-67v71zM78 471h68v-71h-68v71z" />
    <glyph glyph-name="igrave" unicode="&#xec;" horiz-adv-x="172" 
d="M48 339h77v-339h-77v339zM127 382h-49l-84 96h79z" />
    <glyph glyph-name="iacute" unicode="&#xed;" horiz-adv-x="172" 
d="M48 339h77v-339h-77v339zM96 478h77l-82 -96h-49z" />
    <glyph glyph-name="icircumflex" unicode="&#xee;" horiz-adv-x="172" 
d="M48 339h77v-339h-77v339zM55 478h64l66 -96h-54l-45 59l-46 -59h-53z" />
    <glyph glyph-name="idieresis" unicode="&#xef;" horiz-adv-x="172" 
d="M48 339h77v-339h-77v339zM115 471h67v-71h-67v71zM-11 471h68v-71h-68v71z" />
    <glyph glyph-name="eth" unicode="&#xf0;" horiz-adv-x="382" 
d="M105 167q0 -21 4.5 -41.5t14.5 -37t26.5 -26.5t40.5 -10q23 0 39 10t26.5 26t15 36.5t4.5 42.5q0 19 -4.5 39.5t-14.5 37t-26 27.5t-39 11q-24 0 -40.5 -10.5t-27 -27t-15 -37t-4.5 -40.5zM97 399l56 35q-17 10 -34.5 17.5t-33.5 12.5l36 40q22 -7 44 -16.5t41 -21.5
l62 38l28 -29l-56 -33q25 -21 46.5 -46.5t37 -57t24 -69t8.5 -81.5q0 -50 -11.5 -87t-33.5 -61t-52.5 -35.5t-68.5 -11.5t-68.5 12.5t-52 35.5t-33 55t-11.5 72q0 37 10.5 69t30 55t47.5 36t63 13q28 0 47 -8t34 -21h1q-5 14 -12.5 27.5t-16.5 26t-19.5 23.5t-21.5 20
l-62 -38z" />
    <glyph glyph-name="ntilde" unicode="&#xf1;" horiz-adv-x="380" 
d="M45 291q0 12 -0.5 24t-0.5 24h72l2 -50q16 25 40.5 41t65.5 16q30 0 51 -10.5t34.5 -28t19.5 -41t6 -50.5v-216h-77v192q0 17 -2 34t-8 30t-17.5 21.5t-31.5 8.5q-24 0 -39.5 -11t-24 -28.5t-11.5 -38t-3 -38.5v-170h-76v291zM83 394q0 12 4.5 25t12.5 24t19.5 18.5
t26.5 7.5q12 0 24 -4t23 -9t21.5 -9t20.5 -4q13 0 20 9t8 21h34q-1 -15 -5 -28.5t-12 -24t-19 -16.5t-25 -6q-15 0 -27.5 3.5t-23 8t-20 8t-19.5 3.5q-15 0 -22 -8.5t-8 -18.5h-33z" />
    <glyph glyph-name="ograve" unicode="&#xf2;" horiz-adv-x="382" 
d="M25 168q0 42 12.5 75t34.5 56t52 35t66 12t66.5 -12t53 -35t35 -56t12.5 -75q0 -40 -11.5 -72t-33 -55t-52.5 -35.5t-70 -12.5q-38 0 -68.5 12.5t-52 35.5t-33 55t-11.5 72zM105 174q0 -22 4 -44t14 -39t26 -28t41 -11t41.5 10.5t26.5 28t14.5 39.5t4.5 44q0 21 -5 41
t-15.5 36t-27 26t-39.5 10t-39 -10t-26.5 -26t-15 -36.5t-4.5 -40.5zM232 382h-49l-83 96h79z" />
    <glyph glyph-name="oacute" unicode="&#xf3;" horiz-adv-x="382" 
d="M25 168q0 42 12.5 75t34.5 56t52 35t66 12t66.5 -12t53 -35t35 -56t12.5 -75q0 -40 -11.5 -72t-33 -55t-52.5 -35.5t-70 -12.5q-38 0 -68.5 12.5t-52 35.5t-33 55t-11.5 72zM105 174q0 -22 4 -44t14 -39t26 -28t41 -11t41.5 10.5t26.5 28t14.5 39.5t4.5 44q0 21 -5 41
t-15.5 36t-27 26t-39.5 10t-39 -10t-26.5 -26t-15 -36.5t-4.5 -40.5zM200 478h79l-83 -96h-49z" />
    <glyph glyph-name="ocircumflex" unicode="&#xf4;" horiz-adv-x="382" 
d="M25 168q0 42 12.5 75t34.5 56t52 35t66 12t66.5 -12t53 -35t35 -56t12.5 -75q0 -40 -11.5 -72t-33 -55t-52.5 -35.5t-70 -12.5q-38 0 -68.5 12.5t-52 35.5t-33 55t-11.5 72zM105 174q0 -22 4 -44t14 -39t26 -28t41 -11t41.5 10.5t26.5 28t14.5 39.5t4.5 44q0 21 -5 41
t-15.5 36t-27 26t-39.5 10t-39 -10t-26.5 -26t-15 -36.5t-4.5 -40.5zM160 478h64l66 -96h-54l-45 59l-46 -59h-52z" />
    <glyph glyph-name="otilde" unicode="&#xf5;" horiz-adv-x="382" 
d="M25 168q0 42 12.5 75t34.5 56t52 35t66 12t66.5 -12t53 -35t35 -56t12.5 -75q0 -40 -11.5 -72t-33 -55t-52.5 -35.5t-70 -12.5q-38 0 -68.5 12.5t-52 35.5t-33 55t-11.5 72zM105 174q0 -22 4 -44t14 -39t26 -28t41 -11t41.5 10.5t26.5 28t14.5 39.5t4.5 44q0 21 -5 41
t-15.5 36t-27 26t-39.5 10t-39 -10t-26.5 -26t-15 -36.5t-4.5 -40.5zM83 394q0 12 4.5 25t13 24t20 18.5t26.5 7.5q12 0 24 -4t23 -9t21.5 -9t20.5 -4q13 0 20 9t8 21h34q-1 -15 -5 -28.5t-11.5 -24t-19 -16.5t-25.5 -6q-15 0 -27 3.5t-22.5 8t-20.5 8t-20 3.5
q-15 0 -21.5 -8.5t-7.5 -18.5h-35z" />
    <glyph glyph-name="odieresis" unicode="&#xf6;" horiz-adv-x="382" 
d="M25 168q0 42 12.5 75t34.5 56t52 35t66 12t66.5 -12t53 -35t35 -56t12.5 -75q0 -40 -11.5 -72t-33 -55t-52.5 -35.5t-70 -12.5q-38 0 -68.5 12.5t-52 35.5t-33 55t-11.5 72zM105 174q0 -22 4 -44t14 -39t26 -28t41 -11t41.5 10.5t26.5 28t14.5 39.5t4.5 44q0 21 -5 41
t-15.5 36t-27 26t-39.5 10t-39 -10t-26.5 -26t-15 -36.5t-4.5 -40.5zM220 471h67v-71h-67v71zM95 471h67v-71h-67v71z" />
    <glyph glyph-name="divide" unicode="&#xf7;" horiz-adv-x="385" 
d="M243 293q0 -11 -4 -20t-11 -16t-16 -11t-20 -4t-20 4t-16 11t-11 16t-4 20t4 20.5t11 16.5t16 11t20 4q22 0 36.5 -15t14.5 -37zM22 134v73h341v-73h-341zM243 47q0 -11 -4 -20t-11 -16t-16 -11t-20 -4t-20 4t-16 11t-11 16t-4 20t4 20.5t11 16.5t16 11t20 4
q22 0 36.5 -15t14.5 -37z" />
    <glyph glyph-name="oslash" unicode="&#xf8;" horiz-adv-x="382" 
d="M246 263q-9 11 -23 17.5t-33 6.5q-23 0 -39 -10t-26.5 -26t-15 -36.5t-4.5 -40.5q0 -18 3 -35t9 -32zM134 77q20 -25 56 -25q25 0 41.5 10.5t26.5 28t14.5 39.5t4.5 44q0 16 -3 31t-8 30zM351 339l-37 -46q43 -45 43 -125q0 -40 -11.5 -72t-33 -55t-52.5 -35.5t-70 -12.5
q-30 0 -55 7.5t-45 22.5l-37 -44l-26 20l39 47q-21 22 -31 53.5t-10 68.5q0 42 12.5 75t34.5 56t52 35t66 12q29 0 54.5 -7.5t45.5 -23.5l37 44z" />
    <glyph glyph-name="ugrave" unicode="&#xf9;" horiz-adv-x="380" 
d="M335 86v-43t1 -43h-73v25t-1 25q-8 -12 -18.5 -22t-23.5 -18t-29 -12.5t-35 -4.5q-30 0 -51 10t-34.5 27.5t-19.5 41t-6 50.5v217h76v-193q0 -17 2 -33.5t8 -29.5t18 -21t32 -8q24 0 39 11t23.5 28t11.5 37.5t3 38.5v170h77v-253zM230 382h-48l-83 96h78z" />
    <glyph glyph-name="uacute" unicode="&#xfa;" horiz-adv-x="380" 
d="M335 86v-43t1 -43h-73v25t-1 25q-8 -12 -18.5 -22t-23.5 -18t-29 -12.5t-35 -4.5q-30 0 -51 10t-34.5 27.5t-19.5 41t-6 50.5v217h76v-193q0 -17 2 -33.5t8 -29.5t18 -21t32 -8q24 0 39 11t23.5 28t11.5 37.5t3 38.5v170h77v-253zM200 478h78l-83 -96h-49z" />
    <glyph glyph-name="ucircumflex" unicode="&#xfb;" horiz-adv-x="380" 
d="M335 86v-43t1 -43h-73v25t-1 25q-8 -12 -18.5 -22t-23.5 -18t-29 -12.5t-35 -4.5q-30 0 -51 10t-34.5 27.5t-19.5 41t-6 50.5v217h76v-193q0 -17 2 -33.5t8 -29.5t18 -21t32 -8q24 0 39 11t23.5 28t11.5 37.5t3 38.5v170h77v-253zM159 478h64l66 -96h-53l-46 59l-46 -59
h-52z" />
    <glyph glyph-name="udieresis" unicode="&#xfc;" horiz-adv-x="380" 
d="M335 86v-43t1 -43h-73v25t-1 25q-8 -12 -18.5 -22t-23.5 -18t-29 -12.5t-35 -4.5q-30 0 -51 10t-34.5 27.5t-19.5 41t-6 50.5v217h76v-193q0 -17 2 -33.5t8 -29.5t18 -21t32 -8q24 0 39 11t23.5 28t11.5 37.5t3 38.5v170h77v-253zM219 471h68v-71h-68v71zM94 471h67v-71
h-67v71z" />
    <glyph glyph-name="yacute" unicode="&#xfd;" horiz-adv-x="336" 
d="M170 82h1l81 257h77q-29 -84 -58.5 -167t-59.5 -167l-21 -60q-7 -19 -16 -36t-22 -29t-30 -19t-40 -7q-30 0 -55 9l5 57q7 -3 16 -4.5t23 -1.5t24 5.5t17 15.5t11 23.5t6 29.5l-123 351h84zM177 478h79l-84 -96h-48z" />
    <glyph glyph-name="thorn" unicode="&#xfe;" horiz-adv-x="382" 
d="M44 495h77v-204q6 9 14.5 18.5t20.5 17.5t27.5 13.5t36.5 5.5q37 0 63 -14.5t42 -38.5t23.5 -56t7.5 -66q0 -37 -8 -69.5t-24.5 -56.5t-42 -38t-60.5 -14q-20 0 -35 4t-27 10.5t-21.5 16t-16.5 20.5v-184h-77v635zM276 170q0 20 -3.5 40.5t-12 37t-23 27.5t-36.5 11
t-37 -10.5t-25 -27.5t-14 -37.5t-4 -40.5t4 -41t13 -38t24 -28t38 -11q22 0 36.5 10.5t23.5 27.5t12.5 38t3.5 42z" />
    <glyph glyph-name="ydieresis" unicode="&#xff;" horiz-adv-x="336" 
d="M170 82h1l81 257h77q-29 -84 -58.5 -167t-59.5 -167l-21 -60q-7 -19 -16 -36t-22 -29t-30 -19t-40 -7q-30 0 -55 9l5 57q7 -3 16 -4.5t23 -1.5t24 5.5t17 15.5t11 23.5t6 29.5l-123 351h84zM71 471h68v-71h-68v71zM197 471h67v-71h-67v71z" />
    <glyph glyph-name="dotlessi" unicode="&#x131;" horiz-adv-x="172" 
d="M48 339h77v-339h-77v339z" />
    <glyph glyph-name="Lslash" unicode="&#x141;" horiz-adv-x="313" 
d="M51 461h81v-188l106 72v-57l-106 -73v-151h173v-64h-254v160l-47 -33v57l47 33v244z" />
    <glyph glyph-name="lslash" unicode="&#x142;" horiz-adv-x="174" 
d="M49 195l-47 -36v58l47 36v242h76v-186l47 37v-57l-47 -38v-251h-76v195z" />
    <glyph glyph-name="OE" unicode="&#x152;" horiz-adv-x="595" 
d="M557 396h-167v-126h155v-64h-155v-142h172v-64h-171q-35 0 -69 -2t-68 -2q-50 0 -91 13t-70 40.5t-45 71.5t-16 107q0 54 15 98t43.5 75t70 47.5t95.5 16.5q34 0 68.5 -2t70.5 -2h162v-65zM310 396q-12 2 -26 3.5t-30 1.5q-30 0 -55.5 -11t-44 -32.5t-29 -54t-10.5 -75.5
q0 -41 10 -72.5t29 -52.5t45 -32t58 -11q16 0 28.5 1t24.5 3v332z" />
    <glyph glyph-name="oe" unicode="&#x153;" horiz-adv-x="593" 
d="M495 200q-1 19 -5 35.5t-12.5 28.5t-21.5 19t-30 7q-18 0 -32 -7.5t-23 -20.5t-13.5 -29t-4.5 -33h142zM353 147q0 -25 7 -43t19.5 -30t30 -18t38.5 -6q28 0 53 8t43 22l3 -64q-6 -3 -15 -7t-22 -7.5t-29 -6t-36 -2.5q-46 0 -79.5 14t-51.5 46q-10 -17 -24 -28.5
t-30.5 -18.5t-34.5 -10t-35 -3q-39 0 -69.5 12.5t-51.5 35.5t-32.5 55t-11.5 72q0 42 12.5 75t34.5 56t52 35t66 12q37 0 69.5 -15t51.5 -47q19 31 49 46.5t66 15.5q41 0 68.5 -15.5t44 -42.5t23.5 -63.5t7 -77.5h-216zM105 170q0 -22 4 -43.5t14 -38.5t26.5 -27.5
t40.5 -10.5q25 0 41.5 10t26.5 27t14 38t4 43q0 21 -4 43t-14 39t-26.5 28t-41.5 11q-24 0 -40 -11t-26 -28.5t-14.5 -38.5t-4.5 -41z" />
    <glyph glyph-name="Scaron" unicode="&#x160;" horiz-adv-x="349" 
d="M206 486h-63l-67 96h53l45 -60l46 60h53zM49 85q21 -12 47 -20t55 -8q15 0 30 4.5t26.5 13.5t18.5 22t7 29q0 22 -14.5 36.5t-36.5 26t-47.5 23t-47.5 27t-36.5 38.5t-14.5 58t13 60t34.5 41.5t49 24t57.5 7.5q29 0 55 -4.5t47 -11.5l-7 -68q-20 9 -42.5 14.5t-47.5 5.5
q-14 0 -27.5 -3.5t-24 -11t-17 -20t-6.5 -30.5q0 -16 8.5 -27.5t22 -21t31.5 -17.5t36.5 -17.5t36 -20.5t31.5 -25.5t22.5 -34.5t8.5 -46q0 -37 -13.5 -63t-36 -42.5t-52 -24t-61.5 -7.5q-18 0 -32.5 1t-27.5 3.5t-25.5 6t-25.5 8.5z" />
    <glyph glyph-name="scaron" unicode="&#x161;" horiz-adv-x="279" 
d="M30 72q17 -9 39.5 -15t46.5 -6q10 0 21 2t20 7t14.5 13t5.5 21q0 16 -11.5 26t-28.5 17.5t-36.5 15t-36.5 19t-28 29t-11 45.5q0 24 10 43t27 31.5t39.5 19t47.5 6.5q28 0 50 -4.5t39 -8.5l-4 -59q-19 7 -36.5 11t-40.5 4q-11 0 -20.5 -2.5t-17 -7t-12 -12.5t-4.5 -19
q0 -13 11 -22t28 -16.5t37 -16t37 -20.5t28 -30t12 -45q0 -28 -11.5 -47.5t-30 -32.5t-42.5 -19t-49 -6q-27 0 -52 4.5t-46 10.5zM172 382h-63l-69 96h54l46 -60l45 60h53z" />
    <glyph glyph-name="Ydieresis" unicode="&#x178;" horiz-adv-x="414" 
d="M168 186l-160 275h92l109 -199l111 199h85l-158 -276v-185h-79v186zM236 576h68v-72h-68v72zM110 576h68v-72h-68v72z" />
    <glyph glyph-name="Zcaron" unicode="&#x17d;" horiz-adv-x="350" 
d="M22 67l212 329h-205v65h293v-67l-215 -330h219v-64h-304v67zM207 486h-63l-68 96h53l46 -60l45 60h53z" />
    <glyph glyph-name="zcaron" unicode="&#x17e;" horiz-adv-x="307" 
d="M22 64l172 215h-165v60h251v-64l-169 -215h174v-60h-263v64zM186 382h-64l-67 96h52l47 -60l46 60h52z" />
    <glyph glyph-name="florin" unicode="&#x192;" horiz-adv-x="359" 
d="M297 175h-76l-32 -177q-4 -24 -11 -49.5t-20.5 -46.5t-34 -34.5t-52.5 -13.5q-15 0 -30.5 1.5t-28.5 5.5l11 58q8 -3 16 -4t16 -1q15 0 24 6.5t14.5 17t8.5 24t6 27.5l36 186h-72l8 49h72l17 81q5 26 13.5 47.5t22.5 36.5t34 23.5t50 8.5q14 0 27 -2t25 -5l-10 -60
q-7 3 -16 5.5t-20 2.5q-12 0 -20 -4.5t-14 -13t-9.5 -20.5t-6.5 -27l-15 -73h74z" />
    <glyph glyph-name="circumflex" unicode="&#x2c6;" horiz-adv-x="167" 
d="M52 479h65l65 -96h-53l-46 59l-46 -59h-52z" />
    <glyph glyph-name="caron" unicode="&#x2c7;" horiz-adv-x="167" 
d="M116 383h-64l-67 96h52l46 -60l46 60h53z" />
    <glyph glyph-name="breve" unicode="&#x2d8;" horiz-adv-x="167" 
d="M22 475q4 -22 20 -35.5t40 -13.5q25 0 41 13.5t22 35.5h35q-1 -18 -8 -34.5t-19 -29.5t-30 -21t-41 -8t-40.5 8t-29.5 21t-18.5 29.5t-7.5 34.5h36z" />
    <glyph glyph-name="dotaccent" unicode="&#x2d9;" horiz-adv-x="167" 
d="M49 472h68v-71h-68v71z" />
    <glyph glyph-name="ring" unicode="&#x2da;" horiz-adv-x="167" 
d="M15 444q0 14 5.5 26.5t14.5 22t21.5 15t26.5 5.5t26.5 -5.5t22 -15t15 -22t5.5 -26.5q0 -15 -5.5 -27t-15 -21.5t-22 -14.5t-26.5 -5t-26.5 5t-21.5 14.5t-14.5 21.5t-5.5 27zM47 444q0 -15 10.5 -25t25.5 -10q16 0 26.5 10t10.5 25q0 16 -10.5 26.5t-26.5 10.5
q-15 0 -25.5 -10.5t-10.5 -26.5z" />
    <glyph glyph-name="ogonek" unicode="&#x2db;" horiz-adv-x="167" 
d="M177 -104q-12 -19 -28 -30t-44 -11q-13 0 -25 3.5t-20.5 11t-13.5 18.5t-5 26t7.5 28t18.5 23.5t24 19t25 15.5h30q-24 -19 -38.5 -39t-14.5 -42q0 -15 7.5 -23t22.5 -8q10 0 19.5 5t15.5 12z" />
    <glyph glyph-name="tilde" unicode="&#x2dc;" horiz-adv-x="167" 
d="M-24 395q0 12 4.5 25t12.5 24t19.5 18.5t26.5 7.5q12 0 23.5 -4t22.5 -8.5t22 -8.5t22 -4q13 0 19.5 8.5t6.5 20.5h36q-1 -15 -5 -28.5t-12 -24t-19.5 -16.5t-25.5 -6q-15 0 -27.5 3.5t-23.5 8t-20.5 8t-18.5 3.5q-15 0 -21.5 -8.5t-7.5 -18.5h-34z" />
    <glyph glyph-name="hungarumlaut" unicode="&#x2dd;" horiz-adv-x="167" 
d="M137 479h79l-83 -96h-49zM16 479h78l-82 -97h-50z" />
    <glyph glyph-name="pi" unicode="&#x3c0;" horiz-adv-x="388" 
d="M373 9q-15 -7 -28.5 -10.5t-29.5 -3.5q-22 0 -35.5 6.5t-21 18t-10 27t-2.5 34.5v165h-127v-246h-73v246h-45v69h370v-69h-52v-148q0 -7 0.5 -14.5t2.5 -13.5t7 -10t15 -4q7 0 14 2.5t15 5.5v-55v0z" />
    <glyph glyph-name="uni066D" unicode="&#x66d;" horiz-adv-x="560" 
d="M332 267h178l-142 -108l50 -165l-138 102l-143 -102l55 167l-142 106h176l54 167z" />
    <glyph glyph-name="uni0E01" unicode="&#xe01;" horiz-adv-x="410" 
d="M369 0h-77v266q0 17 -7.5 32.5t-20 27t-30 18t-38.5 6.5q-26 0 -46.5 -4.5t-45.5 -15.5v-4q7 -2 18 -5t22.5 -6t23 -6.5t20.5 -6.5v-53q-30 -4 -40.5 -16.5t-10.5 -33.5v-199h-77v189q0 27 6.5 46.5t20.5 25.5q-5 2 -13.5 5t-18 6l-19 6t-16.5 4v69q36 34 81.5 52
t99.5 18q39 0 70 -11.5t53 -32t33.5 -47.5t11.5 -59v-271z" />
    <glyph glyph-name="uni0E02" unicode="&#xe02;" horiz-adv-x="440" 
d="M297 67q15 0 20 5t5 23v314h77v-348q0 -30 -14.5 -45.5t-36.5 -15.5h-247v67h61v142q13 7 23 15.5t18 18.5q14 20 14 45q0 13 -4.5 25t-13 21t-21 14.5t-27.5 5.5q-9 0 -17.5 -2.5t-13.5 -6.5l1 -4q10 -1 19 -6.5t16 -15t11.5 -21t4.5 -22.5q0 -17 -7 -31t-18 -24
t-25 -15.5t-28 -5.5q-15 0 -29.5 6t-25.5 17t-18 27t-7 35q0 27 12 51.5t32.5 43.5t45.5 30t52 11q28 0 52 -10t42 -27.5t28 -41t10 -50.5q0 -19 -4.5 -36t-11 -31t-15.5 -25.5t-18 -17.5v-115h58zM70 276q0 -11 7 -18t18 -7q10 0 17.5 7t7.5 18q0 10 -7.5 17.5t-17.5 7.5
q-11 0 -18 -7.5t-7 -17.5z" />
    <glyph glyph-name="uni0E03" unicode="&#xe03;" horiz-adv-x="463" 
d="M422 61q0 -30 -14.5 -45.5t-36.5 -15.5h-247v67h61v142q26 13 40.5 33.5t14.5 45.5q0 21 -10 35t-23 24q-9 -6 -18.5 -12.5t-13.5 -12.5q-9 8 -20.5 15.5t-19.5 12.5q-11 -4 -21 -13t-15 -20q18 0 32 -7.5t23 -18t13.5 -23t4.5 -23.5q0 -17 -7 -31t-18 -24t-25 -15.5
t-28 -5.5q-15 0 -29.5 6t-25.5 17t-18 27t-7 35q0 30 8.5 57.5t24.5 50t37.5 38t48.5 21.5q4 -2 10 -4.5t11.5 -5.5t10.5 -6t9 -5q7 4 18 9.5t24 11.5q23 -7 40.5 -21t29.5 -31.5t18.5 -37.5t6.5 -39t-4.5 -36t-11 -31t-15.5 -25.5t-18 -17.5v-115h58q15 0 20 5t5 23v314h77
v-348zM70 245q0 -11 7 -18t18 -7q10 0 17.5 7t7.5 18q0 10 -7.5 17.5t-17.5 7.5q-11 0 -18 -7.5t-7 -17.5z" />
    <glyph glyph-name="uni0E04" unicode="&#xe04;" horiz-adv-x="449" 
d="M83 26q0 3 -2 12t-6 22.5t-9.5 30t-11.5 35.5q-6 14 -11 30t-9 32t-6.5 31t-2.5 27q0 41 15.5 73.5t42.5 55t63 34.5t78 12q41 0 75 -11t58 -32.5t37.5 -55.5t13.5 -79v-243h-77v244q0 51 -30 78.5t-81 27.5q-29 0 -52 -10t-39 -26t-24.5 -36t-8.5 -40q0 -9 1.5 -20
t4 -22t5 -21.5t5.5 -18.5h4q1 6 3 16.5t5 22.5t6 24.5t6 22.5q5 16 13.5 28t19.5 20t23 12t25 4t28.5 -5.5t28.5 -16.5t21.5 -27.5t8.5 -38.5q0 -15 -6 -30t-17.5 -27t-28 -19t-36.5 -7q-9 0 -16.5 1.5t-14.5 4.5q-4 -10 -8 -25.5t-8 -32t-6.5 -31.5t-2.5 -23v-29h-77v26z
M190 219q0 -12 8.5 -20.5t20.5 -8.5t20.5 8.5t8.5 20.5t-8.5 20.5t-20.5 8.5t-20.5 -8.5t-8.5 -20.5z" />
    <glyph glyph-name="uni0E05" unicode="&#xe05;" horiz-adv-x="457" 
d="M339 245q0 27 -3 45.5t-9 30t-14.5 17.5t-19.5 9q-12 -3 -30.5 -13t-36.5 -23q-16 8 -37 18t-41 18q-10 -4 -19.5 -13t-16.5 -21t-11.5 -27.5t-4.5 -32.5q0 -10 2 -24.5t5.5 -30t6.5 -29.5t6 -22h3q1 6 3.5 16.5t5.5 22.5t6 24.5t6 22.5q5 16 13.5 28t19.5 20t23 12t25 4
t28 -5.5t27.5 -16.5t20.5 -27.5t8 -38.5q0 -15 -6 -29.5t-16.5 -26t-26.5 -18t-36 -6.5q-16 0 -31 6q-4 -11 -8 -25.5t-8 -29.5t-6.5 -28.5t-2.5 -21.5v-30h-77v26q0 7 -8 29.5t-22 60.5q-6 14 -12 33t-10.5 38.5t-7 38.5t-2.5 34q0 33 9 60.5t26 48.5t40.5 34.5t52.5 17.5
q7 -3 16.5 -7.5t19.5 -9.5l19 -9.5l15 -7.5q8 3 17.5 8t19 9.5t17.5 9t14 7.5q32 -4 56 -14t39 -30.5t22.5 -53t7.5 -80.5v-243h-77v245zM191 213q0 -12 8.5 -20.5t20.5 -8.5t20.5 8.5t8.5 20.5t-8.5 20.5t-20.5 8.5t-20.5 -8.5t-8.5 -20.5z" />
    <glyph glyph-name="uni0E06" unicode="&#xe06;" horiz-adv-x="497" 
d="M379 409h77v-409h-76q-19 22 -49 48.5t-62 50.5v-24q0 -23 -7 -39.5t-19 -27t-27.5 -15.5t-33.5 -5t-34.5 5.5t-29 17t-20.5 28t-8 38.5q0 21 9.5 40t25 34.5t35 26t38.5 14.5v38q8 4 15.5 11.5t13.5 16.5t9.5 19t3.5 20q0 8 -3.5 16t-8.5 15t-11 12t-10 7
q-9 -6 -18.5 -12.5t-13.5 -12.5q-9 8 -20.5 15.5t-19.5 12.5q-11 -4 -21 -13t-15 -20q18 0 32 -7.5t23 -18t13.5 -23t4.5 -23.5q0 -17 -7 -31t-18 -24t-25 -15.5t-28 -5.5q-15 0 -29.5 6t-25.5 17t-18 27t-7 35q0 30 8.5 57.5t24.5 50t37.5 38t48.5 21.5q4 -2 10 -4.5
t11.5 -5.5t10.5 -6t9 -5q7 4 18 9.5t24 11.5q23 -7 40.5 -21t29.5 -31.5t18.5 -37.5t6.5 -39q0 -25 -11.5 -46.5t-30.5 -38.5v-21q12 -7 27.5 -17t30.5 -21.5t28.5 -24t21.5 -24.5h2v310zM70 245q0 -11 7 -18t18 -7q10 0 17.5 7t7.5 18q0 10 -7.5 17.5t-17.5 7.5
q-11 0 -18 -7.5t-7 -17.5zM198 121q-24 -4 -35.5 -17.5t-11.5 -26.5q0 -15 7.5 -23t16.5 -8t16 7.5t7 19.5v48z" />
    <glyph glyph-name="uni0E07" unicode="&#xe07;" horiz-adv-x="335" 
d="M68 239l135 -153q6 -9 10 -9t4 14v148q-4 -1 -9 -1.5t-9 -0.5q-20 0 -35.5 7t-26.5 19.5t-17 28t-6 33.5t7 34.5t19 29t28.5 19.5t35.5 7q18 0 34.5 -7t29 -19.5t19.5 -29t7 -34.5v-260q0 -15 -3.5 -26.5t-9.5 -20.5t-13 -13.5t-13 -4.5h-72l-173 188zM233 324
q0 12 -8.5 20.5t-20.5 8.5t-20.5 -8.5t-8.5 -20.5t8.5 -20.5t20.5 -8.5t20.5 8.5t8.5 20.5z" />
    <glyph glyph-name="uni0E08" unicode="&#xe08;" horiz-adv-x="393" 
d="M179 115q-17 -6 -34 -6q-19 0 -35.5 7t-29 18.5t-19.5 27t-7 33.5q0 19 7 36t19.5 29.5t28.5 19.5t34 7t33 -7t26.5 -18.5t19.5 -27.5t12 -34q1 -3 3 -12.5t5 -21t6.5 -25t6.5 -25t5 -20t3 -10.5q2 -9 4 -12t4 -3t3 2t1 9v196q0 15 -6 28t-16.5 22.5t-26 15.5t-34.5 6
q-34 0 -59 -13.5t-47 -43.5l-72 24q15 27 33.5 46.5t40 32.5t48 19t59.5 6q40 0 69.5 -12t49 -32.5t29 -48t9.5 -57.5v-207q0 -15 -4 -26.5t-10 -20t-13 -13t-14 -4.5h-95zM173 196q0 12 -8.5 20.5t-20.5 8.5t-20.5 -8.5t-8.5 -20.5t8.5 -20.5t20.5 -8.5t20.5 8.5t8.5 20.5z
" />
    <glyph glyph-name="uni0E09" unicode="&#xe09;" horiz-adv-x="493" 
d="M376 208q20 -1 39.5 -10.5t34.5 -26t24.5 -39t9.5 -48.5q0 -22 -8.5 -39.5t-22 -30t-30.5 -19.5t-35 -7q-22 0 -38.5 7.5t-27 21t-16 31t-5.5 36.5v29q-10 -7 -23.5 -19.5t-27.5 -28.5t-26.5 -33t-21.5 -32h-74v112q-4 -1 -9 -1.5t-9 -0.5q-20 0 -35.5 7t-26.5 19.5
t-17 28t-6 33.5t7 34.5t19 29t28.5 19.5t35.5 7q18 0 34.5 -7t29 -19.5t19.5 -29t7 -34.5v-83h6q4 8 15.5 20.5t24.5 24.5t26 22.5t22 16.5v79q0 15 -6 28t-16.5 22.5t-26 15.5t-34.5 6q-31 0 -54 -11t-41 -32l-70 37q31 40 72 58.5t96 18.5q40 0 69.5 -12t49 -32.5t29 -48
t9.5 -57.5v-63zM144 197q0 12 -8.5 20.5t-20.5 8.5t-20.5 -8.5t-8.5 -20.5t8.5 -20.5t20.5 -8.5t20.5 8.5t8.5 20.5zM375 84q0 -6 1 -12t4 -11t7 -8t11 -3q6 0 11 3t8 8.5t4.5 11t1.5 11.5q0 5 -2.5 13t-8 15.5t-14.5 13t-23 5.5v-47z" />
    <glyph glyph-name="uni0E0A" unicode="&#xe0a;" horiz-adv-x="440" 
d="M162 209q26 13 40.5 33.5t14.5 45.5q0 13 -4.5 25t-13 21t-21 14.5t-27.5 5.5q-9 0 -17.5 -2.5t-13.5 -6.5l1 -4q10 -1 19 -6.5t16 -15t11.5 -21t4.5 -22.5q0 -17 -7 -31t-18 -24t-25 -15.5t-28 -5.5q-15 0 -29.5 6t-25.5 17t-18 27t-7 35q0 27 12 51.5t32.5 43.5
t45.5 30t52 11q18 0 34 -4.5t29 -10.5t23 -14t16 -14q20 4 35 12.5t25.5 19.5t16.5 23.5t9 25.5h79q-5 -22 -11.5 -38.5t-15.5 -29.5t-21 -24t-28 -20q24 -15 38 -41.5t14 -62.5v-182q0 -30 -14.5 -45.5t-36.5 -15.5h-247v67h61v142zM70 276q0 -11 7 -18t18 -7q10 0 17.5 7
t7.5 18q0 10 -7.5 17.5t-17.5 7.5q-11 0 -18 -7.5t-7 -17.5zM239 67h58q15 0 20 5t5 23v158q0 23 -9.5 35.5t-26.5 18.5q1 -6 1.5 -12t0.5 -9q0 -16 -3.5 -31t-10 -29t-15.5 -25.5t-20 -18.5v-115z" />
    <glyph glyph-name="uni0E0B" unicode="&#xe0b;" horiz-adv-x="463" 
d="M124 0v67h61v142q26 13 40.5 33.5t14.5 45.5q0 21 -10 35t-23 24q-9 -6 -18.5 -12.5t-13.5 -12.5q-9 8 -20.5 15.5t-19.5 12.5q-11 -4 -21 -13t-15 -20q18 0 32 -7.5t23 -18t13.5 -23t4.5 -23.5q0 -17 -7 -31t-18 -24t-25 -15.5t-28 -5.5q-15 0 -29.5 6t-25.5 17t-18 27
t-7 35q0 30 8.5 57.5t24.5 50t37.5 38t48.5 21.5q4 -2 10 -4.5t11.5 -5.5t10.5 -6t9 -5q7 4 18 9.5t24 11.5q19 -6 35.5 -18t29.5 -25q20 4 35 12.5t25.5 19.5t16.5 23.5t9 25.5h79q-5 -22 -11.5 -38.5t-15.5 -29.5t-21 -24t-28 -20q24 -15 38 -41.5t14 -62.5v-182
q0 -30 -14.5 -45.5t-36.5 -15.5h-247zM70 245q0 -11 7 -18t18 -7q10 0 17.5 7t7.5 18q0 10 -7.5 17.5t-17.5 7.5q-11 0 -18 -7.5t-7 -17.5zM262 67h58q15 0 20 5t5 23v158q0 23 -9.5 35.5t-26.5 18.5q1 -6 1.5 -12t0.5 -9q0 -16 -3.5 -31t-10 -29t-15.5 -25.5t-20 -18.5
v-115z" />
    <glyph glyph-name="uni0E0C" unicode="&#xe0c;" horiz-adv-x="587" 
d="M546 0h-64q-9 15 -22 32t-26.5 33t-27 28.5t-23.5 19.5v-29q0 -19 -5.5 -36.5t-16.5 -31t-27.5 -21t-37.5 -7.5q-24 0 -42.5 8.5t-33.5 23.5q-3 -5 -9.5 -10.5t-16 -10.5t-21 -8t-23.5 -3q-19 0 -35.5 7t-28.5 19t-19 28.5t-7 35.5v111q0 27 6.5 46.5t20.5 25.5
q-5 2 -13.5 5t-18 6l-19 6t-16.5 4v69q36 34 82.5 52t106.5 18q42 0 75 -11.5t55.5 -32t34 -47.5t11.5 -59v-74q9 -5 21 -14.5t24 -20t22 -21.5t15 -19h2v287h77v-409zM121 79q0 -12 8.5 -20.5t20.5 -8.5t20.5 8.5t8.5 20.5t-8.5 20.5t-20.5 8.5t-20.5 -8.5t-8.5 -20.5z
M308 266q0 17 -7.5 32.5t-21 27t-32.5 18t-43 6.5q-16 0 -29 -1t-24.5 -3.5t-23 -6.5t-23.5 -9v-4q7 -2 18 -5t22.5 -6t23 -6.5t20.5 -6.5v-53q-30 -4 -40.5 -16.5t-10.5 -33.5v-35q4 1 8.5 1.5t9.5 0.5q7 0 15.5 -2t17 -5.5t16.5 -8t14 -10.5q5 9 13 18t19.5 17.5
t25.5 14.5t32 10v66zM311 125q-26 -5 -38.5 -17.5t-12.5 -26.5t7.5 -22.5t20.5 -8.5q10 0 16.5 8.5t6.5 26.5v40z" />
    <glyph glyph-name="uni0E0D" unicode="&#xe0d;" horiz-adv-x="592" 
d="M333 -137q12 0 20.5 8t8.5 20t-8.5 20t-20.5 8t-20 -8t-8 -20t8 -20t20 -8zM450 67q14 0 19 5t5 23v314h77v-348q0 -30 -14.5 -45.5t-36.5 -15.5h-236v67h35v199q0 14 -6 29t-18 27t-32 20t-47 8q-26 0 -46.5 -4.5t-45.5 -15.5v-4q7 -2 18 -5t22.5 -6t23 -6.5t20.5 -6.5
v-53q-30 -4 -40.5 -16.5t-10.5 -33.5v-35q4 1 8.5 1.5t9.5 0.5q19 0 35 -7.5t27 -19.5t17 -28t6 -33q0 -19 -7 -35.5t-19.5 -28.5t-29 -19t-34.5 -7q-19 0 -35.5 7t-28.5 19t-19 28.5t-7 35.5v111q0 27 6.5 46.5t20.5 25.5q-5 2 -13.5 5t-18 6l-19 6t-16.5 4v69
q36 34 81.5 52t99.5 18q46 0 79 -13t54.5 -34t31.5 -48t10 -55v-204h74zM545 -50q-2 -13 -6.5 -29t-12.5 -32.5t-21 -32t-32 -28t-44.5 -20t-59.5 -7.5q-28 0 -49.5 7.5t-35.5 20.5t-21.5 29t-7.5 33q0 11 4.5 24.5t14 25.5t24 20.5t34.5 8.5q14 0 28.5 -5t25.5 -15
t18.5 -24.5t7.5 -33.5q0 -6 -1.5 -14.5t-4.5 -14.5q14 2 27 10.5t23 21t17 28.5t11 35zM121 79q0 -12 8.5 -20.5t20.5 -8.5t20.5 8.5t8.5 20.5t-8.5 20.5t-20.5 8.5t-20.5 -8.5t-8.5 -20.5z" />
    <glyph glyph-name="uni0E0E" unicode="&#xe0e;" horiz-adv-x="449" 
d="M330 -185q-8 6 -19 14.5t-23 17t-23 16t-19 10.5q-8 -15 -20 -27t-27 -20t-31 -12.5t-30 -4.5q-22 0 -40 6t-30 16.5t-18.5 25.5t-6.5 33t9 34t24 27.5t34 18.5t39 7q6 0 14 -1.5t16.5 -3.5t16.5 -4t14 -4q5 13 8.5 27t4.5 25l61 -12q0 -17 -3 -34t-9 -33q7 -4 16 -10
t17.5 -12.5t15 -13t10.5 -9.5v374q0 17 -7.5 32.5t-20 27t-30 18t-38.5 6.5q-15 0 -27 -1.5t-23.5 -4t-22.5 -7t-24 -9.5v-4q11 -2 24 -5t26 -6.5t25 -7t22 -5.5v-52q-13 -2 -21 -5t-12.5 -8.5t-6 -15.5t-1.5 -25v-116q0 -19 -7 -35.5t-19.5 -28.5t-29 -19t-34.5 -7
q-19 0 -35.5 7t-28.5 19t-19 28.5t-7 35.5q0 17 6 33t17 28t26.5 19.5t35.5 7.5q4 0 9 -0.5t9 -1.5v48q0 11 4 24t11 19v7q-5 2 -14 4t-19 4.5t-20.5 4.5t-17.5 3v73q32 32 76.5 51t102.5 19q39 0 70 -11.5t53 -32t33.5 -47.5t11.5 -59v-456h-78zM75 79q0 -12 8.5 -20.5
t20.5 -8.5t20.5 8.5t8.5 20.5t-8.5 20.5t-20.5 8.5t-20.5 -8.5t-8.5 -20.5zM191 -94q-11 7 -22.5 10t-21.5 3q-5 0 -12.5 -2t-14 -5.5t-11.5 -9t-5 -11.5q0 -7 3.5 -12t9 -7.5t11.5 -3.5t11 -1q6 0 14.5 3.5t16 9.5t13.5 12.5t8 13.5z" />
    <glyph glyph-name="uni0E0F" unicode="&#xe0f;" horiz-adv-x="449" 
d="M333 -185l-46 43l-47 -43h-12l-36 37q-6 -9 -14.5 -16.5t-18 -13t-19.5 -8t-18 -2.5q-18 0 -32.5 5.5t-25.5 16t-17 25t-6 31.5t5.5 31t15.5 24t24 16t31 6q5 0 12.5 -2.5t15 -5.5t13.5 -6l10 -5q3 7 6 21t3 29l56 -7q0 -6 -1.5 -16.5t-3.5 -22t-4.5 -22.5t-5.5 -18
l24 -21l43 40l46 -42v377q0 17 -7.5 32.5t-20 27t-30 18t-38.5 6.5q-15 0 -27 -1.5t-23.5 -4t-22.5 -7t-24 -9.5v-4q11 -2 24 -5t26 -6.5t25 -7t22 -5.5v-52q-13 -2 -21 -5t-12.5 -8.5t-6 -15.5t-1.5 -25v-116q0 -19 -7 -35.5t-19.5 -28.5t-29 -19t-34.5 -7q-19 0 -35.5 7
t-28.5 19t-19 28.5t-7 35.5q0 17 6 33t17 28t26.5 19.5t35.5 7.5q4 0 9 -0.5t9 -1.5v48q0 11 4 24t11 19v7q-5 2 -14 4t-19 4.5t-20.5 4.5t-17.5 3v73q32 32 76.5 51t102.5 19q39 0 70 -11.5t53 -32t33.5 -47.5t11.5 -59v-456h-75zM152 -104q-8 7 -16 13.5t-17 6.5
q-14 0 -22.5 -8.5t-8.5 -18.5q0 -9 7.5 -17.5t18.5 -8.5q12 0 22 7.5t16 25.5zM75 79q0 -12 8.5 -20.5t20.5 -8.5t20.5 8.5t8.5 20.5t-8.5 20.5t-20.5 8.5t-20.5 -8.5t-8.5 -20.5z" />
    <glyph glyph-name="uni0E10" unicode="&#xe10;" horiz-adv-x="379" 
d="M173 -101q0 -7 -1 -17.5t-2.5 -22.5t-4 -23t-5.5 -18l26 -25l37 32l40 -33h10v51q-9 -3 -22.5 0t-26 11t-21 22t-8.5 34q0 13 5.5 24.5t14.5 20t21.5 13.5t27.5 5q13 0 25.5 -5.5t22 -14.5t15 -21.5t5.5 -27.5v-122q0 -27 -17 -44t-48 -17l-43 32l-42 -32h-11l-36 37
q-12 -18 -30.5 -27.5t-35.5 -9.5q-15 0 -28.5 5t-24 14.5t-16.5 23.5t-6 33q0 15 5.5 28.5t15.5 22.5t22.5 14.5t26.5 5.5q11 0 25 -4.5t21 -8.5q4 7 5.5 22t1.5 29zM285 -92q0 10 -7 16.5t-16 6.5q-10 0 -17 -6.5t-7 -16.5t7 -16.5t17 -6.5q9 0 16 6.5t7 16.5zM97 -197
q-8 7 -16.5 11.5t-18.5 4.5q-12 0 -18.5 -8t-6.5 -18q0 -9 7 -16t17 -7q15 0 24.5 9.5t11.5 23.5zM332 64q0 -13 -3.5 -24.5t-9 -20.5t-13 -14t-14.5 -5h-92l-26 71q-9 -3 -20.5 -5.5t-19.5 -2.5q-20 0 -36.5 7t-28 18.5t-17.5 26.5t-6 30q0 20 6.5 36.5t18.5 28.5t28.5 19
t37.5 7q11 0 23.5 -4t23.5 -13t20.5 -23.5t15.5 -35.5l22 -74q3 -9 6 -12t5 -3q3 0 5.5 3t2.5 10v87q0 47 -31 69t-93 22h-112v64q28 54 65.5 83t84.5 29q14 0 34.5 -4.5t40.5 -10t37.5 -10t25.5 -4.5q6 0 16.5 1.5t17.5 4.5l12 -67q-9 -6 -19.5 -8t-21.5 -2
q-13 0 -29.5 4.5t-34.5 10t-35.5 10t-32.5 4.5q-24 0 -43.5 -8.5t-33.5 -25.5h14t21.5 -0.5t22.5 -1t17 -0.5q41 -5 69.5 -17.5t46 -33.5t25 -49.5t7.5 -65.5v-101zM134 121q11 0 19 7.5t8 19.5q0 11 -8 18.5t-19 7.5q-12 0 -19.5 -7.5t-7.5 -18.5q0 -12 7.5 -19.5
t19.5 -7.5z" />
    <glyph glyph-name="uni0E11" unicode="&#xe11;" horiz-adv-x="502" 
d="M187 184q15 23 25 38t15.5 26.5t7.5 19.5t2 17q0 20 -9 36.5t-21 25.5q-9 -6 -18.5 -12.5t-13.5 -12.5q-9 8 -20.5 15.5t-19.5 12.5q-11 -4 -21 -13t-15 -20q18 0 32 -7.5t23 -18t13.5 -23t4.5 -23.5q0 -17 -7 -31t-18 -24t-25 -15.5t-28 -5.5q-15 0 -29.5 6t-25.5 17
t-18 27t-7 35q0 30 8.5 57.5t24.5 50t37.5 38t48.5 21.5q4 -2 10 -4.5t11.5 -5.5t10.5 -6t9 -5q7 4 18 9.5t24 11.5q33 -14 52 -37t27 -46l5 -1l54 72h55q8 0 17.5 -4.5t17 -13.5t12.5 -23t5 -34v-334h-77v319q0 9 -3 9q-2 0 -4 -2t-3 -4l-101 -141q-6 -9 -7.5 -19.5
t-1.5 -17.5v-144h-77v184zM70 245q0 -11 7 -18t18 -7q10 0 17.5 7t7.5 18q0 10 -7.5 17.5t-17.5 7.5q-11 0 -18 -7.5t-7 -17.5z" />
    <glyph glyph-name="uni0E12" unicode="&#xe12;" horiz-adv-x="633" 
d="M592 0h-70q-10 13 -21.5 27t-23.5 27.5t-24 25t-23 20.5v-25q0 -23 -7 -39.5t-19 -27t-27.5 -15.5t-33.5 -5t-34.5 5.5t-29 17t-20.5 28t-8 38.5q0 7 1 15.5t6 20.5l-2 2q-26 -34 -46.5 -63.5t-33.5 -51.5h-89v26q0 7 -8 29.5t-22 60.5q-6 14 -12 33t-10.5 38.5t-7 38.5
t-2.5 34q0 33 9 60.5t26 48.5t40.5 34.5t52.5 17.5q7 -3 16.5 -7.5t19.5 -9.5l19 -9.5l15 -7.5q22 9 42 18.5t41 15.5q26 -5 49 -15.5t39.5 -27.5t26 -42t9.5 -59v-93q27 -17 46 -35t37 -43h2v303h77v-409zM195 213q0 -12 8.5 -20.5t20.5 -8.5t20.5 8.5t8.5 20.5t-8.5 20.5
t-20.5 8.5t-20.5 -8.5t-8.5 -20.5zM353 279q0 25 -13.5 40.5t-40.5 27.5q-16 -6 -35.5 -16.5t-37.5 -19.5q-16 8 -37 18t-41 18q-10 -4 -19.5 -13t-16.5 -21t-11.5 -27.5t-4.5 -32.5t6 -42.5t13.5 -51.5t15 -47.5t10.5 -30.5h7q5 11 17 27t24 28q-8 4 -16.5 10.5t-16 16
t-12.5 22t-5 29.5t7 32t19 26t27.5 18t32.5 7t32 -7t26.5 -18t18.5 -25t7 -28q0 -17 -6 -32.5t-13 -25.5l2 -2q11 11 28 18.5t33 10.5v91zM353 120q-10 -2 -17.5 -6.5t-12.5 -10.5t-8 -13t-3 -13q0 -15 7.5 -23t16.5 -8t13 7.5t4 19.5v47z" />
    <glyph glyph-name="uni0E13" unicode="&#xe13;" horiz-adv-x="657" 
d="M369 115h6q4 8 15.5 20.5t24.5 24.5t26 22.5t22 16.5v210h77v-201q20 -1 39.5 -10.5t34.5 -26t24.5 -39t9.5 -48.5q0 -22 -8.5 -39.5t-22 -30t-30.5 -19.5t-35 -7q-22 0 -38.5 7.5t-27 21t-16 31t-5.5 36.5v29q-10 -7 -23.5 -19.5t-27.5 -28.5t-26.5 -33t-21.5 -32h-74
v266q0 17 -7.5 32.5t-20 27t-30 18t-38.5 6.5q-26 0 -46.5 -4.5t-45.5 -15.5v-4q7 -2 18 -5t22.5 -6t23 -6.5t20.5 -6.5v-53q-30 -4 -40.5 -16.5t-10.5 -33.5v-35q4 1 8.5 1.5t9.5 0.5q19 0 35 -7.5t27 -19.5t17 -28t6 -33q0 -19 -7 -35.5t-19.5 -28.5t-29 -19t-34.5 -7
q-19 0 -35.5 7t-28.5 19t-19 28.5t-7 35.5v111q0 27 6.5 46.5t20.5 25.5q-5 2 -13.5 5t-18 6l-19 6t-16.5 4v69q36 34 81.5 52t99.5 18q39 0 70 -11.5t53 -32t33.5 -47.5t11.5 -59v-156zM539 84q0 -6 1 -12t4 -11t7 -8t11 -3q6 0 11 3t8 8.5t4.5 11t1.5 11.5q0 5 -2.5 13
t-8 15.5t-14.5 13t-23 5.5v-47zM121 79q0 -12 8.5 -20.5t20.5 -8.5t20.5 8.5t8.5 20.5t-8.5 20.5t-20.5 8.5t-20.5 -8.5t-8.5 -20.5z" />
    <glyph glyph-name="uni0E14" unicode="&#xe14;" horiz-adv-x="453" 
d="M87 0q-1 5 -4 17t-7.5 25.5t-9.5 27.5t-8 24q-4 9 -9.5 24.5t-10.5 34.5t-9 40t-4 43q0 43 13.5 77t39.5 58t63.5 37t86.5 13q41 0 75 -11t58 -32.5t37.5 -55.5t13.5 -79v-243h-77v244q0 51 -30 78.5t-81 27.5q-30 0 -53.5 -9t-40 -24.5t-25.5 -36.5t-9 -44
q0 -13 5 -35.5t12 -46t14 -44t10 -29.5h6q3 6 8 14t10.5 17t11.5 17.5t12 16.5q-8 4 -17 10.5t-16.5 16t-12.5 22.5t-5 30q0 16 7 31t19 26t28 18t33 7q16 0 31 -7t26.5 -18t18.5 -25t7 -28q0 -6 -1.5 -14.5t-4 -17.5t-6 -18t-8.5 -16q-10 -15 -26.5 -38t-33 -47t-31 -45
t-21.5 -33h-85zM220 194q12 0 20 8.5t8 20.5q0 13 -8 21t-20 8t-21 -8t-9 -21q0 -12 9 -20.5t21 -8.5z" />
    <glyph glyph-name="uni0E15" unicode="&#xe15;" horiz-adv-x="457" 
d="M416 0h-77v245q0 27 -3 45.5t-9 30t-14.5 17.5t-19.5 9q-12 -3 -30.5 -13t-36.5 -23q-16 8 -37 18t-41 18q-10 -4 -19.5 -13t-16.5 -21t-11.5 -27.5t-4.5 -32.5t6 -42.5t13.5 -51.5t15 -47.5t10.5 -30.5h7q5 11 17 27t24 28q-8 4 -16.5 10.5t-16 16t-12.5 22t-5 29.5
t7 32t19 26t27.5 18t32.5 7t32 -7t26.5 -18t18.5 -25t7 -28q0 -19 -6 -36.5t-15 -29.5q-17 -22 -36 -47t-35.5 -47t-28 -38t-12.5 -21h-89v26q0 7 -8 29.5t-22 60.5q-6 14 -12 33t-10.5 38.5t-7 38.5t-2.5 34q0 33 9 60.5t26 48.5t40.5 34.5t52.5 17.5q7 -3 16.5 -7.5
t19.5 -9.5l19 -9.5l15 -7.5q8 3 17.5 8t19 9.5t17.5 9t14 7.5q32 -4 56 -14t39 -30.5t22.5 -53t7.5 -80.5v-243zM195 213q0 -12 8.5 -20.5t20.5 -8.5t20.5 8.5t8.5 20.5t-8.5 20.5t-20.5 8.5t-20.5 -8.5t-8.5 -20.5z" />
    <glyph glyph-name="uni0E16" unicode="&#xe16;" horiz-adv-x="410" 
d="M292 266q0 17 -7.5 32.5t-20 27t-30 18t-38.5 6.5q-26 0 -46.5 -4.5t-45.5 -15.5v-4q7 -2 18 -5t22.5 -6t23 -6.5t20.5 -6.5v-53q-30 -4 -40.5 -16.5t-10.5 -33.5v-35q4 1 8.5 1.5t9.5 0.5q19 0 35 -7.5t27 -19.5t17 -28t6 -33q0 -19 -7 -35.5t-19.5 -28.5t-29 -19
t-34.5 -7q-19 0 -35.5 7t-28.5 19t-19 28.5t-7 35.5v111q0 27 6.5 46.5t20.5 25.5q-5 2 -13.5 5t-18 6l-19 6t-16.5 4v69q36 34 81.5 52t99.5 18q39 0 70 -11.5t53 -32t33.5 -47.5t11.5 -59v-271h-77v266zM121 79q0 -12 8.5 -20.5t20.5 -8.5t20.5 8.5t8.5 20.5t-8.5 20.5
t-20.5 8.5t-20.5 -8.5t-8.5 -20.5z" />
    <glyph glyph-name="uni0E17" unicode="&#xe17;" horiz-adv-x="448" 
d="M407 0h-77v319q0 9 -3 9t-6 -6l-119 -173q-6 -9 -7 -19t-1 -18v-112h-77v239q-4 -1 -9 -1.5t-9 -0.5q-20 0 -35.5 7t-26.5 19.5t-17 28t-6 33.5t7 34.5t19 29t28.5 19.5t35.5 7q18 0 34.5 -7t29 -19.5t19.5 -29t7 -34.5v-73h5q0 4 4 12t7 13l90 132h55q8 0 17.5 -4.5
t17 -13.5t12.5 -23t5 -34v-334zM133 324q0 12 -8.5 20.5t-20.5 8.5t-20.5 -8.5t-8.5 -20.5t8.5 -20.5t20.5 -8.5t20.5 8.5t8.5 20.5z" />
    <glyph glyph-name="uni0E18" unicode="&#xe18;" horiz-adv-x="379" 
d="M332 61q0 -30 -14.5 -45.5t-36.5 -15.5h-231v67h44v195h-69v64q28 54 65.5 83t84.5 29q14 0 34.5 -4.5t40.5 -10t37.5 -10t25.5 -4.5q6 0 16.5 1.5t17.5 4.5l12 -67q-9 -6 -19.5 -8t-21.5 -2q-13 0 -29.5 4.5t-34.5 10t-35.5 10t-32.5 4.5q-24 0 -43.5 -8.5t-33.5 -25.5
h14t21.5 -0.5t22.5 -1t17 -0.5q41 -5 69.5 -17.5t46 -33.5t25 -49.5t7.5 -65.5v-104zM165 67h75q7 0 11 1t6.5 4t3 8.5t0.5 14.5v99q0 9 -4.5 20t-15.5 21t-29.5 17t-46.5 7v-192z" />
    <glyph glyph-name="uni0E19" unicode="&#xe19;" horiz-adv-x="496" 
d="M379 409v-201q20 -1 39.5 -10.5t34.5 -26t24.5 -39t9.5 -48.5q0 -22 -8.5 -39.5t-22 -30t-30.5 -19.5t-35 -7q-22 0 -38.5 7.5t-27 21t-16 31t-5.5 36.5v29q-12 -7 -28 -20.5t-32 -30t-30.5 -33.5t-23.5 -29h-73v239q-4 -1 -9 -1.5t-9 -0.5q-20 0 -35.5 7t-26.5 19.5
t-17 28t-6 33.5t7 34.5t19 29t28.5 19.5t35.5 7q18 0 34.5 -7t29 -19.5t19.5 -29t7 -34.5v-213h6q5 7 15 18t23 23t29.5 24t34.5 22v210h77zM378 84q0 -6 1 -12t4 -11t7 -8t11 -3q6 0 11 3t8 8.5t4.5 11t1.5 11.5q0 5 -2.5 13t-8 15.5t-14.5 13t-23 5.5v-47zM133 324
q0 12 -8.5 20.5t-20.5 8.5t-20.5 -8.5t-8.5 -20.5t8.5 -20.5t20.5 -8.5t20.5 8.5t8.5 20.5z" />
    <glyph glyph-name="uni0E1A" unicode="&#xe1a;" horiz-adv-x="443" 
d="M194 67h106q15 0 20 5t5 23v314h77v-348q0 -30 -14.5 -45.5t-36.5 -15.5h-289v67h55v172q-4 -1 -9 -1.5t-9 -0.5q-20 0 -35.5 7t-26.5 19.5t-17 28t-6 33.5t7 34.5t19 29t28.5 19.5t35.5 7q18 0 34.5 -7t29 -19.5t19.5 -29t7 -34.5v-258zM133 324q0 12 -8.5 20.5
t-20.5 8.5t-20.5 -8.5t-8.5 -20.5t8.5 -20.5t20.5 -8.5t20.5 8.5t8.5 20.5z" />
    <glyph glyph-name="uni0E1B" unicode="&#xe1b;" horiz-adv-x="443" 
d="M194 67h106q15 0 20 5t5 23v491h77v-525q0 -30 -14.5 -45.5t-36.5 -15.5h-289v67h55v172q-4 -1 -9 -1.5t-9 -0.5q-20 0 -35.5 7t-26.5 19.5t-17 28t-6 33.5t7 34.5t19 29t28.5 19.5t35.5 7q18 0 34.5 -7t29 -19.5t19.5 -29t7 -34.5v-258zM133 324q0 12 -8.5 20.5
t-20.5 8.5t-20.5 -8.5t-8.5 -20.5t8.5 -20.5t20.5 -8.5t20.5 8.5t8.5 20.5z" />
    <glyph glyph-name="uni0E1C" unicode="&#xe1c;" horiz-adv-x="451" 
d="M410 409v-409h-82l-99 143l-107 -143h-78v331q0 18 7 34.5t19 29t28.5 19.5t35.5 7q18 0 34.5 -7t29 -19.5t19.5 -29t7 -34.5t-6 -33.5t-17 -28t-27 -19.5t-35 -7q-5 0 -9.5 0.5t-8.5 1.5v-130h3l95 128h31l79 -123h4v289h77zM105 330q0 -12 8.5 -20.5t20.5 -8.5
t20.5 8.5t8.5 20.5t-8.5 20.5t-20.5 8.5t-20.5 -8.5t-8.5 -20.5z" />
    <glyph glyph-name="uni0E1D" unicode="&#xe1d;" horiz-adv-x="451" 
d="M410 586v-586h-82l-99 143l-107 -143h-78v331q0 18 7 34.5t19 29t28.5 19.5t35.5 7q18 0 34.5 -7t29 -19.5t19.5 -29t7 -34.5t-6 -33.5t-17 -28t-27 -19.5t-35 -7q-5 0 -9.5 0.5t-8.5 1.5v-130h3l95 128h31l79 -123h4v466h77zM105 330q0 -12 8.5 -20.5t20.5 -8.5
t20.5 8.5t8.5 20.5t-8.5 20.5t-20.5 8.5t-20.5 -8.5t-8.5 -20.5z" />
    <glyph glyph-name="uni0E1E" unicode="&#xe1e;" horiz-adv-x="538" 
d="M117 239q-4 -1 -9 -1.5t-9 -0.5q-20 0 -35.5 7t-26.5 19.5t-17 28t-6 33.5t7 34.5t19 29t28.5 19.5t35.5 7q18 0 34.5 -7t29 -19.5t19.5 -29t7 -34.5v-175h4q5 15 13 37.5t17 47.5t19 51t19 48.5t16.5 40t11.5 25.5h31q3 -8 10 -25t15.5 -39t18.5 -47.5t19 -50.5
t16.5 -48t11.5 -40h4v259h77v-409h-88l-100 255l-100 -255h-92v239zM133 324q0 12 -8.5 20.5t-20.5 8.5t-20.5 -8.5t-8.5 -20.5t8.5 -20.5t20.5 -8.5t20.5 8.5t8.5 20.5z" />
    <glyph glyph-name="uni0E1F" unicode="&#xe1f;" horiz-adv-x="538" 
d="M117 239q-4 -1 -9 -1.5t-9 -0.5q-20 0 -35.5 7t-26.5 19.5t-17 28t-6 33.5t7 34.5t19 29t28.5 19.5t35.5 7q18 0 34.5 -7t29 -19.5t19.5 -29t7 -34.5v-175h4q5 15 13 37.5t17 47.5t19 51t19 48.5t16.5 40t11.5 25.5h31q3 -8 10 -25t15.5 -39t18.5 -47.5t19 -50.5
t16.5 -48t11.5 -40h4v436h77v-586h-88l-100 255l-100 -255h-92v239zM133 324q0 12 -8.5 20.5t-20.5 8.5t-20.5 -8.5t-8.5 -20.5t8.5 -20.5t20.5 -8.5t20.5 8.5t8.5 20.5z" />
    <glyph glyph-name="uni0E20" unicode="&#xe20;" horiz-adv-x="449" 
d="M61 351q32 32 76.5 51t102.5 19q39 0 70 -11.5t53 -32t33.5 -47.5t11.5 -59v-271h-77v266q0 17 -7.5 32.5t-20 27t-30 18t-38.5 6.5q-15 0 -27 -1.5t-23.5 -4t-22.5 -7t-24 -9.5v-4q11 -2 24 -5t26 -6.5t25 -7t22 -5.5v-52q-13 -2 -21 -5t-12.5 -8.5t-6 -15.5t-1.5 -25
v-116q0 -19 -7 -35.5t-19.5 -28.5t-29 -19t-34.5 -7q-19 0 -35.5 7t-28.5 19t-19 28.5t-7 35.5q0 17 6 33t17 28t26.5 19.5t35.5 7.5q4 0 9 -0.5t9 -1.5v48q0 11 4 24t11 19v7q-5 2 -14 4t-19 4.5t-20.5 4.5t-17.5 3v73zM133 79q0 12 -8.5 20.5t-20.5 8.5t-20.5 -8.5
t-8.5 -20.5t8.5 -20.5t20.5 -8.5t20.5 8.5t8.5 20.5z" />
    <glyph glyph-name="uni0E21" unicode="&#xe21;" horiz-adv-x="436" 
d="M323 0q-11 16 -26 33.5t-31 33t-31.5 27t-25.5 15.5v-31q0 -22 -7 -38.5t-19 -28t-28 -17.5t-34 -6q-21 0 -38.5 6.5t-30.5 19t-20 29t-7 37.5q0 25 9 45.5t24 35.5t34.5 25t39.5 14v39q-4 -1 -9 -1.5t-9 -0.5q-20 0 -35.5 7t-26.5 19.5t-17 28t-6 33.5t7 34.5t19 29
t28.5 19.5t35.5 7q18 0 34.5 -7t29 -19.5t19.5 -29t7 -34.5v-133q12 -5 28 -14.5t31 -21.5t28 -25t20 -25h2v303h77v-409h-72zM132 124q-24 -5 -35 -17.5t-11 -26.5t6.5 -22t18.5 -8q10 0 15.5 8t5.5 26v40zM148 324q0 12 -8.5 20.5t-20.5 8.5t-20.5 -8.5t-8.5 -20.5
t8.5 -20.5t20.5 -8.5t20.5 8.5t8.5 20.5z" />
    <glyph glyph-name="uni0E22" unicode="&#xe22;" horiz-adv-x="406" 
d="M95 0q-24 0 -35 20.5t-11 63.5q0 18 1.5 31.5t6 24.5t11.5 20.5t18 18.5q-22 14 -32 42.5t-10 74.5q0 33 8 56.5t22 38.5t31.5 22.5t36.5 7.5t36 -7t29.5 -19.5t19.5 -29t7 -34.5t-6 -33.5t-17 -28t-27 -19.5t-35 -7q-5 0 -9.5 0.5t-8.5 1.5q4 -18 13.5 -25t26.5 -7h60
v-67h-55q-14 0 -23.5 -4t-15.5 -11t-8.5 -15.5t-2.5 -17.5q0 -16 9 -23.5t31 -7.5h97q15 0 20 5t5 23v314h77v-348q0 -30 -14.5 -45.5t-36.5 -15.5h-219zM115 330q0 -12 8.5 -20.5t20.5 -8.5t20.5 8.5t8.5 20.5t-8.5 20.5t-20.5 8.5t-20.5 -8.5t-8.5 -20.5z" />
    <glyph glyph-name="uni0E23" unicode="&#xe23;" horiz-adv-x="377" 
d="M321 78q0 -19 -7 -35.5t-19.5 -28.5t-29 -19t-34.5 -7q-19 0 -35.5 7t-28.5 19t-19 28.5t-7 35.5q0 17 6 33t17 28t26.5 19.5t35.5 7.5q4 0 9 -0.5t9 -1.5v51q0 17 -5 22.5t-20 5.5h-199v64q11 28 26 52t33.5 41.5t40.5 27.5t49 10q14 0 29.5 -3.5t30.5 -8t29 -8t25 -3.5
q14 0 26.5 4t24.5 9l23 -65q-5 -3 -14 -6t-19.5 -6t-20.5 -5t-18 -2q-12 0 -23.5 3.5t-23.5 8t-26 8t-30 3.5q-15 0 -27.5 -5t-23 -13t-17.5 -17.5t-10 -17.5h166q22 0 36.5 -16t14.5 -45v-175zM260 79q0 12 -8.5 20.5t-20.5 8.5t-20.5 -8.5t-8.5 -20.5t8.5 -20.5t20.5 -8.5
t20.5 8.5t8.5 20.5z" />
    <glyph glyph-name="uni0E24" unicode="&#xe24;" horiz-adv-x="410" 
d="M292 266q0 17 -7.5 32.5t-20 27t-30 18t-38.5 6.5q-26 0 -46.5 -4.5t-45.5 -15.5v-4q7 -2 18 -5t22.5 -6t23 -6.5t20.5 -6.5v-53q-30 -4 -40.5 -16.5t-10.5 -33.5v-35q4 1 8.5 1.5t9.5 0.5q19 0 35 -7.5t27 -19.5t17 -28t6 -33q0 -19 -7 -35.5t-19.5 -28.5t-29 -19
t-34.5 -7q-19 0 -35.5 7t-28.5 19t-19 28.5t-7 35.5v111q0 27 6.5 46.5t20.5 25.5q-5 2 -13.5 5t-18 6l-19 6t-16.5 4v69q36 34 81.5 52t99.5 18q39 0 70 -11.5t53 -32t33.5 -47.5t11.5 -59v-438h-77v433zM121 79q0 -12 8.5 -20.5t20.5 -8.5t20.5 8.5t8.5 20.5t-8.5 20.5
t-20.5 8.5t-20.5 -8.5t-8.5 -20.5z" />
    <glyph glyph-name="uni0E25" unicode="&#xe25;" horiz-adv-x="409" 
d="M291 124q-24 52 -53 77t-54 25q-13 0 -22.5 -4t-15.5 -10t-9 -12t-3 -10v-26q4 1 8.5 1.5t9.5 0.5q19 0 35 -7.5t27 -19.5t17 -28t6 -33q0 -19 -7 -35.5t-19.5 -28.5t-29 -19t-34.5 -7q-19 0 -35.5 7t-28.5 19t-19 28.5t-7 35.5v111q0 20 9 39.5t25 34.5t38 24.5t49 9.5
q12 0 25 -2.5t27.5 -9t30.5 -18.5t33 -32v38q0 34 -25.5 55.5t-69.5 21.5q-21 0 -37 -4t-28.5 -11t-23 -17.5t-19.5 -22.5l-71 24q15 27 33.5 46.5t40.5 32t48.5 18t59.5 5.5q41 0 72.5 -11.5t52 -32t31 -47.5t10.5 -59v-271h-77v124zM118 79q0 -12 8.5 -20.5t20.5 -8.5
t20.5 8.5t8.5 20.5t-8.5 20.5t-20.5 8.5t-20.5 -8.5t-8.5 -20.5z" />
    <glyph glyph-name="uni0E26" unicode="&#xe26;" horiz-adv-x="449" 
d="M61 351q32 32 76.5 51t102.5 19q39 0 70 -11.5t53 -32t33.5 -47.5t11.5 -59v-438h-77v433q0 17 -7.5 32.5t-20 27t-30 18t-38.5 6.5q-15 0 -27 -1.5t-23.5 -4t-22.5 -7t-24 -9.5v-4q11 -2 24 -5t26 -6.5t25 -7t22 -5.5v-52q-13 -2 -21 -5t-12.5 -8.5t-6 -15.5t-1.5 -25
v-116q0 -19 -7 -35.5t-19.5 -28.5t-29 -19t-34.5 -7q-19 0 -35.5 7t-28.5 19t-19 28.5t-7 35.5q0 17 6 33t17 28t26.5 19.5t35.5 7.5q4 0 9 -0.5t9 -1.5v48q0 11 4 24t11 19v7q-5 2 -14 4t-19 4.5t-20.5 4.5t-17.5 3v73zM133 79q0 12 -8.5 20.5t-20.5 8.5t-20.5 -8.5
t-8.5 -20.5t8.5 -20.5t20.5 -8.5t20.5 8.5t8.5 20.5z" />
    <glyph glyph-name="uni0E27" unicode="&#xe27;" horiz-adv-x="351" 
d="M310 78q0 -19 -7 -35.5t-19.5 -28.5t-29 -19t-34.5 -7q-19 0 -35.5 7t-28.5 19t-19 28.5t-7 35.5q0 17 6 33t17 28t26.5 19.5t35.5 7.5q4 0 9 -0.5t9 -1.5v106q0 19 -5 34t-14 25t-21 15.5t-26 5.5q-24 0 -47.5 -19t-47.5 -64l-72 25q29 60 70 94.5t100 34.5
q33 0 59 -10.5t44 -29.5t27.5 -47t9.5 -63v-193zM249 79q0 12 -8.5 20.5t-20.5 8.5t-20.5 -8.5t-8.5 -20.5t8.5 -20.5t20.5 -8.5t20.5 8.5t8.5 20.5z" />
    <glyph glyph-name="uni0E28" unicode="&#xe28;" horiz-adv-x="449" 
d="M440 479q-3 -22 -10 -41t-16 -34.5t-19.5 -27t-19.5 -16.5q3 -5 8.5 -14.5t11 -24.5t9.5 -34.5t4 -43.5v-243h-77v244q0 51 -30 78.5t-81 27.5q-29 0 -52 -10t-39 -26t-24.5 -36t-8.5 -40q0 -9 1.5 -20t4 -22t5 -21.5t5.5 -18.5h4q1 6 3 16.5t5 22.5t6 24.5t6 22.5
q5 16 13.5 28t19.5 20t23 12t25 4t28.5 -5.5t28.5 -16.5t21.5 -27.5t8.5 -38.5q0 -15 -6 -30t-17.5 -27t-28 -19t-36.5 -7q-9 0 -16.5 1.5t-14.5 4.5q-4 -10 -8 -25.5t-8 -32t-6.5 -31.5t-2.5 -23v-29h-77v26q0 3 -2 12t-6 22.5t-9.5 30t-11.5 35.5q-6 14 -11 30t-9 32
t-6.5 31t-2.5 27q0 41 15.5 73.5t42.5 55t63 34.5t78 12q9 0 21 -1t24.5 -3t24 -5t20.5 -7q7 5 15.5 13.5t15.5 18.5t12 21t6 21h77zM190 219q0 -12 8.5 -20.5t20.5 -8.5t20.5 8.5t8.5 20.5t-8.5 20.5t-20.5 8.5t-20.5 -8.5t-8.5 -20.5z" />
    <glyph glyph-name="uni0E29" unicode="&#xe29;" horiz-adv-x="510" 
d="M402 245q5 4 10.5 10.5t10 14t8 15t6.5 14.5l56 -24q-6 -20 -15.5 -37.5t-22 -31t-26 -23.5t-27.5 -14v-108q0 -30 -14.5 -45.5t-36.5 -15.5h-289v67h55v172q-4 -1 -9 -1.5t-9 -0.5q-20 0 -35.5 7t-26.5 19.5t-17 28t-6 33.5t7 34.5t19 29t28.5 19.5t35.5 7q18 0 34.5 -7
t29 -19.5t19.5 -29t7 -34.5v-258h106q15 0 20 5t5 23v66q-27 -1 -46 5.5t-32 18t-19 27.5t-6 35q0 17 6.5 31t16.5 24t23 15.5t26 5.5q7 0 15 -1t16 -5v92h77v-164zM133 324q0 12 -8.5 20.5t-20.5 8.5t-20.5 -8.5t-8.5 -20.5t8.5 -20.5t20.5 -8.5t20.5 8.5t8.5 20.5z
M274 245q0 -12 8.5 -20.5t20.5 -8.5t20.5 8.5t8.5 20.5t-8.5 20.5t-20.5 8.5t-20.5 -8.5t-8.5 -20.5z" />
    <glyph glyph-name="uni0E2A" unicode="&#xe2a;" horiz-adv-x="414" 
d="M20 319q15 27 33.5 46.5t40.5 32t48.5 18t59.5 5.5q25 0 46 -3.5t39 -11.5q7 5 14 13t12.5 17.5t9.5 20.5t5 22h77q-3 -22 -9 -41t-15 -34t-19.5 -25.5t-20.5 -15.5q14 -19 20.5 -42.5t6.5 -49.5v-271h-77v124q-24 52 -53 77t-54 25q-13 0 -22.5 -4t-15.5 -10t-9 -12
t-3 -10v-26q4 1 8.5 1.5t9.5 0.5q19 0 35 -7.5t27 -19.5t17 -28t6 -33q0 -19 -7 -35.5t-19.5 -28.5t-29 -19t-34.5 -7q-19 0 -35.5 7t-28.5 19t-19 28.5t-7 35.5v111q0 20 9 39.5t25 34.5t38 24.5t49 9.5q12 0 25 -2.5t27.5 -9t30.5 -18.5t33 -32v38q0 34 -25.5 55.5
t-69.5 21.5q-21 0 -37 -4t-28.5 -11t-23 -17.5t-19.5 -22.5zM118 79q0 -12 8.5 -20.5t20.5 -8.5t20.5 8.5t8.5 20.5t-8.5 20.5t-20.5 8.5t-20.5 -8.5t-8.5 -20.5z" />
    <glyph glyph-name="uni0E2B" unicode="&#xe2b;" horiz-adv-x="460" 
d="M333 203q0 7 -1 12t-2 5q-2 0 -3.5 -2.5t-3.5 -5.5l-126 -212h-80v239q-4 -1 -9 -1.5t-9 -0.5q-20 0 -35.5 7t-26.5 19.5t-17 28t-6 33.5t7 34.5t19 29t28.5 19.5t35.5 7q18 0 34.5 -7t29 -19.5t19.5 -29t7 -34.5v-195h4q9 17 19 34.5t20 34.5t20.5 32.5t20.5 28.5
q-10 13 -18.5 30t-8.5 35t7 34.5t19 29t28.5 19.5t35.5 7q18 0 34.5 -7t29 -19.5t19.5 -29t7 -34.5q0 -9 -2 -18t-5 -17t-7 -14.5t-7 -9.5v-266h-77v203zM133 324q0 12 -8.5 20.5t-20.5 8.5t-20.5 -8.5t-8.5 -20.5t8.5 -20.5t20.5 -8.5t20.5 8.5t8.5 20.5zM370 324
q0 12 -8.5 20.5t-20.5 8.5t-20.5 -8.5t-8.5 -20.5t8.5 -20.5t20.5 -8.5t20.5 8.5t8.5 20.5z" />
    <glyph glyph-name="uni0E2C" unicode="&#xe2c;" horiz-adv-x="538" 
d="M497 0h-88l-100 255l-100 -255h-92v239q-4 -1 -9 -1.5t-9 -0.5q-20 0 -35.5 7t-26.5 19.5t-17 28t-6 33.5t7 34.5t19 29t28.5 19.5t35.5 7q18 0 34.5 -7t29 -19.5t19.5 -29t7 -34.5v-175h4q5 15 13 37.5t17 47.5t19 51t19 48.5t16.5 40t11.5 25.5h31q3 -8 10 -25
t15.5 -39t18.5 -47.5t19 -50.5t16.5 -48t11.5 -40h4v239q-4 -1 -8.5 -1.5t-7.5 -0.5q-19 0 -35.5 7t-28.5 19t-19 27.5t-7 33.5q0 17 6.5 33.5t18.5 29t27.5 20.5t34.5 8q16 0 32 -7.5t26 -18.5q2 10 3 22t0 25h67q0 -54 -8.5 -95t-23.5 -63v-428zM433 474q0 12 -8.5 20.5
t-20.5 8.5t-20.5 -8.5t-8.5 -20.5t8.5 -20.5t20.5 -8.5t20.5 8.5t8.5 20.5zM133 324q0 12 -8.5 20.5t-20.5 8.5t-20.5 -8.5t-8.5 -20.5t8.5 -20.5t20.5 -8.5t20.5 8.5t8.5 20.5z" />
    <glyph glyph-name="uni0E2D" unicode="&#xe2d;" horiz-adv-x="404" 
d="M261 67q15 0 20 5t5 23v178q0 34 -20.5 55.5t-64.5 21.5q-36 0 -58 -13.5t-37 -40.5l-71 25q20 51 63 75.5t106 24.5q41 0 71 -10t49.5 -29.5t29 -47.5t9.5 -63v-210q0 -30 -14.5 -45.5t-36.5 -15.5h-195q-22 0 -36.5 15.5t-14.5 45.5v144q0 18 7 34.5t19 29t28.5 19.5
t35.5 7q18 0 34.5 -7t29 -19.5t19.5 -29t7 -34.5t-6 -33.5t-17 -28t-27 -19.5t-35 -7q-5 0 -9.5 0.5t-8.5 1.5v-24q0 -18 5 -23t20 -5h93zM127 204q0 -12 8.5 -20.5t20.5 -8.5t20.5 8.5t8.5 20.5t-8.5 20.5t-20.5 8.5t-20.5 -8.5t-8.5 -20.5z" />
    <glyph glyph-name="uni0E2E" unicode="&#xe2e;" horiz-adv-x="389" 
d="M383 459q-1 -13 -6 -29t-12.5 -32.5t-17 -31t-18.5 -23.5q5 -6 9 -15.5t7 -21.5t5 -25t2 -24v-196q0 -30 -14.5 -45.5t-36.5 -15.5h-195q-22 0 -36.5 15.5t-14.5 45.5v109q0 66 29 94q-24 5 -36.5 22.5t-12.5 39.5q0 21 10.5 38.5t29 30t44 19.5t55.5 7q14 0 29 -2
t28.5 -5.5t25 -8t20.5 -9.5q4 3 9 10.5t9 16.5t7 18.5t4 17.5h77zM114 198q0 -12 8.5 -20.5t20.5 -8.5t20.5 8.5t8.5 20.5t-8.5 20.5t-20.5 8.5t-20.5 -8.5t-8.5 -20.5zM275 262q0 4 -1 13.5t-5 16.5q-12 -12 -29 -20.5t-39 -12.5q10 -11 18.5 -27t8.5 -35q0 -22 -8.5 -38
t-21.5 -26.5t-27.5 -16t-26.5 -5.5h-9.5t-8.5 1v-23q0 -14 6 -18t21 -4h97q15 0 20 5t5 23v167zM172 359q-18 0 -30.5 -3t-20.5 -7.5t-11.5 -9.5t-3.5 -9q0 -10 9.5 -16t32.5 -6q12 0 24.5 2.5t24.5 7t21 11t15 15.5q-13 7 -29.5 11t-31.5 4z" />
    <glyph glyph-name="uni0E2F" unicode="&#xe2f;" horiz-adv-x="418" 
d="M377 0h-77v316q0 4 -2 8t-3 4q-2 0 -4 -3.5t-6 -8.5q-15 -20 -32.5 -36t-38 -27.5t-43 -18t-45.5 -6.5t-43 6t-35.5 18t-24.5 29.5t-9 41.5q0 19 7 36t19 29.5t28.5 19.5t35.5 7q18 0 34.5 -7t29 -19.5t19.5 -29.5t7 -36q8 4 18 12.5t19 20.5t16.5 25.5t13.5 27.5h58
q26 0 42 -20t16 -57v-332zM133 324q0 12 -8.5 20.5t-20.5 8.5t-20.5 -8.5t-8.5 -20.5t8.5 -20.5t20.5 -8.5t20.5 8.5t8.5 20.5z" />
    <glyph glyph-name="uni0E30" unicode="&#xe30;" horiz-adv-x="350" 
d="M330 393q-7 -37 -21.5 -67t-37 -51t-55 -32t-74.5 -11q-29 0 -50.5 8t-36.5 21t-22.5 30.5t-7.5 36.5q0 16 6 31.5t17 28t27.5 20t37.5 7.5q16 0 30.5 -6.5t25 -17.5t17 -25.5t6.5 -30.5q0 -5 -1.5 -13.5t-6.5 -18.5q13 3 24 9.5t20 18t17 29t15 44.5zM109 303
q11 0 19 7.5t8 19.5q0 11 -8 20.5t-19 9.5q-12 0 -20 -9.5t-8 -20.5q0 -12 8 -19.5t20 -7.5zM330 155q-7 -37 -21.5 -67t-37 -51t-55 -32t-74.5 -11q-29 0 -50.5 8t-36.5 21t-22.5 30.5t-7.5 36.5q0 16 6 31.5t17 28t27.5 20t37.5 7.5q16 0 30.5 -6.5t25 -17.5t17 -25.5
t6.5 -30.5q0 -5 -1.5 -13.5t-6.5 -18.5q13 3 24 9.5t20 18t17 29t15 44.5zM109 65q11 0 19 7.5t8 19.5q0 11 -8 20.5t-19 9.5q-12 0 -20 -9.5t-8 -20.5q0 -12 8 -19.5t20 -7.5z" />
    <glyph glyph-name="uni0E31" unicode="&#xe31;" 
d="M77 626q-8 -31 -23.5 -58.5t-39.5 -48.5t-57 -33t-75 -12q-29 0 -51 7.5t-36.5 20.5t-21.5 29t-7 33q0 11 4.5 24.5t14 25.5t24 20.5t34.5 8.5q14 0 28.5 -5t25.5 -15t18.5 -24.5t7.5 -33.5q0 -7 -3.5 -17.5t-9.5 -19.5q22 3 38.5 11.5t29.5 23t22.5 34.5t18.5 48z
M-184 564q0 -12 8 -20t20 -8t20.5 8t8.5 20t-8.5 20t-20.5 8t-20 -8t-8 -20z" />
    <glyph glyph-name="uni0E32" unicode="&#xe32;" horiz-adv-x="298" 
d="M180 285q0 32 -14 48.5t-35 16.5t-38 -12.5t-34 -35.5l-59 39q9 15 22 29.5t30 26t37.5 18t44.5 6.5q60 0 91.5 -35t31.5 -103v-283h-77v285z" />
    <glyph glyph-name="uni0E33" unicode="&#xe33;" horiz-adv-x="298" 
d="M-80 464q-18 0 -33 6.5t-27 18t-18.5 27t-6.5 33.5q0 17 6.5 32.5t18.5 27t27 18.5t33 7q17 0 32.5 -7t27 -18.5t18.5 -27t7 -32.5q0 -18 -7 -33.5t-18.5 -27t-27 -18t-32.5 -6.5zM-80 520q12 0 20.5 8.5t8.5 20.5t-8.5 20.5t-20.5 8.5t-20.5 -8.5t-8.5 -20.5t8.5 -20.5
t20.5 -8.5zM180 285q0 32 -14 48.5t-35 16.5t-38 -12.5t-34 -35.5l-59 39q9 15 22 29.5t30 26t37.5 18t44.5 6.5q60 0 91.5 -35t31.5 -103v-283h-77v285z" />
    <glyph glyph-name="uni0E34" unicode="&#xe34;" 
d="M-340 533q14 29 29.5 50.5t34 35t41 20.5t50.5 7q26 0 49.5 -9t42.5 -24.5t32.5 -36t19.5 -43.5v-60q-11 4 -28.5 7.5t-38.5 6t-43.5 4t-41.5 1.5q-16 0 -35 -1.5t-38.5 -3.5t-39 -5t-34.5 -5v56zM-276 539q13 4 32 7t49 3q29 0 55 -4t39 -8v3q-19 23 -39.5 36t-47.5 13
q-13 0 -24 -2.5t-21.5 -7.5t-20.5 -14t-22 -21v-5z" />
    <glyph glyph-name="uni0E35" unicode="&#xe35;" 
d="M-41 473q-10 4 -28 7.5t-39 6t-43 4t-42 1.5q-16 0 -34.5 -1.5t-38.5 -3.5t-39 -5t-35 -5v56q14 29 29.5 50.5t34.5 35t41.5 20.5t50.5 7q22 0 43.5 -7t39.5 -19v89h60v-236zM-187 589q-13 0 -24 -2.5t-21.5 -7.5t-21 -14t-22.5 -21v-5q14 4 33 7t49 3q14 0 29 -1.5
t28 -4t24 -4.5t18 -4v4q-17 26 -41 38t-51 12z" />
    <glyph glyph-name="uni0E36" unicode="&#xe36;" 
d="M-340 533q24 54 61.5 83.5t91.5 29.5q0 17 5 31.5t14.5 26t23 18t31.5 6.5q16 0 31 -6t26 -17t17.5 -26t6.5 -33q0 -25 -10 -40t-23 -22q7 -12 13.5 -25t10.5 -26v-60q-11 4 -28.5 7.5t-38.5 6t-43 4t-41 1.5q-16 0 -35 -1.5t-39 -3.5t-39.5 -5t-34.5 -5v56zM-188 589
q-13 0 -24 -2.5t-21.5 -7.5t-20.5 -14t-22 -21v-5q13 4 32 7t49 3q29 0 55 -4t39 -8v3q-19 23 -39.5 36t-47.5 13zM-109 620q11 0 19 8t8 20q0 11 -8 19t-19 8q-12 0 -20 -8t-8 -19q0 -12 8 -20t20 -8z" />
    <glyph glyph-name="uni0E37" unicode="&#xe37;" 
d="M-129 635q8 -3 18 -8t16 -10v92h54v-236q-10 4 -28 7.5t-39 6t-43 4t-42 1.5q-16 0 -34.5 -1.5t-38.5 -3.5t-39 -5t-35 -5v56q27 58 64 85.5t93 27.5v63h54v-74zM-187 589q-13 0 -24 -2.5t-21.5 -7.5t-21 -14t-22.5 -21v-5q14 4 33 7t49 3q14 0 29 -1.5t28 -4t24 -4.5
t18 -4v4q-17 26 -41 38t-51 12z" />
    <glyph glyph-name="uni0E38" unicode="&#xe38;" 
d="M-113 -197q-11 -3 -23 -3q-15 0 -27.5 6.5t-22 17.5t-15 25t-5.5 30q0 14 5 27.5t15 25t24.5 18.5t33.5 7q20 0 35 -8t25.5 -20.5t16 -27.5t5.5 -29v-148h-67v79zM-128 -149q12 0 20 7.5t8 19.5t-8 20t-20 8t-20 -8t-8 -20t8 -19.5t20 -7.5z" />
    <glyph glyph-name="uni0E39" unicode="&#xe39;" 
d="M-243 -214h31v31q-6 -1 -10 -1.5t-11 -0.5q-12 0 -24 5t-21 14.5t-14.5 22.5t-5.5 28q0 13 5 26t15 23t23.5 16.5t30.5 6.5q15 0 28 -6t23 -16.5t15.5 -26t6.5 -35.5v-87h19q10 0 16 7t6 28v121h61v-161q0 -27 -16 -42t-44 -15h-134v62zM-225 -138q10 0 17 6.5t7 17.5
q0 10 -7 17t-17 7t-16.5 -7t-6.5 -17q0 -11 6.5 -17.5t16.5 -6.5z" />
    <glyph glyph-name="uni0E3A" unicode="&#xe3a;" 
d="M-136 -99q0 11 4.5 21.5t12 18t17.5 12t22 4.5q11 0 21.5 -4.5t18 -12t12 -18t4.5 -21.5q0 -12 -4.5 -22t-12 -17.5t-18 -12t-21.5 -4.5q-12 0 -22 4.5t-17.5 12t-12 17.5t-4.5 22z" />
    <glyph glyph-name="uni0E3F" unicode="&#xe3f;" horiz-adv-x="359" 
d="M42 411h118v60h29v-60q24 -1 46.5 -6t40.5 -17t29 -31.5t11 -48.5q0 -21 -7 -36.5t-18.5 -27t-27 -19t-33.5 -10.5v-1q20 -3 38 -10t31.5 -19.5t21.5 -29t8 -37.5q0 -34 -13 -56.5t-33.5 -36t-45.5 -19t-48 -6.5v-60h-29v60h-118v411zM249 122q0 15 -4.5 26t-12.5 18.5
t-19 11.5t-24 6v-121q25 4 42.5 18t17.5 41zM122 62h38v123h-38v-123zM122 243h38v107h-38v-107zM236 297q0 24 -13.5 35.5t-33.5 15.5v-103q19 4 33 16t14 36z" />
    <glyph glyph-name="uni0E40" unicode="&#xe40;" horiz-adv-x="245" 
d="M129 173q5 1 9.5 1.5t10.5 0.5q17 0 33 -6.5t29 -18.5t20.5 -29t7.5 -38q0 -19 -7.5 -36t-20 -30t-30.5 -21t-39 -8q-19 0 -35.5 7t-28.5 19t-19 28.5t-7 35.5v331h77v-236zM117 84q0 -12 8.5 -20.5t20.5 -8.5t20.5 8.5t8.5 20.5t-8.5 20.5t-20.5 8.5t-20.5 -8.5
t-8.5 -20.5z" />
    <glyph glyph-name="uni0E41" unicode="&#xe41;" horiz-adv-x="468" 
d="M129 173q5 1 9.5 1.5t10.5 0.5q17 0 33 -6.5t29 -18.5t20.5 -29t7.5 -38q0 -19 -7.5 -36t-20 -30t-30.5 -21t-39 -8q-19 0 -35.5 7t-28.5 19t-19 28.5t-7 35.5v331h77v-236zM117 84q0 -12 8.5 -20.5t20.5 -8.5t20.5 8.5t8.5 20.5t-8.5 20.5t-20.5 8.5t-20.5 -8.5
t-8.5 -20.5zM352 173q5 1 9.5 1.5t10.5 0.5q17 0 33 -6.5t29 -18.5t20.5 -29t7.5 -38q0 -19 -7.5 -36t-20 -30t-30.5 -21t-39 -8q-19 0 -35.5 7t-28.5 19t-19 28.5t-7 35.5v331h77v-236zM340 84q0 -12 8.5 -20.5t20.5 -8.5t20.5 8.5t8.5 20.5t-8.5 20.5t-20.5 8.5
t-20.5 -8.5t-8.5 -20.5z" />
    <glyph glyph-name="uni0E42" unicode="&#xe42;" horiz-adv-x="253" 
d="M242 666q-10 -6 -26.5 -9t-27.5 -3q-13 0 -26.5 3.5t-27.5 8t-29 8.5t-30 4t-27 -3.5t-25 -13.5v-3q23 0 43.5 -9t36 -24t25 -34t9.5 -40v-378q5 1 9.5 1.5t10.5 0.5q17 0 33 -6.5t29 -18.5t20.5 -29t7.5 -38q0 -19 -7.5 -36t-20 -30t-30.5 -21t-39 -8q-19 0 -35.5 7
t-28.5 19t-19 28.5t-7 35.5v447q0 14 -5.5 27t-16 22.5t-26 15.5t-34.5 6h-39v81q8 12 21 24.5t30 23t38 17.5t46 7q14 0 31.5 -4t34 -8.5t30.5 -8t22 -3.5q3 0 8 0.5t10.5 1.5t10.5 2.5t8 3.5zM125 84q0 -12 8.5 -20.5t20.5 -8.5t20.5 8.5t8.5 20.5t-8.5 20.5t-20.5 8.5
t-20.5 -8.5t-8.5 -20.5z" />
    <glyph glyph-name="uni0E43" unicode="&#xe43;" horiz-adv-x="253" 
d="M60 500q24 20 35 44q10 24 10 56q0 37 -17 57.5t-46 20.5q-19 0 -30.5 -7.5t-12.5 -20.5q18 0 32 -7.5t23 -18t13.5 -23t4.5 -23.5q0 -17 -7 -31t-18 -24t-25 -15.5t-28 -5.5q-15 0 -29.5 6t-25.5 17t-18 27t-7 35q0 29 9.5 57.5t27 52t43 38t58.5 14.5q29 0 52.5 -12
t41 -32t27 -46.5t9.5 -56.5q0 -31 -10 -61t-35 -66v-302q5 1 9.5 1.5t10.5 0.5q17 0 33 -6.5t29 -18.5t20.5 -29t7.5 -38q0 -19 -7.5 -36t-20 -30t-30.5 -21t-39 -8q-19 0 -35.5 7t-28.5 19t-19 28.5t-7 35.5v422zM125 84q0 -12 8.5 -20.5t20.5 -8.5t20.5 8.5t8.5 20.5
t-8.5 20.5t-20.5 8.5t-20.5 -8.5t-8.5 -20.5zM-30 578q0 -11 7 -18t18 -7q10 0 17.5 7t7.5 18q0 10 -7.5 17.5t-17.5 7.5q-11 0 -18 -7.5t-7 -17.5z" />
    <glyph glyph-name="uni0E44" unicode="&#xe44;" horiz-adv-x="251" 
d="M-37 494q-5 17 -11.5 40.5t-12.5 45.5t-10.5 38t-5.5 19q-2 5 -5.5 9t-4.5 4v88h31q7 0 11.5 -2.5t9.5 -10.5q3 -7 8.5 -24t10.5 -36t9 -36t4 -23h6q0 3 3.5 11t9 18t11.5 21.5t13 22.5q15 27 34 59h63v-565q5 1 9.5 1.5t10.5 0.5q17 0 33 -6.5t29 -18.5t20.5 -29
t7.5 -38q0 -19 -7.5 -36t-20 -30t-30.5 -21t-39 -8q-19 0 -35.5 7t-28.5 19t-19 28.5t-7 35.5v509h-4l-52 -93h-41zM125 84q0 -12 8.5 -20.5t20.5 -8.5t20.5 8.5t8.5 20.5t-8.5 20.5t-20.5 8.5t-20.5 -8.5t-8.5 -20.5z" />
    <glyph glyph-name="uni0E45" unicode="&#xe45;" horiz-adv-x="298" 
d="M180 285q0 32 -14 48.5t-35 16.5t-38 -12.5t-34 -35.5l-59 39q9 15 22 29.5t30 26t37.5 18t44.5 6.5q60 0 91.5 -35t31.5 -103v-450h-77v452z" />
    <glyph glyph-name="uni0E46" unicode="&#xe46;" horiz-adv-x="421" 
d="M303 274q0 19 -9.5 36t-28.5 27q-15 -9 -31.5 -19t-29.5 -19q-13 9 -28.5 19.5t-34.5 19.5q-8 -3 -14.5 -8t-12 -11t-9.5 -12t-6 -10q18 0 35 -6t30 -16.5t20.5 -26t7.5 -34.5q0 -15 -6 -29t-17.5 -26t-27 -19t-34.5 -7q-22 0 -38.5 9t-28 24.5t-17.5 36t-6 44.5
q0 61 32 105.5t87 68.5q17 -8 35 -19t32 -21q14 10 33 20.5t37 19.5q19 -7 38 -17t34.5 -26.5t25 -42t9.5 -63.5v-439h-77v441zM136 215q0 12 -8.5 20.5t-20.5 8.5t-20.5 -8.5t-8.5 -20.5t8.5 -20.5t20.5 -8.5t20.5 8.5t8.5 20.5z" />
    <glyph glyph-name="uni0E47" unicode="&#xe47;" 
d="M-41 709q-12 -20 -25 -31.5t-28 -17.5t-33 -7.5t-39 -1.5q-30 0 -49.5 -5t-31.5 -13t-17 -18.5t-5 -22.5q0 -6 2 -15.5t9 -20.5l42 33q7 -11 17 -21t22 -15q0 15 6 28.5t15.5 24t22.5 16.5t28 6t28.5 -5.5t24 -15.5t16.5 -23.5t6 -28.5q0 -17 -7 -32t-19.5 -26t-29 -17.5
t-34.5 -6.5q-31 0 -53.5 9t-41.5 29q-5 -3 -11.5 -8t-13 -10.5t-13.5 -11t-12 -10.5q-65 56 -65 122q0 23 9.5 45t27.5 38.5t43.5 26.5t58.5 10h50q18 0 32.5 9t26.5 27zM-105 581q-11 0 -18 -7t-7 -17q0 -11 7 -18.5t18 -7.5q10 0 17.5 7.5t7.5 18.5q0 10 -7.5 17t-17.5 7z
" />
    <glyph glyph-name="uni0E48" unicode="&#xe48;" 
d="M-46 637v-160h-67v160h67z" />
    <glyph glyph-name="uni0E49" unicode="&#xe49;" 
d="M-286 534h34q5 0 12.5 2t12.5 6q-24 10 -35 28t-11 38q0 14 5.5 28t15.5 25t24 18.5t32 7.5q15 0 29.5 -6t25 -16t17 -24t6.5 -30q0 -37 -32 -66q16 0 34 8t33.5 24t27 38t14.5 50l61 -22q-9 -48 -31 -80t-52.5 -51.5t-66.5 -27.5t-71 -8h-85v58zM-196 581q12 0 20 8
t8 20q0 11 -8 19t-20 8t-19.5 -8t-7.5 -19q0 -12 7.5 -20t19.5 -8z" />
    <glyph glyph-name="uni0E4A" unicode="&#xe4a;" 
d="M-149 535q17 11 24 27t7 32q0 17 -6 28t-16 21q-8 -5 -17.5 -12t-16.5 -14q-6 6 -17 14.5t-24 13.5q-24 -14 -31 -35q3 1 8 2.5t11 1.5q13 0 24.5 -5.5t20.5 -15.5t14 -23t5 -27q0 -15 -5.5 -28t-15 -22t-22 -14t-26.5 -5q-16 0 -29.5 6.5t-23.5 18.5t-15.5 30t-5.5 40
q0 54 25 88t68 49q11 -6 21.5 -12t16.5 -12q7 5 18.5 12t20.5 12q15 -6 28 -15.5t21.5 -21.5t13.5 -25.5t5 -27.5q0 -6 -0.5 -15.5t-1.5 -16.5q19 9 30.5 37t13.5 72l50 -13q-2 -39 -12 -68t-28 -51.5t-44 -39t-58 -29.5zM-233 567q-10 0 -16.5 -6.5t-6.5 -16.5t6.5 -15.5
t16.5 -5.5t16.5 5.5t6.5 15.5t-6.5 16.5t-16.5 6.5z" />
    <glyph glyph-name="uni0E4B" unicode="&#xe4b;" 
d="M-50 649v-56h54v-60h-54v-56h-60v56h-54v60h54v56h60z" />
    <glyph glyph-name="uni0E4C" unicode="&#xe4c;" 
d="M36 733q-5 -13 -13.5 -24.5t-19.5 -21t-24.5 -16t-28.5 -8.5q-24 -3 -39 -6.5t-24 -8.5t-14 -11.5t-8 -15.5q6 1 14 3t16 2q16 0 29.5 -7t23 -18t15 -25.5t5.5 -28.5q0 -13 -5 -26t-14.5 -23.5t-24 -17t-33.5 -6.5q-21 0 -37.5 8t-28 22.5t-17.5 35t-6 45.5q0 26 8 48.5
t22 39t33.5 26.5t42.5 13q32 5 49 15t26 30zM-110 523q12 0 20 7.5t8 19.5q0 11 -8 20t-20 9t-19.5 -9t-7.5 -20q0 -12 7.5 -19.5t19.5 -7.5z" />
    <glyph glyph-name="uni0E4D" unicode="&#xe4d;" 
d="M-109 559q0 -12 8.5 -20.5t20.5 -8.5t20.5 8.5t8.5 20.5t-8.5 20.5t-20.5 8.5t-20.5 -8.5t-8.5 -20.5zM-165 559q0 17 6.5 32.5t18 27t27 18.5t33.5 7q17 0 32.5 -7t27 -18.5t18.5 -27t7 -32.5q0 -18 -7 -33.5t-18.5 -27t-27 -18t-32.5 -6.5q-18 0 -33.5 6.5t-27 18
t-18 27t-6.5 33.5z" />
    <glyph glyph-name="uni0E4E" unicode="&#xe4e;" 
d="M-165 492q-18 -9 -35.5 -13.5t-33.5 -4.5q-17 0 -31 4.5t-24.5 13t-16 20.5t-5.5 28q0 12 5.5 25t15.5 24t24 20t32 15q-6 4 -11 15.5t-5 23.5q0 22 12.5 40.5t36 32t56.5 21t74 7.5q22 0 48 -3l-15 -58q-12 1 -22 1.5t-20 0.5q-27 -1 -46.5 -5t-32 -10t-18.5 -13.5
t-6 -13.5q0 -9 8.5 -15t30.5 -6h11.5t14.5 1l-22 -59q-6 1 -11.5 1h-10.5q-22 0 -38.5 -4t-27.5 -10t-16.5 -12.5t-5.5 -12.5q0 -9 7 -11.5t18 -2.5q13 0 27 3t23 8z" />
    <glyph glyph-name="uni0E4F" unicode="&#xe4f;" horiz-adv-x="389" 
d="M135 190q0 -10 3.5 -18.5t10 -15t15 -10t18.5 -3.5q9 0 18 3.5t15 10t10 15t4 18.5q0 9 -4 18t-10 15t-15 10t-18 4q-10 0 -18.5 -4t-15 -10t-10 -15t-3.5 -18zM97 190q0 17 6.5 32.5t18 27t27 18.5t33.5 7q17 0 32.5 -7t27 -18.5t18.5 -27t7 -32.5q0 -18 -7 -33.5
t-18.5 -27t-27 -18t-32.5 -6.5q-18 0 -33.5 6.5t-27 18t-18 27t-6.5 33.5zM69 190q0 -24 9 -44.5t24 -35.5t35.5 -24t44.5 -9q23 0 43.5 9t36 24t24.5 35.5t9 44.5q0 23 -9 43.5t-24.5 36t-36 24.5t-43.5 9q-24 0 -44.5 -9t-35.5 -24.5t-24 -36t-9 -43.5zM31 190
q0 31 12 58.5t32.5 48t48 32.5t58.5 12t58.5 -12t48 -32.5t32.5 -48t12 -58.5t-12 -58.5t-32.5 -48t-48 -32.5t-58.5 -12t-58.5 12t-48 32.5t-32.5 48t-12 58.5z" />
    <glyph glyph-name="uni0E50" unicode="&#xe50;" horiz-adv-x="428" 
d="M30 168q0 32 11.5 62.5t35 53.5t57.5 37t80 14q45 0 79.5 -14t57.5 -37t35 -53.5t12 -62.5q0 -83 -47 -128.5t-137 -45.5q-91 0 -137.5 45.5t-46.5 128.5zM107 168q0 -53 27.5 -78t79.5 -25q51 0 79 25t28 78q0 18 -7.5 35.5t-21 31t-33.5 21.5t-45 8q-26 0 -46 -8
t-33.5 -21.5t-20.5 -31t-7 -35.5z" />
    <glyph glyph-name="uni0E51" unicode="&#xe51;" horiz-adv-x="441" 
d="M281 -6q27 25 43 59.5t16 73.5q0 34 -8.5 59.5t-24 43t-37 26t-47.5 8.5t-48 -7.5t-38.5 -22.5t-26 -37.5t-9.5 -51.5q0 -19 4.5 -35.5t14.5 -28.5t25.5 -18.5t38.5 -6.5l3 6q-9 3 -17 10t-14 16t-9.5 19t-3.5 21q0 16 6.5 30.5t18 25t25 16.5t28.5 6q14 0 28.5 -6.5
t26 -18t18.5 -27.5t7 -35q0 -27 -9.5 -50t-27 -39.5t-41 -26t-52.5 -9.5q-30 0 -56 11.5t-45 32.5t-29.5 50t-10.5 63q0 33 12.5 66t37 59.5t60 42.5t81.5 16q44 0 79 -16t59.5 -44t38 -65.5t13.5 -81.5q0 -51 -17 -92t-50 -77zM195 128q0 -12 7.5 -19.5t19.5 -7.5
q11 0 19 7.5t8 19.5q0 11 -8 19t-19 8q-12 0 -19.5 -8t-7.5 -19z" />
    <glyph glyph-name="uni0E52" unicode="&#xe52;" horiz-adv-x="500" 
d="M459 61q0 -30 -14.5 -45.5t-36.5 -15.5h-306q-22 0 -36.5 15.5t-14.5 45.5v232q0 12 -2.5 27t-6.5 30.5t-10 30.5t-13 28l62 41q19 -23 30 -57.5t11 -74.5v-229q0 -14 6 -18t21 -4h214q15 0 20 5t5 23v114q0 20 -8.5 30.5t-18.5 16.5q-12 -6 -24 -13t-20 -13
q-11 7 -24 16.5t-27 15.5q-14 -7 -23.5 -17.5t-11.5 -21.5q3 1 6.5 1h7.5q14 0 26 -5t21.5 -13.5t15 -21t5.5 -26.5q0 -16 -7 -30t-18 -24t-25 -15.5t-28 -5.5q-15 0 -29.5 6t-25.5 17t-18 27t-7 35q0 32 7.5 60.5t22 50.5t34.5 36.5t45 19.5q4 -2 11.5 -6.5t15.5 -9t15 -9
t11 -6.5q3 2 9.5 6t14.5 8.5t16 8.5l16 8q23 -9 39.5 -20.5t26.5 -26.5t15 -35t5 -46v-146zM211 159q0 -11 7 -18t18 -7q10 0 17.5 7t7.5 18q0 10 -7.5 17.5t-17.5 7.5q-11 0 -18 -7.5t-7 -17.5z" />
    <glyph glyph-name="uni0E53" unicode="&#xe53;" horiz-adv-x="426" 
d="M38 182q0 27 7 52t20.5 45t34 34.5t47.5 21.5q22 -10 39 -21t28 -20q14 10 33 21t37 20q18 -7 37 -16.5t33.5 -25t24 -40.5t9.5 -63v-190h-77v192q0 19 -8 33.5t-28 24.5q-15 -9 -31 -18.5t-29 -19.5q-13 10 -28.5 20t-34.5 19q-20 -6 -28.5 -21.5t-8.5 -31.5v-28
q4 1 8.5 1.5t9.5 0.5q19 0 35 -7.5t27 -19.5t17 -28t6 -33q0 -19 -7 -35.5t-19.5 -28.5t-29 -19t-34.5 -7q-19 0 -35.5 7t-28.5 19t-19 28.5t-7 35.5v98zM99 85q0 -12 8.5 -20.5t20.5 -8.5t20.5 8.5t8.5 20.5t-8.5 20.5t-20.5 8.5t-20.5 -8.5t-8.5 -20.5z" />
    <glyph glyph-name="uni0E54" unicode="&#xe54;" horiz-adv-x="463" 
d="M241 67q-20 18 -30 40t-10 46q0 18 6.5 34t17.5 28t26 18.5t32 6.5t31.5 -6.5t25.5 -17.5t17 -25.5t6 -30.5t-5 -28.5t-12.5 -21t-16.5 -14t-18 -7.5q9 -22 45 -22h54v-67h-243q-30 0 -55.5 12.5t-44 34t-29.5 50t-11 60.5q0 34 11.5 65t34 55t56 38t77.5 14h120
q12 0 23.5 5.5t20 16t13.5 25t6 33.5h77q-9 -78 -42 -114.5t-88 -36.5h-130q-22 0 -40.5 -7.5t-32.5 -21t-21.5 -33t-7.5 -43.5q0 -15 6 -30t18.5 -27.5t30 -20.5t41.5 -8h41zM257 162q0 -12 7.5 -19.5t19.5 -7.5q11 0 19 7.5t8 19.5q0 11 -8 19t-19 8q-12 0 -19.5 -8
t-7.5 -19z" />
    <glyph glyph-name="uni0E55" unicode="&#xe55;" horiz-adv-x="463" 
d="M480 472q-7 -54 -16 -94.5t-26 -67t-43.5 -39.5t-68.5 -13h-120q-22 0 -40.5 -7.5t-32.5 -21t-21.5 -33t-7.5 -43.5q0 -15 6 -30t18.5 -27.5t30 -20.5t41.5 -8h41q-20 18 -30 40t-10 46q0 18 6.5 34t17.5 28t26 18.5t32 6.5t31.5 -6.5t25.5 -17.5t17 -25.5t6 -30.5
t-5 -28.5t-12.5 -21t-16.5 -14t-18 -7.5q9 -22 45 -22h54v-67h-243q-30 0 -55.5 12.5t-44 34t-29.5 50t-11 60.5q0 34 11.5 65t34 55t56 38t77.5 14h75q-5 7 -6.5 14.5t-1.5 16.5q0 14 5.5 28.5t16 26.5t26 20t34.5 8q11 0 26.5 -6t24.5 -16q4 9 5.5 24t1.5 27h67zM257 162
q0 -12 7.5 -19.5t19.5 -7.5q11 0 19 7.5t8 19.5q0 11 -8 19t-19 8q-12 0 -19.5 -8t-7.5 -19zM356 332q12 0 20 8t8 20q0 11 -8 19.5t-20 8.5t-19.5 -8.5t-7.5 -19.5q0 -12 7.5 -20t19.5 -8z" />
    <glyph glyph-name="uni0E56" unicode="&#xe56;" horiz-adv-x="414" 
d="M74 450q20 -34 32.5 -66.5t18.5 -67.5q19 7 43 11.5t45 4.5q39 0 70.5 -13t54 -36.5t34.5 -55t12 -67.5q0 -39 -14 -70t-38.5 -52.5t-57.5 -32.5t-72 -11q-33 0 -60 8.5t-46 24t-29.5 37t-10.5 48.5q0 16 6 32t17.5 29t27.5 21t37 8q17 0 32 -7t26.5 -19t18 -27t6.5 -31
q0 -21 -5.5 -34t-14.5 -23q21 1 39.5 8t32 20t21 30.5t7.5 40.5q0 20 -7 38.5t-20.5 32.5t-32.5 22t-43 8q-15 0 -31 -3t-32.5 -7.5t-33 -10t-30.5 -11.5q-13 52 -27.5 97t-36.5 83zM117 117q0 -12 7.5 -19.5t19.5 -7.5q11 0 19 7.5t8 19.5q0 11 -8 19t-19 8q-12 0 -19.5 -8
t-7.5 -19z" />
    <glyph glyph-name="uni0E57" unicode="&#xe57;" horiz-adv-x="500" 
d="M269 186q0 27 -7 40.5t-20 17.5q-12 -6 -25.5 -15t-23.5 -18l-27 18t-28 16q-15 -4 -23 -17t-8 -36v-22q4 1 8.5 1.5t9.5 0.5q19 0 35 -7.5t27 -19.5t17 -28t6 -33q0 -19 -7 -35.5t-19.5 -28.5t-29 -19t-34.5 -7q-19 0 -35.5 7t-28.5 19t-19 28.5t-7 35.5v92
q0 30 7.5 55.5t21 45t32.5 33t43 19.5q19 -9 35 -20.5t27 -20.5q14 12 27.5 22.5t27.5 18.5q21 -8 37.5 -18t28 -25t17.5 -37t6 -52v-130q2 0 8 0.5t13 3.5t12 10t5 20v200q0 11 1.5 30t5.5 41t12 43t21 35l62 -41q-5 -10 -10.5 -22t-10 -27t-7.5 -33t-3 -41v-186
q0 -28 -5.5 -47t-15.5 -31t-23.5 -17t-30.5 -5h-105v186zM91 85q0 -12 8.5 -20.5t20.5 -8.5t20.5 8.5t8.5 20.5t-8.5 20.5t-20.5 8.5t-20.5 -8.5t-8.5 -20.5z" />
    <glyph glyph-name="uni0E58" unicode="&#xe58;" horiz-adv-x="500" 
d="M313 73q-5 3 -8.5 8t-6 10.5t-4 11t-1.5 9.5q0 18 6 35t17 29t26 19.5t34 7.5q18 0 34 -6.5t27 -18t17.5 -28t6.5 -35.5q0 -25 -9.5 -47t-26 -38.5t-39 -26t-48.5 -9.5q-19 0 -36 3.5t-33 11.5t-31 20.5t-31 30.5l-44 -60h-63q-11 11 -23 30t-22.5 40.5t-17.5 44.5t-7 42
q0 33 9.5 63.5t31 54t55.5 38t83 14.5q31 0 62 -4t62 -4q22 0 36.5 4.5t23 15t12.5 27.5t5 43h77q-4 -46 -14 -77t-27 -49.5t-42 -26.5t-60 -8q-31 0 -61 4t-61 4q-26 0 -47 -5.5t-36 -17.5t-23.5 -31.5t-8.5 -48.5q0 -8 2 -18.5t6.5 -20.5t10 -19t12.5 -14q5 8 12 19.5
t15.5 23.5t16.5 24.5t16 23.5h15q22 -36 45.5 -63.5t48.5 -40.5zM377 93q12 0 20 7.5t8 19.5t-8 20t-20 8t-20 -8t-8 -20t8 -19.5t20 -7.5z" />
    <glyph glyph-name="uni0E59" unicode="&#xe59;" horiz-adv-x="500" 
d="M361 -25q-12 89 -26.5 145.5t-33 89t-41.5 45t-51 12.5q-52 0 -80 -30.5t-28 -91.5q0 -19 4.5 -35.5t14.5 -28.5t25.5 -18.5t38.5 -6.5l3 6q-9 3 -17 10t-14 16t-9.5 19t-3.5 21q0 16 6.5 30.5t18 25t25 16.5t28.5 6q14 0 28.5 -6.5t26 -18t18.5 -27.5t7 -35
q0 -27 -9.5 -50t-27 -39.5t-41 -26t-52.5 -9.5q-30 0 -56 11.5t-45 32.5t-29.5 50t-10.5 63q0 35 11 68.5t33 59.5t55.5 42.5t78.5 16.5q33 0 59.5 -11.5t47.5 -31.5l5.5 11t8 13.5t10.5 11.5t13 5t14 -3t13.5 -6t11.5 -5.5t9 -2.5q5 0 9.5 5.5t9 18t8.5 34t8 54.5l67 -22
q-7 -46 -16 -79.5t-20 -55t-22.5 -31.5t-23.5 -10q-9 0 -21 2.5t-25 8.5q4 -12 9.5 -29t11 -37.5t11 -43.5t10.5 -46.5t9 -46t7 -41.5zM195 128q0 -12 7.5 -19.5t19.5 -7.5q11 0 19 7.5t8 19.5q0 11 -8 19t-19 8q-12 0 -19.5 -8t-7.5 -19z" />
    <glyph glyph-name="uni0E5A" unicode="&#xe5a;" horiz-adv-x="554" 
d="M377 0h-77v316q0 4 -2 8t-3 4q-2 0 -4 -3.5t-6 -8.5q-15 -20 -32.5 -36t-38 -27.5t-43 -18t-45.5 -6.5t-43 6t-35.5 18t-24.5 29.5t-9 41.5q0 19 7 36t19 29.5t28.5 19.5t35.5 7q18 0 34.5 -7t29 -19.5t19.5 -29.5t7 -36q8 4 18 12.5t19 20.5t16.5 25.5t13.5 27.5h58
q26 0 42 -20t16 -57v-332zM133 324q0 12 -8.5 20.5t-20.5 8.5t-20.5 -8.5t-8.5 -20.5t8.5 -20.5t20.5 -8.5t20.5 8.5t8.5 20.5zM436 0v409h77v-409h-77z" />
    <glyph glyph-name="uni0E5B" unicode="&#xe5b;" horiz-adv-x="876" 
d="M278 266q-9 23 -28 35.5t-48 12.5q-22 0 -40.5 -9t-33 -25t-22.5 -37.5t-8 -46.5q0 -31 10.5 -54.5t28 -40t40.5 -24.5t47 -8q37 0 69 15.5t56 47t40 78.5t22 110h45l49 -150h3l39 132h43l41 -125h3l32 108h38q5 -62 27.5 -91t61.5 -29q21 0 47 6l18 -62q-22 -6 -40 -8.5
t-34 -2.5q-33 0 -59 13.5t-42 42.5h-2l-28 -94h-39l-43 127h-3l-43 -141h-43l-39 122h-3q-13 -42 -35.5 -73.5t-51 -52.5t-62 -31.5t-68.5 -10.5q-42 0 -77 14.5t-61 40.5t-40.5 62t-14.5 79q0 45 14.5 79t38 57.5t53 35.5t59.5 12t56.5 -10.5t46.5 -30t31.5 -47t11.5 -62.5
q0 -24 -8 -45.5t-22 -38t-33 -26t-42 -9.5q-16 0 -32 5.5t-29 16.5t-20.5 27t-7.5 37q0 18 6 33.5t16.5 27t24.5 17.5t30 6q12 0 25 -3.5t27 -13.5zM208 197q0 -12 8 -20t20 -8q11 0 19.5 8t8.5 20q0 11 -8.5 19.5t-19.5 8.5q-12 0 -20 -8.5t-8 -19.5z" />
    <glyph glyph-name="uni2002" unicode="&#x2002;" horiz-adv-x="500" 
 />
    <glyph glyph-name="uni2003" unicode="&#x2003;" horiz-adv-x="1000" 
 />
    <glyph glyph-name="uni2009" unicode="&#x2009;" horiz-adv-x="100" 
 />
    <glyph glyph-name="uni200A" unicode="&#x200a;" horiz-adv-x="20" 
 />
    <glyph glyph-name="uni200B" unicode="&#x200b;" 
 />
    <glyph glyph-name="uni200C" unicode="&#x200c;" 
d="M-53 875l53 -53l52 52l16 -16l-52 -52l52 -52l-16 -16l-52 51l-53 -52l-16 17l52 52l-52 52z" />
    <glyph glyph-name="uni200D" unicode="&#x200d;" 
d="M77 749v46h-153v-46h-23v69h199v-69h-23z" />
    <glyph glyph-name="uni200E" unicode="&#x200e;" 
d="M10 858l16 17l69 -69l-69 -69l-16 17l41 41h-126v23h126z" />
    <glyph glyph-name="uni200F" unicode="&#x200f;" 
d="M-10 754l-16 -16l-69 68l69 69l16 -16l-41 -41h127v-23h-126z" />
    <glyph glyph-name="endash" unicode="&#x2013;" horiz-adv-x="500" 
d="M0 207h500v-55h-500v55z" />
    <glyph glyph-name="emdash" unicode="&#x2014;" horiz-adv-x="1000" 
d="M0 207h1000v-55h-1000v55z" />
    <glyph glyph-name="quoteleft" unicode="&#x2018;" horiz-adv-x="179" 
d="M111 309h-82l55 160h67z" />
    <glyph glyph-name="quoteright" unicode="&#x2019;" horiz-adv-x="179" 
d="M68 469h83l-56 -160h-66z" />
    <glyph glyph-name="quotesinglbase" unicode="&#x201a;" horiz-adv-x="179" 
d="M66 82h83l-56 -160h-66z" />
    <glyph glyph-name="quotedblleft" unicode="&#x201c;" horiz-adv-x="330" 
d="M123 309h-82l57 160h65zM249 309h-82l56 160h66z" />
    <glyph glyph-name="quotedblright" unicode="&#x201d;" horiz-adv-x="330" 
d="M207 469h82l-57 -160h-65zM81 469h82l-56 -160h-66z" />
    <glyph glyph-name="quotedblbase" unicode="&#x201e;" horiz-adv-x="330" 
d="M207 82h82l-57 -160h-65zM81 82h82l-56 -160h-66z" />
    <glyph glyph-name="dagger" unicode="&#x2020;" horiz-adv-x="359" 
d="M144 290h-102v60h102v111h72v-111h102v-60h-102v-290h-72v290z" />
    <glyph glyph-name="daggerdbl" unicode="&#x2021;" horiz-adv-x="359" 
d="M42 160h102v142h-102v56h102v103h72v-103h102v-56h-102v-142h102v-57h-102v-103h-72v103h-102v57z" />
    <glyph glyph-name="bullet" unicode="&#x2022;" horiz-adv-x="330" 
d="M50 230q0 24 9 45t24.5 36.5t36.5 24.5t45 9q23 0 44 -9t37 -24.5t25 -36.5t9 -45t-9 -45t-25 -36.5t-37 -24.5t-44 -9q-24 0 -45 9t-36.5 24.5t-24.5 36.5t-9 45z" />
    <glyph glyph-name="ellipsis" unicode="&#x2026;" horiz-adv-x="660" 
d="M70 83h80v-83h-80v83zM289 83h81v-83h-81v83zM509 83h81v-83h-81v83z" />
    <glyph glyph-name="uni202A" unicode="&#x202a;" 
d="M-28 795h-57v23h57v-23zM1 818h50l-41 40l16 17l69 -69l-69 -69l-16 17l41 41h-50v23z" />
    <glyph glyph-name="uni202B" unicode="&#x202b;" 
d="M28 818h57v-23h-57v23zM-1 795h-49l40 -41l-16 -16l-69 68l69 69l16 -16l-41 -41h50v-23z" />
    <glyph glyph-name="uni202C" unicode="&#x202c;" 
d="M-52 797l-17 16l69 69l69 -69l-17 -16l-41 41v-102h-23v101z" />
    <glyph glyph-name="uni202D" unicode="&#x202d;" 
d="M-37 858l16 17l69 -69l-69 -69l-16 17l41 41h-107v23h106zM28 858l16 17l69 -69l-69 -69l-16 17l53 52z" />
    <glyph glyph-name="uni202E" unicode="&#x202e;" 
d="M38 754l-17 -17l-68 69l68 69l17 -17l-41 -41h107v-23h-107zM-28 754l-16 -17l-69 69l69 69l16 -17l-52 -52z" />
    <glyph glyph-name="perthousand" unicode="&#x2030;" horiz-adv-x="671" 
d="M14 302q0 24 4 45.5t14 36.5t27 24t43 9t43 -9t27 -24t14.5 -36.5t4.5 -45.5q0 -25 -4.5 -46.5t-14.5 -37.5t-27 -25t-43 -9t-43 9t-27 25t-14 37.5t-4 46.5zM68 300q0 -14 0.5 -27t4 -23.5t10 -16.5t19.5 -6q12 0 19.5 6t10.5 16.5t4 23.5t1 27t-1 27t-4 23.5t-10.5 17
t-19.5 6.5q-13 0 -19.5 -6.5t-10 -17t-4 -23.5t-0.5 -27zM269 111q0 24 4 45.5t14 37t27 24.5t43 9t43 -9t27.5 -24.5t14.5 -37t4 -45.5t-4 -45.5t-14.5 -37.5t-27.5 -25.5t-43 -9.5t-43 9.5t-27 25.5t-14 37.5t-4 45.5zM323 110q0 -14 0.5 -27t3.5 -23.5t10 -16.5t20 -6
q12 0 19.5 6t10.5 16.5t4 23.5t1 27t-1 27t-4 23t-10.5 16.5t-19.5 6.5q-13 0 -20 -6.5t-10 -16.5t-3.5 -23t-0.5 -27zM480 111q0 24 4 45.5t14 37t27 24.5t44 9q26 0 43 -9t27 -24.5t14 -37t4 -45.5t-4 -45.5t-14 -37.5t-27 -25.5t-43 -9.5q-27 0 -44 9.5t-27 25.5
t-14 37.5t-4 45.5zM534 110q0 -14 0.5 -27t4 -23.5t10.5 -16.5t20 -6q12 0 19 6t10 16.5t4 23.5t1 27t-1 27t-4 23t-10 16.5t-19 6.5q-13 0 -20 -6.5t-10.5 -16.5t-4 -23t-0.5 -27zM320 427h50l-235 -444h-49z" />
    <glyph glyph-name="guilsinglleft" unicode="&#x2039;" horiz-adv-x="206" 
d="M105 176l73 -136h-70l-79 136l79 136h70z" />
    <glyph glyph-name="guilsinglright" unicode="&#x203a;" horiz-adv-x="206" 
d="M101 176l-73 136h70l78 -136l-78 -136h-70z" />
    <glyph glyph-name="fraction" unicode="&#x2044;" horiz-adv-x="110" 
d="M134 427h50l-235 -444h-49z" />
    <glyph glyph-name="fraction" unicode="&#x2215;" horiz-adv-x="110" 
d="M134 427h50l-235 -444h-49z" />
    <glyph glyph-name="Euro" unicode="&#x20ac;" horiz-adv-x="359" 
d="M361 341q-8 4 -17.5 7t-20 5t-21 3t-18.5 1q-26 0 -47.5 -6.5t-38.5 -18.5t-29.5 -28.5t-18.5 -35.5h192l-9 -38h-192q-1 -8 -1 -13v-10v-11t1 -12h181l-9 -39h-163q7 -19 19 -35t29 -27.5t38.5 -18t47.5 -6.5q19 0 39.5 3.5t37.5 11.5l4 -68q-21 -8 -44.5 -10.5
t-45.5 -2.5q-42 0 -77 10t-62 29.5t-45.5 47.5t-26.5 64h-63l10 40h47q-1 6 -1 11.5v11.5v13t1 12h-57l10 39h53q8 33 26.5 61t45.5 48t62 31t75 11q27 0 53 -4t50 -14z" />
    <glyph glyph-name="uni2113" unicode="&#x2113;" horiz-adv-x="325" 
d="M286 31q-24 -21 -48.5 -30.5t-52.5 -9.5q-46 0 -71.5 24t-25.5 66v46l-37 -35h-2l-25 39l63 55v160q0 27 8 49.5t22 38.5t33 25t41 9q40 0 63.5 -25t23.5 -67q0 -50 -29.5 -98.5t-88.5 -102.5v-82q0 -15 3.5 -24t9.5 -15t14 -8t16 -2q12 0 26.5 6t30.5 19h1zM219 371
q0 21 -7.5 34.5t-20.5 13.5t-22 -15t-9 -44v-124q31 34 45 68.5t14 66.5z" />
    <glyph glyph-name="trademark" unicode="&#x2122;" horiz-adv-x="659" 
d="M115 413h-81v48h220v-48h-80v-227h-59v227zM310 461h85l71 -185l70 185h85v-275h-56v207h-2l-77 -207h-42l-77 207h-1v-207h-56v275z" />
    <glyph glyph-name="Omega" unicode="&#x2126;" horiz-adv-x="494" 
d="M276 0v125q50 11 74.5 46.5t24.5 86.5q0 28 -9.5 53.5t-26.5 44.5t-41.5 30t-53.5 11q-30 0 -54.5 -11t-41.5 -30t-26.5 -44.5t-9.5 -54.5q0 -51 24.5 -85t73.5 -47v-125h-179v66h116v26q-30 8 -51.5 24.5t-36.5 39t-22 50t-7 57.5q0 45 16.5 83t45.5 65t67.5 42t83.5 15
q44 0 83 -14.5t68 -41.5t45.5 -64.5t16.5 -82.5q0 -30 -7.5 -57.5t-22 -51t-36.5 -40.5t-52 -24v-26h118v-66h-180z" />
    <glyph glyph-name="estimated" unicode="&#x212e;" horiz-adv-x="389" 
d="M102 168v-117q37 -39 94 -39q40 0 70.5 18.5t54.5 59.5l23 -13q-15 -24 -30.5 -40.5t-33 -27t-38.5 -15.5t-46 -5q-39 0 -69.5 14t-52.5 38t-33.5 56.5t-11.5 70.5t11.5 70.5t33.5 56.5t52.5 38t69.5 14q37 0 68 -13.5t53 -37t34 -56.5t13 -72h-262zM291 191v95
q-41 39 -96 39q-28 0 -51 -10t-42 -29v-95h189z" />
    <glyph glyph-name="partialdiff" unicode="&#x2202;" horiz-adv-x="363" 
d="M336 233q0 -28 -3 -56.5t-10 -55.5t-19 -50.5t-30.5 -41t-44 -27.5t-59.5 -10q-33 0 -59.5 11t-45.5 31t-29 47t-10 59q0 31 10 57.5t28.5 45.5t44.5 30t58 11q26 0 48 -9t43 -25l1 17q0 22 -4.5 47.5t-16 46.5t-30.5 35t-46 14q-24 0 -42.5 -9.5t-35.5 -23.5l-41 47
q14 10 27 18.5t27 14t29 8.5t33 3q50 0 84 -21t54.5 -54t29.5 -75.5t9 -84.5zM257 188q-16 18 -35 29t-44 11q-20 0 -34.5 -7.5t-24.5 -20.5t-14.5 -29.5t-4.5 -34.5q0 -17 4 -33t13 -28t23 -19t33 -7q23 0 39 12t26.5 30t15 40t4.5 41z" />
    <glyph glyph-name="Delta" unicode="&#x2206;" horiz-adv-x="447" 
d="M6 0l173 462h79l184 -462h-436zM218 374l-109 -303h226z" />
    <glyph glyph-name="product" unicode="&#x220f;" horiz-adv-x="482" 
d="M366 -140v530h-250v-530h-77v601h404v-601h-77z" />
    <glyph glyph-name="summation" unicode="&#x2211;" horiz-adv-x="425" 
d="M16 -140v62l196 243l-187 235v61h375v-71h-273l177 -225l-188 -234h292v-71h-392z" />
    <glyph glyph-name="minus" unicode="&#x2212;" horiz-adv-x="385" 
d="M22 134v73h341v-73h-341z" />
    <glyph glyph-name="radical" unicode="&#x221a;" horiz-adv-x="354" 
d="M223 -139h-71l-98 203l-33 -15l-29 60l101 46l82 -174l107 529h80z" />
    <glyph glyph-name="infinity" unicode="&#x221e;" horiz-adv-x="534" 
d="M505 172q0 -25 -8 -47t-22 -38.5t-35 -26t-47 -9.5q-21 0 -38 6t-32.5 16t-29.5 23t-26 28q-14 -15 -27 -28t-27.5 -23t-31.5 -16t-38 -6q-27 0 -48 9t-35.5 25t-22.5 38t-8 48q0 25 7.5 46.5t22 37.5t35 25t46.5 9q21 0 39 -6.5t33.5 -17t28.5 -24.5t26 -29q12 15 26 29
t29 25t32.5 17.5t38.5 6.5q26 0 47 -9t35 -25t22 -37.5t8 -46.5zM444 170q0 23 -14 39t-38 16q-13 0 -25 -5.5t-23 -14t-20.5 -18.5t-17.5 -18q8 -10 18 -19.5t21 -17t23 -12t26 -4.5q24 0 37 15.5t13 38.5zM228 169l-18 18t-21.5 18.5t-24 14t-24.5 5.5t-21 -5t-15 -12.5
t-9.5 -17.5t-3.5 -21q0 -24 13.5 -38t37.5 -14q12 0 24.5 4.5t23.5 12t20.5 17t17.5 18.5z" />
    <glyph glyph-name="integral" unicode="&#x222b;" horiz-adv-x="399" 
d="M320 460q0 -15 -10 -25.5t-25 -10.5q-16 0 -23 7.5t-10.5 16.5t-6.5 17t-9 8q-7 0 -9 -6t-2 -12q0 -24 1 -47.5t1 -46.5l1 -305v-40.5t-2 -43t-7 -42t-16 -36t-28.5 -24.5t-44.5 -9q-11 0 -24 3t-24 9t-18 15.5t-7 23.5q0 15 10 25t25 10t22 -8t10.5 -17.5t6 -17
t9.5 -7.5q4 0 6.5 2t3.5 5.5t1.5 7.5t0.5 7q0 18 -1.5 36t-1.5 37v343q0 16 -0.5 36t2 39.5t8.5 37.5t18 31q13 16 31.5 23.5t39.5 7.5q11 0 23.5 -3t23.5 -9t18 -15.5t7 -22.5z" />
    <glyph glyph-name="approxequal" unicode="&#x2248;" horiz-adv-x="385" 
d="M368 297q-3 -23 -9 -44t-18 -36.5t-30 -25t-44 -9.5q-18 0 -40 6.5t-44 14.5t-42 15t-35 7q-18 0 -28 -13.5t-12 -29.5h-48q1 21 7.5 42t18 36.5t29.5 25.5t43 10q19 0 40 -6.5t42.5 -14t42 -14t39.5 -6.5q18 0 27.5 12.5t12.5 29.5h48zM367 158q-3 -22 -9 -43
t-17.5 -36.5t-29 -25t-42.5 -9.5q-19 0 -42 6.5t-45.5 15t-42.5 15.5t-34 7q-9 0 -16 -4t-12 -10.5t-8 -14t-4 -15.5h-49q2 21 8 41.5t18 37t29.5 26.5t42.5 10q20 0 40.5 -6.5t41.5 -14.5t41.5 -14.5t41.5 -6.5q18 0 27.5 12t12.5 29h48z" />
    <glyph glyph-name="notequal" unicode="&#x2260;" horiz-adv-x="385" 
d="M177 61l-50 -101l-64 33l34 68h-75v73h112l37 73h-149v73h186l50 100l65 -32l-35 -68h75v-73h-112l-36 -73h148v-73h-186z" />
    <glyph glyph-name="lessequal" unicode="&#x2264;" horiz-adv-x="385" 
d="M22 179v73l341 113v-76l-240 -73l240 -71v-76zM22 -25v74h341v-74h-341z" />
    <glyph glyph-name="greaterequal" unicode="&#x2265;" horiz-adv-x="385" 
d="M22 69v76l240 71l-240 73v76l341 -113v-73zM22 -25v74h341v-74h-341z" />
    <glyph glyph-name="filledbox" unicode="&#x25a0;" horiz-adv-x="629" 
d="M110 0v409h409v-409h-409z" />
    <glyph glyph-name="lozenge" unicode="&#x25ca;" horiz-adv-x="385" 
d="M226 -23h-68l-116 254l116 254h68l117 -254zM192 412l-75 -181l75 -182l76 182z" />
    <glyph glyph-name="uni25CC" unicode="&#x25cc;" horiz-adv-x="503" 
d="M40 207q0 13 5.5 19.5t19.5 6.5q27 0 27 -26t-27 -26q-14 0 -19.5 6t-5.5 20zM411 207q0 26 26 26t26 -26t-26 -26t-26 26zM225 393q0 26 26 26q27 0 27 -26q0 -27 -27 -27q-26 0 -26 27zM225 21q0 27 26 27q27 0 27 -27q0 -26 -27 -26q-26 0 -26 26zM387 300q0 26 27 26
q26 0 26 -26q0 -13 -6.5 -20t-19.5 -7q-14 0 -20.5 7t-6.5 20zM387 114q0 13 6.5 20t20.5 7q13 0 19.5 -7t6.5 -20q0 -26 -26 -26q-27 0 -27 26zM63 300q0 26 25 26q28 0 28 -26q0 -13 -7 -20t-21 -7q-13 0 -19 7t-6 20zM63 114q0 13 6 20t19 7q14 0 21 -7t7 -20
q0 -26 -28 -26q-25 0 -25 26zM133 370q0 13 5.5 19.5t19.5 6.5q28 0 28 -26q0 -27 -28 -27q-14 0 -19.5 6.5t-5.5 20.5zM318 370q0 26 27 26q26 0 26 -26q0 -27 -26 -27q-27 0 -27 27zM133 44q0 13 5.5 20t19.5 7q28 0 28 -27q0 -26 -28 -26q-14 0 -19.5 6.5t-5.5 19.5z
M318 44q0 27 27 27q26 0 26 -27q0 -26 -26 -26q-27 0 -27 26z" />
    <glyph glyph-name="uniFB01" unicode="&#xfb01;" horiz-adv-x="409" 
d="M283 339h76v-339h-76v339zM360 406h-78v78h78v-78zM74 282h-63v57h63v49q0 24 5.5 45t17.5 36.5t31.5 24.5t47.5 9q15 0 30 -2.5l27 -4.5l-5 -63q-6 4 -15 7t-21 3q-13 0 -21 -5.5t-12.5 -13.5t-6 -18.5t-1.5 -21.5v-45h73v-57h-73v-282h-77v282z" />
    <glyph glyph-name="uniFB02" unicode="&#xfb02;" horiz-adv-x="409" 
d="M283 495h76v-495h-76v495zM74 282h-63v57h63v49q0 24 5.5 45t17.5 36.5t31.5 24.5t47.5 9q15 0 30 -2.5l27 -4.5l-5 -63q-6 4 -15 7t-21 3q-13 0 -21 -5.5t-12.5 -13.5t-6 -18.5t-1.5 -21.5v-45h73v-57h-73v-282h-77v282z" />
    <glyph glyph-name="glyph17" horiz-adv-x="592" 
d="M450 67q14 0 19 5t5 23v314h77v-348q0 -30 -14.5 -45.5t-36.5 -15.5h-236v67h35v199q0 14 -6 29t-18 27t-32 20t-47 8q-26 0 -46.5 -4.5t-45.5 -15.5v-4q7 -2 18 -5t22.5 -6t23 -6.5t20.5 -6.5v-53q-30 -4 -40.5 -16.5t-10.5 -33.5v-35q4 1 8.5 1.5t9.5 0.5q19 0 35 -7.5
t27 -19.5t17 -28t6 -33q0 -19 -7 -35.5t-19.5 -28.5t-29 -19t-34.5 -7q-19 0 -35.5 7t-28.5 19t-19 28.5t-7 35.5v111q0 27 6.5 46.5t20.5 25.5q-5 2 -13.5 5t-18 6l-19 6t-16.5 4v69q36 34 81.5 52t99.5 18q46 0 79 -13t54.5 -34t31.5 -48t10 -55v-204h74zM121 79
q0 -12 8.5 -20.5t20.5 -8.5t20.5 8.5t8.5 20.5t-8.5 20.5t-20.5 8.5t-20.5 -8.5t-8.5 -20.5z" />
    <glyph glyph-name="glyph21" horiz-adv-x="379" 
d="M332 64q0 -13 -3.5 -24.5t-9 -20.5t-13 -14t-14.5 -5h-92l-26 71q-9 -3 -20.5 -5.5t-19.5 -2.5q-20 0 -36.5 7t-28 18.5t-17.5 26.5t-6 30q0 20 6.5 36.5t18.5 28.5t28.5 19t37.5 7q11 0 23.5 -4t23.5 -13t20.5 -23.5t15.5 -35.5l22 -74q3 -9 6 -12t5 -3q3 0 5.5 3
t2.5 10v87q0 47 -31 69t-93 22h-112v64q28 54 65.5 83t84.5 29q14 0 34.5 -4.5t40.5 -10t37.5 -10t25.5 -4.5q6 0 16.5 1.5t17.5 4.5l12 -67q-9 -6 -19.5 -8t-21.5 -2q-13 0 -29.5 4.5t-34.5 10t-35.5 10t-32.5 4.5q-24 0 -43.5 -8.5t-33.5 -25.5h14t21.5 -0.5t22.5 -1
t17 -0.5q41 -5 69.5 -17.5t46 -33.5t25 -49.5t7.5 -65.5v-101zM134 121q11 0 19 7.5t8 19.5q0 11 -8 18.5t-19 7.5q-12 0 -19.5 -7.5t-7.5 -18.5q0 -12 7.5 -19.5t19.5 -7.5z" />
    <glyph glyph-name="uni0E1B_uni0E31.ccmp" horiz-adv-x="443" 
d="M427 621q-5 -17 -11 -32.5t-14 -29.5v-498q0 -30 -14.5 -45.5t-36.5 -15.5h-289v67h55v172q-4 -1 -9 -1.5t-9 -0.5q-20 0 -35.5 7t-26.5 19.5t-17 28t-6 33.5t7 34.5t19 29t28.5 19.5t35.5 7q18 0 34.5 -7t29 -19.5t19.5 -29t7 -34.5v-258h106q15 0 20 5t5 23v395
q-39 -21 -93 -21q-29 0 -51 7.5t-36.5 20.5t-21.5 29t-7 33q0 11 4.5 24.5t14 25.5t24 20.5t34.5 8.5q14 0 28.5 -5t25.5 -15t18.5 -24.5t7.5 -33.5q0 -7 -3.5 -17.5t-9.5 -19.5q22 3 38.5 11.5t29.5 23t22.5 34.5t18.5 48zM133 324q0 12 -8.5 20.5t-20.5 8.5t-20.5 -8.5
t-8.5 -20.5t8.5 -20.5t20.5 -8.5t20.5 8.5t8.5 20.5zM166 559q0 -12 8 -20t20 -8t20.5 8t8.5 20t-8.5 20t-20.5 8t-20 -8t-8 -20z" />
    <glyph glyph-name="uni0E1D_uni0E31.ccmp" horiz-adv-x="451" 
d="M410 0h-82l-99 143l-107 -143h-78v331q0 18 7 34.5t19 29t28.5 19.5t35.5 7q18 0 34.5 -7t29 -19.5t19.5 -29t7 -34.5t-6 -33.5t-17 -28t-27 -19.5t-35 -7q-5 0 -9.5 0.5t-8.5 1.5v-130h3l95 128h31l79 -123h4v370q-39 -21 -93 -21q-29 0 -51 7.5t-36.5 20.5t-21.5 29
t-7 33q0 11 4.5 24.5t14 25.5t24 20.5t34.5 8.5q14 0 28.5 -5t25.5 -15t18.5 -24.5t7.5 -33.5q0 -7 -3.5 -17.5t-9.5 -19.5q22 3 38.5 11.5t29.5 23t22.5 34.5t18.5 48l58 -19q-5 -17 -11 -32.5t-14 -29.5v-559zM105 330q0 -12 8.5 -20.5t20.5 -8.5t20.5 8.5t8.5 20.5
t-8.5 20.5t-20.5 8.5t-20.5 -8.5t-8.5 -20.5zM174 559q0 -12 8 -20t20 -8t20.5 8t8.5 20t-8.5 20t-20.5 8t-20 -8t-8 -20z" />
    <glyph glyph-name="uni0E1F_uni0E31.ccmp" horiz-adv-x="538" 
d="M497 0h-88l-100 255l-100 -255h-92v239q-4 -1 -9 -1.5t-9 -0.5q-20 0 -35.5 7t-26.5 19.5t-17 28t-6 33.5t7 34.5t19 29t28.5 19.5t35.5 7q18 0 34.5 -7t29 -19.5t19.5 -29t7 -34.5v-175h4q5 15 13 37.5t17 47.5t19 51t19 48.5t16.5 40t11.5 25.5h31q3 -8 10 -25
t15.5 -39t18.5 -47.5t19 -50.5t16.5 -48t11.5 -40h4v340q-39 -21 -93 -21q-29 0 -51 7.5t-36.5 20.5t-21.5 29t-7 33q0 11 4.5 24.5t14 25.5t24 20.5t34.5 8.5q14 0 28.5 -5t25.5 -15t18.5 -24.5t7.5 -33.5q0 -7 -3.5 -17.5t-9.5 -19.5q22 3 38.5 11.5t29.5 23t22.5 34.5
t18.5 48l58 -19q-5 -17 -11 -32.5t-14 -29.5v-559zM133 324q0 12 -8.5 20.5t-20.5 8.5t-20.5 -8.5t-8.5 -20.5t8.5 -20.5t20.5 -8.5t20.5 8.5t8.5 20.5zM261 559q0 -12 8 -20t20 -8t20.5 8t8.5 20t-8.5 20t-20.5 8t-20 -8t-8 -20z" />
    <glyph glyph-name="glyph95" 
d="M-42 945q-12 -19 -24.5 -30t-27.5 -16t-33 -6.5t-40 -1.5q-28 0 -46.5 -4.5t-30 -12.5t-16 -18.5t-4.5 -22.5q0 -6 2 -15.5t9 -19.5l41 32q7 -10 17.5 -20t22.5 -15q0 15 5.5 28t14.5 23t21.5 15.5t26.5 5.5t27 -5.5t22.5 -14.5t15 -21.5t5.5 -27.5q0 -19 -7.5 -33.5
t-19.5 -24.5t-27.5 -14.5t-30.5 -4.5q-26 0 -50 9.5t-42 28.5q-5 -3 -11 -8t-13 -10t-13.5 -10.5t-11.5 -9.5q-63 52 -63 113q0 22 9 42.5t26.5 36t42.5 25t57 9.5h49q35 0 57 34zM-104 823q-11 0 -17.5 -6.5t-6.5 -16.5t6.5 -17t17.5 -7q10 0 17 7t7 17t-7 16.5t-17 6.5z
" />
    <glyph glyph-name="glyph96" 
d="M-110 729v119h60v-119h-60z" />
    <glyph glyph-name="glyph97" 
d="M-273 777q23 0 35 1.5t18 7.5q-21 7 -32.5 25.5t-11.5 39.5q0 15 5.5 28t15.5 23t23.5 16t28.5 6t28 -6t23 -16t16 -23t6 -28t-9 -33.5t-27 -31.5q15 -1 32 6t32 20.5t27.5 33t19.5 43.5l51 -23q-18 -69 -68.5 -104.5t-134.5 -35.5h-78v51zM-215 850q0 -11 7 -18t18 -7
q10 0 17.5 7t7.5 18q0 10 -7.5 17.5t-17.5 7.5q-11 0 -18 -7.5t-7 -17.5z" />
    <glyph glyph-name="glyph98" 
d="M-145 775q13 10 20 25t7 39q0 13 -6.5 25t-16.5 19q-10 -5 -18 -11.5t-15 -13.5q-9 8 -18 15t-18 12q-8 -2 -15 -6.5t-13 -10.5t-10.5 -13.5t-5.5 -13.5l2 -2q3 4 11.5 7t14.5 3q11 0 21.5 -4.5t18.5 -13t13 -20.5t5 -27q0 -13 -6 -24.5t-15 -20t-20 -13.5t-22 -5
q-18 0 -31.5 7.5t-23.5 20.5t-15 28.5t-5 31.5q0 24 6.5 45.5t18.5 38.5t29 29t37 18q21 -10 38 -25q7 7 16.5 13t19.5 12q37 -14 54.5 -37t17.5 -53q0 -6 -1 -15.5t-4 -18.5q8 3 16.5 13.5t15.5 25.5t11 32.5t4 35.5l50 -13q-3 -37 -12.5 -63t-27 -46.5t-43.5 -36
t-60 -30.5zM-257 785q0 -10 6.5 -16.5t16.5 -6.5t16.5 6.5t6.5 16.5t-6.5 16.5t-16.5 6.5t-16.5 -6.5t-6.5 -16.5z" />
    <glyph glyph-name="glyph99" 
d="M-106 731v54h-54v52h54v54h52v-54h54v-52h-54v-54h-52z" />
    <glyph glyph-name="glyph100" 
d="M25 951q-8 -19 -18.5 -31t-23.5 -19.5t-29 -10.5t-34 -3q-8 0 -16 -2.5t-15 -6.5t-13 -10t-8 -13q7 4 16 5.5t15 1.5q11 0 21.5 -6t19 -15.5t14 -22t5.5 -25.5q0 -15 -6 -28.5t-16 -23t-22.5 -15t-25.5 -5.5q-18 0 -32.5 7.5t-25 21t-16 32t-5.5 39.5q0 30 9.5 52t26 37
t38.5 22.5t47 7.5q10 0 24 7.5t23 27.5zM-134 793q0 -10 6.5 -16.5t16.5 -6.5t16.5 6.5t6.5 16.5t-6.5 16.5t-16.5 6.5t-16.5 -6.5t-6.5 -16.5z" />
    <glyph glyph-name="glyph101" 
d="M-108 801q0 -12 8 -20t20 -8t20 8t8 20t-8 20t-20 8t-20 -8t-8 -20zM-160 801q0 16 6 30.5t17 25.5t25.5 17.5t31.5 6.5q16 0 30.5 -6.5t25.5 -17.5t17.5 -25.5t6.5 -30.5q0 -17 -6.5 -31.5t-17.5 -25.5t-25.5 -17t-30.5 -6q-17 0 -31.5 6t-25.5 17t-17 25.5t-6 31.5z
" />
    <glyph glyph-name="glyph102" 
d="M-162 738q-17 -9 -34 -13t-31 -4q-19 0 -32.5 5.5t-23 14.5t-14 20t-4.5 22q0 12 5 23.5t14 22t22.5 19t30.5 14.5q-6 4 -10 14.5t-4 22.5q0 23 14 40.5t37.5 29.5t54.5 18.5t65 6.5q23 0 46 -3l-14 -54q-12 1 -21.5 1h-18.5q-26 -1 -44.5 -4.5t-30.5 -9t-18 -12.5
t-6 -13q0 -9 8 -14.5t29 -5.5h11.5t13.5 1l-21 -55h-13q-25 0 -42 -3.5t-28.5 -9t-16.5 -11.5t-5 -11q0 -8 6.5 -11t17.5 -3t24.5 3t23.5 7z" />
    </font>
</defs>
</svg>
